<?xml version="1.0" encoding="UTF-8"?>
<svg width="24px" height="24px" viewBox="0 0 24 24" version="1.1" xmlns="http://www.w3.org/2000/svg" xmlns:xlink="http://www.w3.org/1999/xlink">
    <!-- Generator: Sketch 55.1 (78136) - https://sketchapp.com -->
    <title>Group 14</title>
    <desc>Created with Sketch.</desc>
    <g id="Page-1" stroke="none" stroke-width="1" fill="none" fill-rule="evenodd">
        <g id="Group-14">
            <rect id="Rectangle-Copy-47" fill="#2FD983" x="0" y="0" width="24" height="24"></rect>
            <g id="works-copy-3" transform="translate(5.000000, 2.000000)" fill="#000000" fill-rule="nonzero">
                <path d="M14.7998375,4.21138712 L10.6144785,0.192214695 C10.486528,0.0691279454 10.3125423,0 10.1311098,0 L0.683531164,0 C0.305998104,0 0,0.293847944 0,0.656390429 L0,18.3436096 C0,18.7061521 0.305998104,19 0.683531164,19 L14.3164688,19 C14.6940019,19 15,18.7061521 15,18.3436096 L15,4.67556285 C15,4.50155113 14.9280137,4.33447387 14.7998375,4.21138712 Z M10.5858194,2.02139647 L12.8950219,4.23912498 L10.5858194,4.23912498 L10.5858194,2.02139647 Z M1.36728799,17.6870024 L1.36728799,1.31278086 L9.6766259,1.31278086 L9.6766259,4.67556285 C9.6766259,4.91675221 9.88017331,5.11221743 10.1313355,5.11221743 L13.6331633,5.11221743 L13.6331633,17.6870024 L1.36728799,17.6870024 Z" id="Shape"></path>
            </g>
        </g>
    </g>
</svg>