<?xml version="1.0" encoding="UTF-8"?>
<svg width="24px" height="24px" viewBox="0 0 24 24" version="1.1" xmlns="http://www.w3.org/2000/svg" xmlns:xlink="http://www.w3.org/1999/xlink">
    <!-- Generator: Sketch 55.1 (78136) - https://sketchapp.com -->
    <title>Group 15</title>
    <desc>Created with Sketch.</desc>
    <g id="Page-1" stroke="none" stroke-width="1" fill="none" fill-rule="evenodd">
        <g id="Group-15">
            <rect id="Rectangle-Copy-48" fill="#2FD983" x="0" y="0" width="24" height="24"></rect>
            <g id="json-copy-3" transform="translate(4.000000, 2.000000)" fill="#000000" fill-rule="nonzero">
                <path d="M8.671875,12.5362939 L8.671875,10.2167757 C8.671875,10.015245 8.51516314,9.85185185 8.32184926,9.85185185 C8.22802137,9.85083516 8.1378606,9.8898079 8.0722657,9.95975659 C8.00502871,10.0267292 7.96753957,10.1198378 7.96877983,10.2167757 L7.96877983,12.5362939 C7.96753957,12.6332318 8.00502871,12.7263404 8.0722657,12.793313 C8.13765533,12.8635773 8.22795219,12.9026089 8.32184926,12.9011976 C8.51516314,12.9011976 8.671875,12.7378246 8.671875,12.5362939 L8.671875,12.5362939 Z" id="Path"></path>
                <path d="M14.6875,7.91666667 L14.375,7.91666667 L14.375,4.11666667 C14.375,4.11666667 14.375,4.11666667 14.375,4.09766667 C14.3734159,4.06964176 14.3681615,4.0419547 14.359375,4.01533333 L14.359375,3.98683333 C14.3450108,3.95295257 14.3249172,3.92187449 14.3,3.895 L14.3,3.895 L10.55,0.095 L10.55,0.095 C10.5234791,0.0697505276 10.49281,0.0493890229 10.459375,0.0348333333 L10.43125,0.0348333333 C10.4001114,0.0175501957 10.366294,0.00577047865 10.33125,0 L0.9375,0 C0.764911016,0 0.625,0.141776496 0.625,0.316666667 L0.625,7.91666667 L0.3125,7.91666667 C0.139911016,7.91666667 0,8.05844316 0,8.23333333 L0,14.5666667 C0,14.7415568 0.139911016,14.8833333 0.3125,14.8833333 L0.625,14.8833333 L0.625,18.6833333 C0.625,18.8582235 0.764911016,19 0.9375,19 L14.0625,19 C14.235089,19 14.375,18.8582235 14.375,18.6833333 L14.375,14.8833333 L14.6875,14.8833333 C14.860089,14.8833333 15,14.7415568 15,14.5666667 L15,8.23333333 C15,8.05844316 14.860089,7.91666667 14.6875,7.91666667 Z M10.625,1.07983333 L13.309375,3.8 L10.625,3.8 L10.625,1.07983333 Z M13.75,18.3666667 L1.25,18.3666667 L1.25,14.8833333 L13.75,14.8833333 L13.75,18.3666667 Z M2.878125,13.5565 L2.96875,12.9643333 C3.02950591,12.9763649 3.0912227,12.9827249 3.153125,12.9833333 C3.197859,12.9865904 3.242766,12.9865904 3.2875,12.9833333 C3.384418,12.9797436 3.47668452,12.9403173 3.546875,12.8725 C3.6167425,12.8075733 3.65548488,12.7151993 3.653125,12.6191667 L3.653125,9.3385 L4.278125,9.3385 L4.278125,12.6001667 C4.27742138,12.8666447 4.16630184,13.1205718 3.971875,13.3 C3.78662047,13.4903735 3.53256014,13.5956411 3.26875,13.5913333 C3.13754408,13.6006194 3.00571397,13.5888637 2.878125,13.5565 L2.878125,13.5565 Z M6.003125,12.0143333 L5.44375,11.476 C5.26985502,11.3154874 5.12032308,11.1298151 5,10.925 C4.90579746,10.7411905 4.8575125,10.536777 4.859375,10.3296667 C4.83773754,9.99268034 4.98011979,9.66627489 5.240625,9.45566667 C5.41131509,9.33151343 5.6182144,9.26906212 5.828125,9.27833333 C6.03013747,9.27272571 6.22955897,9.32544235 6.403125,9.43033333 C6.5325759,9.50671146 6.64025185,9.61582309 6.715625,9.747 C6.79442904,9.89809629 6.84125996,10.0641899 6.853125,10.2346667 L6.25,10.3455 C6.24202458,10.1985703 6.19087549,10.0574134 6.103125,9.94016667 C6.03975062,9.86870634 5.94778747,9.83026574 5.853125,9.83566667 C5.74359406,9.83247166 5.64179464,9.89264643 5.590625,9.99083333 C5.53830722,10.0876527 5.51343205,10.1972477 5.51875,10.3075 C5.52977771,10.527225 5.61723937,10.735893 5.765625,10.8965 C5.8499493,10.9947159 5.94305385,11.0848216 6.04375,11.1656667 C6.190625,11.2891667 6.2875,11.3778333 6.334375,11.4253333 C6.47453476,11.5631853 6.5954452,11.7198011 6.69375,11.8908333 C6.73002203,11.9552715 6.762374,12.0218957 6.790625,12.0903333 C6.84382709,12.2232387 6.87242878,12.3649336 6.875,12.5083333 C6.88723517,12.7792135 6.80785897,13.0462115 6.65,13.2651667 C6.54277996,13.4107424 6.39121819,13.5164696 6.21875,13.566 C6.10509102,13.5995145 5.98710633,13.6155267 5.86875,13.6135 C5.64558587,13.6244248 5.42533041,13.5585831 5.24375,13.4266667 C5.10676311,13.318574 4.99921357,13.1768954 4.93125,13.015 C4.84911361,12.8258914 4.80248387,12.6229249 4.79375,12.4165 L5.39375,12.3721667 C5.40089143,12.5668228 5.46872128,12.754179 5.5875,12.9073333 C5.649794,12.9874253 5.74633939,13.0322161 5.846875,13.0276667 C5.98439445,13.0224154 6.10904142,12.9442242 6.175,12.8218333 C6.22162327,12.7368814 6.24330859,12.6401938 6.2375,12.5431667 C6.22613452,12.3410822 6.13759246,12.1514154 5.990625,12.0143333 L6.003125,12.0143333 Z M7.3875,12.6001667 L7.3875,10.2916667 C7.3875,9.73376702 7.83381614,9.2815 8.384375,9.2815 C8.93493386,9.2815 9.38125,9.73376702 9.38125,10.2916667 L9.38125,12.6001667 C9.38125,13.1580663 8.93493386,13.6103333 8.384375,13.6103333 C7.83381614,13.6103333 7.3875,13.1580663 7.3875,12.6001667 L7.3875,12.6001667 Z M9.934375,13.5501667 L9.934375,9.329 L10.625,9.329 L11.459375,12.179 L11.459375,9.329 L12.084375,9.329 L12.084375,13.5596667 L11.41875,13.5596667 L10.553125,10.8521667 L10.553125,13.5596667 L9.934375,13.5501667 Z M13.75,7.91666667 L1.25,7.91666667 L1.25,0.633333333 L10,0.633333333 L10,4.11666667 C10,4.29155684 10.139911,4.43333333 10.3125,4.43333333 L13.75,4.43333333 L13.75,7.91666667 Z" id="Shape"></path>
            </g>
        </g>
    </g>
</svg>