<?xml version="1.0" encoding="UTF-8"?>
<svg width="17px" height="19px" viewBox="0 0 17 19" version="1.1" xmlns="http://www.w3.org/2000/svg" xmlns:xlink="http://www.w3.org/1999/xlink">
    <!-- Generator: Sketch 55.1 (78136) - https://sketchapp.com -->
    <title>monster copy 4</title>
    <desc>Created with Sketch.</desc>
    <g id="Page-1" stroke="none" stroke-width="1" fill="none" fill-rule="evenodd">
        <g id="monster-copy-4" fill="#000000" fill-rule="nonzero">
            <g id="Group">
                <path d="M16.4237874,11.5294757 C15.6817893,9.98740098 14.5544981,8.48413024 14.101644,8.02060439 C14.0437685,7.96188512 13.9794376,7.91482073 13.9157986,7.86560378 C13.6430265,6.96920927 13.2741029,6.04814951 12.8267833,5.1897689 C16.5469146,4.24212305 15.9328887,0.0662984146 15.9328887,0.0662984146 L11.9508182,3.02814817 L11.3914379,3.02814817 C10.8758681,2.432475 10.312566,1.95616354 9.71629333,1.66166354 C9.92265917,1.27563451 9.97062042,0.925812073 9.80760222,0.81052378 C9.61437833,0.673853537 9.19772486,0.916193902 8.84724861,1.35403963 C8.84886361,1.31364841 8.85185986,1.27472854 8.85185986,1.23377427 C8.85185986,0.623167561 8.64595444,0.128073902 8.39162736,0.128073902 C8.13706889,0.128073902 7.93139486,0.623167561 7.93139486,1.23377427 C7.93139486,1.27473085 7.93439347,1.31387549 7.93600611,1.35403963 C7.5855275,0.916193902 7.16887639,0.67385122 6.9756525,0.81052378 C6.81240292,0.925812073 6.86082458,1.27563451 7.06719278,1.66189061 C6.41650361,1.98309024 5.80432181,2.51857512 5.25116542,3.19129561 L4.83243889,3.19129561 L0.849676528,0.229557073 C0.849676528,0.229557073 0.243026806,4.35118768 3.88107639,5.3350378 C3.42245889,6.24070988 3.04984486,7.21030537 2.78560347,8.14256585 C2.27856431,8.70984098 1.26287097,10.1023487 0.575749861,11.5294757 C0.203367222,12.3044741 -0.0982269444,13.7938262 0.595118056,14.0119578 C1.29330569,14.2312201 1.91217653,13.2260993 2.53312042,12.418064 C2.87552875,13.7209659 3.65280417,14.8482752 4.70815472,15.6445421 L4.70815472,17.2185229 C4.70815472,17.6416599 4.90414583,18.0168265 5.207355,18.2738779 C5.14187194,18.4906517 5.19052264,18.697469 5.32910097,18.746343 C5.44830875,18.7886574 5.59334236,18.6992763 5.68880208,18.5415624 C5.75543972,18.5628332 5.82253778,18.5820649 5.8930925,18.5942851 C5.92329819,18.7888822 6.03397528,18.9337003 6.16655639,18.9337003 C6.3023675,18.9341511 6.41580944,18.783451 6.4427875,18.5829709 C6.50896236,18.5687162 6.57260139,18.5481244 6.63508819,18.524817 C6.73031653,18.6931662 6.881345,18.789334 7.004935,18.7463407 C7.15135222,18.6947488 7.20253875,18.466436 7.11837931,18.2363135 C7.1176875,18.2335979 7.11653528,18.2320154 7.11584347,18.2297516 C7.38884694,17.9745121 7.56085861,17.6174465 7.56085861,17.2185206 L7.56085861,16.8148424 C7.83293889,16.8519527 8.10894097,16.8772945 8.39162736,16.8772945 C8.76539361,16.8772945 9.12947458,16.8390535 9.48410167,16.7754707 L9.48410167,17.2185206 C9.48410167,17.6416576 9.68032181,18.0168241 9.98330194,18.2738756 C9.91781889,18.4906494 9.96670097,18.6974667 10.1052769,18.7463407 C10.2242557,18.7886551 10.3690579,18.699274 10.4647467,18.5415601 C10.5311529,18.5628309 10.5984824,18.5820626 10.6690371,18.5942828 C10.6992428,18.7886551 10.8099199,18.9337003 10.942501,18.9337003 C11.0787725,18.9341488 11.191754,18.7834487 11.2187321,18.5829685 C11.2849069,18.5687139 11.3483169,18.5481221 11.4108037,18.5248146 C11.5062635,18.6931639 11.6572919,18.7893317 11.7808796,18.7463384 C11.9277572,18.6947465 11.9784833,18.4664337 11.8943239,18.2363112 C11.8936321,18.2335956 11.8924799,18.232013 11.8917881,18.2302011 C12.1645601,17.9754134 12.3365718,17.6174441 12.3365718,17.2185183 L12.3365718,15.4372683 C13.3123742,14.6133959 14.0172485,13.4915154 14.3036253,12.2130517 C14.9806007,13.0421306 15.6460468,14.2502201 16.4044144,14.0119509 C17.098456,13.7938262 16.7966304,12.3044741 16.4237874,11.5294757 Z M8.49976861,10.8117252 C6.66690889,10.8117252 5.18107111,9.35404988 5.18107111,7.55515073 C5.18107111,5.75647634 6.66691125,4.29846268 8.49976861,4.29846268 C10.332626,4.29846268 11.8182371,5.75647634 11.8182371,7.55515073 C11.8182371,9.3540522 10.3326283,10.8117252 8.49976861,10.8117252 Z" id="Shape"></path>
                <g transform="translate(6.138889, 4.865854)">
                    <path d="M2.36111111,0.213944634 C1.09132208,0.213944634 0.061795,1.22393134 0.061795,2.47014829 C0.061795,3.71614049 1.09132208,4.72635195 2.36111111,4.72635195 C3.63090014,4.72635195 4.66019583,3.71614049 4.66019583,2.47014829 C4.66019583,1.22393134 3.63090014,0.213944634 2.36111111,0.213944634 Z M2.36111111,3.99547988 C1.5026725,3.99547988 0.806789306,3.31212402 0.806789306,2.47014829 C0.806789306,1.62772073 1.5026725,0.944816707 2.36111111,0.944816707 C3.21978111,0.944816707 3.91520153,1.62772073 3.91520153,2.47014829 C3.91520153,3.31212402 3.21978111,3.99547988 2.36111111,3.99547988 Z" id="Shape"></path>
                    <path d="M2.36111111,1.68859024 C2.15612889,1.68859024 1.97143569,1.76654354 1.83032153,1.89110707 C1.84254264,1.8898628 1.85338014,1.88420451 1.86606167,1.88420451 C2.02931125,1.88420451 2.16189236,2.01397451 2.16189236,2.17417695 C2.16189236,2.33415463 2.02931125,2.46392463 1.86606167,2.46392463 C1.73993583,2.46392463 1.63456181,2.38574659 1.59190597,2.27690671 C1.57576542,2.33913171 1.5644675,2.40305512 1.5644675,2.47014598 C1.5644675,2.90176805 1.92140139,3.25147927 2.36111111,3.25147927 C2.80105222,3.25147927 3.15752569,2.90176805 3.15752569,2.47014598 C3.15752569,2.03830146 2.80105222,1.68859024 2.36111111,1.68859024 Z" id="Path"></path>
                </g>
            </g>
        </g>
    </g>
</svg>