<?xml version="1.0" encoding="UTF-8"?>
<svg width="21px" height="16px" viewBox="0 0 21 16" version="1.1" xmlns="http://www.w3.org/2000/svg" xmlns:xlink="http://www.w3.org/1999/xlink">
    <!-- Generator: Sketch 55.1 (78136) - https://sketchapp.com -->
    <title>logo copy 7</title>
    <desc>Created with Sketch.</desc>
    <g id="Page-1" stroke="none" stroke-width="1" fill="none" fill-rule="evenodd">
        <g id="logo-copy-7" fill="#FFFFFF">
            <path d="M14.3598625,8.04356364 C14.3598625,9.70998788 12.9666125,11.0611394 11.2479875,11.0611394 L9.4167375,11.0611394 C7.6982375,11.0611394 6.3049875,9.70998788 6.3049875,8.04356364 C6.3049875,6.37738182 7.6982375,5.0262303 9.4167375,5.0262303 L11.2479875,5.0262303 C12.9666125,5.0262303 14.3598625,6.37738182 14.3598625,8.04356364" id="center"></path>
            <path d="M12.7590375,0.102036364 L11.3862875,0.102036364 C11.9677875,0.102036364 12.4396625,0.559612121 12.4396625,1.12361212 C12.4396625,1.68749091 11.9677875,2.14494545 11.3862875,2.14494545 L11.2782875,2.14494545 L11.2782875,2.15888485 L12.1352875,2.15888485 C15.2946625,2.21452121 18.4987875,4.79355152 18.4987875,8.04361212 C18.4987875,11.2937939 15.4865375,13.928703 12.1352875,13.928703 L12.0525375,13.928703 C12.0412875,13.9282182 12.0307875,13.9251879 12.0192875,13.9251879 L11.3942875,13.9251879 C11.3830375,13.9251879 11.3725375,13.9282182 11.3612875,13.928703 L11.2782875,13.928703 L11.2782875,13.9365818 C10.7470375,13.9935515 10.3325375,14.4249455 10.3325375,14.9550061 C10.3325375,15.4853091 10.7470375,15.916703 11.2782875,15.9736727 L11.2782875,15.9850667 L11.3942875,15.9850667 L12.0192875,15.9850667 L12.7590375,15.9850667 C17.2822875,15.9850667 20.9485375,12.4299152 20.9485375,8.04361212 C20.9485375,3.65767273 17.2822875,0.102036364 12.7590375,0.102036364" id="right"></path>
            <path d="M9.6003,15.9850909 C9.0183,15.9850909 8.547175,15.5275152 8.547175,14.9637576 C8.547175,14.3993939 9.025675,13.9277576 9.607675,13.9277576 L9.71555,13.9277576 L9.70855,13.9287273 L8.85155,13.9287273 C5.4998,13.9287273 2.4778,11.2938182 2.4778,8.04351515 C2.4778,4.79357576 5.4998,2.15890909 8.85155,2.15890909 L8.9338,2.15890909 C8.94505,2.15890909 8.95555,2.16218182 8.9668,2.16218182 L9.5923,2.16218182 C9.60355,2.16218182 9.61405,2.15890909 9.62505,2.15890909 L9.70855,2.15890909 L9.70855,2.15078788 C10.23955,2.09369697 10.65405,1.66242424 10.65405,1.13212121 C10.65405,0.601818182 10.23955,0.170424242 9.70855,0.113454545 L9.70855,0.102060606 L9.5923,0.102060606 L8.9668,0.102060606 L8.2273,0.102060606 C3.7043,0.102060606 0.03755,3.65769697 0.03755,8.04351515 C0.03755,12.4299394 3.7043,15.9850909 8.2273,15.9850909 L9.6003,15.9850909 Z" id="left"></path>
        </g>
    </g>
</svg>