<?xml version="1.0" encoding="UTF-8"?>
<svg width="19px" height="19px" viewBox="0 0 19 19" version="1.1" xmlns="http://www.w3.org/2000/svg" xmlns:xlink="http://www.w3.org/1999/xlink">
    <!-- Generator: Sketch 55.1 (78136) - https://sketchapp.com -->
    <title>text copy 5</title>
    <desc>Created with Sketch.</desc>
    <g id="Page-1" stroke="none" stroke-width="1" fill="none" fill-rule="evenodd">
        <g id="text-copy-5" fill="#FFFFFF" fill-rule="nonzero">
            <g id="Group">
                <path d="M16.6777778,0 L2.32222222,0 C1.03444444,0 0,0.971111111 0,2.17444444 L0,13.0888889 C0,14.2922222 1.03444444,15.2633333 2.32222222,15.2633333 L3.84222222,15.2633333 L3.84222222,18.4933333 C3.84222222,18.6833333 3.96888889,18.8733333 4.15888889,18.9577778 C4.24333333,19 4.30666667,19 4.39111111,19 C4.51777778,19 4.64444444,18.9577778 4.75,18.8944444 L9.54222222,15.2633333 L16.6777778,15.2633333 C17.9655556,15.2633333 19,14.2922222 19,13.0888889 L19,2.17444444 C19,0.971111111 17.9655556,0 16.6777778,0 Z M17.9233333,13.0677778 C17.9233333,13.7011111 17.3744444,14.2077778 16.6988889,14.2077778 L9.33111111,14.2077778 C9.20444444,14.2077778 9.07777778,14.25 8.97222222,14.3133333 L4.94,17.3744444 L4.94,14.7144444 C4.94,14.44 4.68666667,14.2077778 4.39111111,14.2077778 L2.32222222,14.2077778 C1.64666667,14.2077778 1.09777778,13.7011111 1.09777778,13.0677778 L1.09777778,2.21666667 C1.09777778,1.58333333 1.64666667,1.07666667 2.32222222,1.07666667 L16.72,1.07666667 C17.3955556,1.07666667 17.9444444,1.58333333 17.9444444,2.21666667 L17.9444444,13.0677778 L17.9233333,13.0677778 Z" id="Shape"></path>
                <path d="M5.86888889,4.49666667 L3.67333333,10.6611111 L5.02444444,10.6611111 L5.44666667,9.39444444 L7.72666667,9.39444444 L8.12777778,10.6611111 L9.5,10.6611111 L7.32555556,4.49666667 L5.86888889,4.49666667 Z M5.78444444,8.33888889 L6.58666667,5.91111111 L7.36777778,8.33888889 L5.78444444,8.33888889 Z" id="Shape"></path>
                <path d="M12.0544444,4.49666667 L9.85888889,10.6611111 L11.21,10.6611111 L11.6322222,9.39444444 L13.9122222,9.39444444 L14.3133333,10.6611111 L15.7066667,10.6611111 L13.5111111,4.49666667 L12.0544444,4.49666667 Z M11.97,8.33888889 L12.7722222,5.91111111 L13.5533333,8.33888889 L11.97,8.33888889 Z" id="Shape"></path>
            </g>
        </g>
    </g>
</svg>