<?xml version="1.0" encoding="UTF-8"?>
<svg width="600px" height="600px" viewBox="0 0 600 600" version="1.1" xmlns="http://www.w3.org/2000/svg" xmlns:xlink="http://www.w3.org/1999/xlink">
    <!-- Generator: Sketch 55.1 (78136) - https://sketchapp.com -->
    <title>monster39</title>
    <desc>Created with Sketch.</desc>
    <g id="monster39" stroke="none" stroke-width="1" fill="none" fill-rule="evenodd">
        <g id="noun_Monster_1510402" transform="translate(113.000000, 89.000000)" fill="#000000" fill-rule="nonzero">
            <g id="Group">
                <path d="M180.287179,203.327273 L180.287179,203.327273 C175.971795,210.040909 175.971795,216.754545 180.287179,223.468182 L180.287179,223.468182 L180.287179,223.468182 C184.602564,216.754545 184.602564,210.040909 180.287179,203.327273 L180.287179,203.327273 Z" id="Path"></path>
                <path d="M193.712821,223.468182 L193.712821,223.468182 C198.028205,216.754545 198.028205,210.040909 193.712821,203.327273 L193.712821,203.327273 L193.712821,203.327273 C189.397436,210.040909 189.397436,216.754545 193.712821,223.468182 L193.712821,223.468182 Z" id="Path"></path>
                <path d="M297.282051,209.561364 C302.55641,196.134091 304.953846,182.227273 304.953846,166.881818 C304.953846,112.693182 268.512821,67.1363636 219.125641,53.2295455 L219.125641,25.8954545 C219.125641,23.4977273 217.207692,21.5795455 214.810256,21.5795455 L214.810256,21.5795455 C212.412821,21.5795455 210.494872,23.4977273 210.494872,25.8954545 L210.494872,50.8318182 C207.138462,50.3522727 203.302564,49.3931818 199.946154,49.3931818 L199.946154,18.2227273 C199.946154,15.825 198.028205,13.9068182 195.630769,13.9068182 L195.630769,13.9068182 C193.233333,13.9068182 191.315385,15.825 191.315385,18.2227273 L191.315385,48.9136364 C189.876923,48.9136364 187.958974,48.9136364 186.520513,48.9136364 C185.082051,48.9136364 183.164103,48.9136364 181.725641,48.9136364 L181.725641,7.19318182 C181.725641,4.79545455 179.807692,2.87727273 177.410256,2.87727273 L177.410256,2.87727273 C175.012821,2.87727273 173.094872,4.79545455 173.094872,7.19318182 L173.094872,49.3931818 C169.738462,49.8727273 165.902564,50.3522727 162.546154,50.8318182 L162.546154,18.2227273 C162.546154,15.825 160.628205,13.9068182 158.230769,13.9068182 L158.230769,13.9068182 C155.833333,13.9068182 153.915385,15.825 153.915385,18.2227273 L153.915385,53.2295455 C105.007692,67.1363636 69.0461538,112.693182 69.0461538,166.881818 C69.0461538,181.747727 71.9230769,196.134091 76.7179487,209.561364 C31.6461538,231.620455 0.958974359,278.136364 0.958974359,331.365909 L0.958974359,333.284091 C0.958974359,370.209091 31.1666667,400.420455 68.0871795,400.420455 L112.2,400.420455 L112.2,412.409091 C112.2,415.765909 115.076923,419.122727 118.912821,419.122727 L118.912821,419.122727 C122.269231,419.122727 125.625641,416.245455 125.625641,412.409091 L125.625641,400.420455 L249.333333,400.420455 L249.333333,412.409091 C249.333333,415.765909 252.210256,419.122727 256.046154,419.122727 L256.046154,419.122727 C259.402564,419.122727 262.758974,416.245455 262.758974,412.409091 L262.758974,400.420455 L306.871795,400.420455 C343.792308,400.420455 374,370.209091 374,333.284091 L374,331.365909 C373.041026,278.136364 342.353846,231.620455 297.282051,209.561364 Z M187,322.734091 L175.492308,294.920455 L189.397436,284.85 L184.123077,275.259091 L194.671795,270.943182 L191.794872,264.709091 L206.179487,257.995455 L185.561538,259.913636 L187,267.586364 L175.012821,272.381818 L179.328205,282.452273 L171.176923,285.329545 L143.846154,220.111364 L187,193.736364 L230.153846,220.111364 L187,322.734091 Z M214.330769,173.595455 C210.494872,173.595455 206.658974,172.636364 203.782051,170.718182 C208.097436,170.238636 211.453846,166.402273 211.453846,162.086364 C211.453846,157.290909 207.617949,152.975 202.34359,152.975 C198.507692,152.975 195.630769,155.372727 194.192308,158.25 C193.712821,156.331818 193.712821,154.893182 193.712821,152.975 C193.712821,151.536364 193.712821,150.577273 194.192308,149.618182 C191.315385,144.343182 185.561538,140.986364 178.848718,140.986364 C170.697436,141.465909 163.984615,148.179545 163.505128,156.331818 C163.025641,166.402273 171.176923,174.554545 181.246154,174.075 C181.246154,174.075 181.246154,174.075 181.246154,174.075 C175.012821,178.390909 167.341026,180.788636 159.189744,180.788636 C136.653846,180.788636 118.433333,162.565909 118.433333,140.027273 C118.433333,117.488636 136.653846,99.2659091 159.189744,99.2659091 C181.246154,99.2659091 198.987179,117.009091 199.946154,138.588636 C203.782051,134.752273 209.05641,131.875 214.810256,131.875 C226.317949,131.875 235.428205,140.986364 235.428205,152.495455 C234.948718,164.004545 225.838462,173.595455 214.330769,173.595455 Z" id="Shape"></path>
            </g>
        </g>
    </g>
</svg>