<?xml version="1.0" encoding="UTF-8"?>
<svg width="600px" height="600px" viewBox="0 0 600 600" version="1.1" xmlns="http://www.w3.org/2000/svg" xmlns:xlink="http://www.w3.org/1999/xlink">
    <!-- Generator: Sketch 55.1 (78136) - https://sketchapp.com -->
    <title>monster25</title>
    <desc>Created with Sketch.</desc>
    <g id="monster25" stroke="none" stroke-width="1" fill="none" fill-rule="evenodd">
        <g id="noun_Monster_2236204" transform="translate(126.000000, 103.000000)" fill="#000000" fill-rule="nonzero">
            <g id="Group">
                <ellipse id="Oval" cx="208.672917" cy="77.3735875" rx="11.6915582" ry="11.6757934"></ellipse>
                <path d="M142.653866,65.6977941 C136.197076,65.6977941 130.962308,70.9255029 130.962308,77.3735875 C130.962308,83.8213235 136.197076,89.0493809 142.653866,89.0493809 C149.110308,89.0493809 154.345076,83.8213235 154.345076,77.3735875 C154.345076,70.9255029 149.110308,65.6977941 142.653866,65.6977941 Z" id="Path"></path>
                <path d="M284.231358,116.641293 C287.954083,108.044001 289.9898,98.8662926 289.9898,89.339764 C289.9898,40.8358551 238.279924,1.51035221 174.529083,1.51035221 C110.778242,1.51035221 59.0683663,40.8358551 59.0683663,89.339764 C59.0683663,98.8662926 61.1040833,108.044001 64.8268082,116.641293 C46.50425,145.162442 11.4878003,199.474826 2.93741667,211.963912 C2.93741667,211.963912 34.4636337,317.800503 37.7791918,329.185913 L72.969967,327.733707 C76.6926918,327.733707 79.7756997,324.074149 79.7756997,319.601238 C79.7756997,315.07053 76.6926918,311.469118 72.969967,311.469118 L66.0481337,311.062442 L52.844533,310.016912 C51.7975912,303.975851 36.7904748,224.743382 36.7904748,224.743382 L36.2668003,221.722678 L36.1506997,220.560855 L91.5834167,150.274265 C96.178467,153.875735 101.181033,157.186765 106.532308,160.149323 L87.2209167,214.345356 C84.5451337,223.000793 83.0330912,232.178502 83.0330912,241.705031 C83.0330912,267.554354 93.852033,290.789648 111.069483,307.402825 L129.5082,365.781443 C134.277925,381.000561 142.47925,393.489648 147.6562,393.489648 C152.890967,393.489648 157.137366,380.419795 157.137366,364.44553 L157.137366,331.335178 C162.779358,332.438854 168.596025,333.077767 174.529141,333.077767 C180.462258,333.077767 186.278924,332.438854 191.920917,331.335178 L191.920917,364.44553 C191.920917,380.419795 196.166967,393.489648 201.343917,393.489648 C206.579033,393.489648 214.722192,381.000561 219.550083,365.781443 L237.930924,307.402825 C255.20625,290.789648 265.966967,267.554354 265.966967,241.705031 C265.966967,232.178502 264.5128,223.000793 261.837366,214.345356 L245.085366,158.697059 C249.506091,156.08303 253.577816,153.236765 257.474866,150.21606 L312.907525,220.560855 L312.791424,221.722678 L312.209525,224.743382 C312.209525,224.743382 297.260634,303.975793 296.213692,310.016854 L283.010091,311.062384 L276.088258,311.46906 C272.307308,311.46906 269.282525,315.07053 269.282525,319.60118 C269.282525,324.07409 272.307308,327.733649 276.088258,327.733649 L311.279033,329.185855 C314.594591,317.800445 346.062583,211.963854 346.062583,211.963854 C337.570075,199.474826 302.553975,145.162442 284.231358,116.641293 Z M248.516967,106.591796 L100.540967,106.591796 C98.3309827,100.724826 97.1093082,94.4515287 97.1093082,88.0035022 C97.1093082,53.150561 131.776758,24.9197368 174.529142,24.9197368 C217.281525,24.9197368 251.948975,53.150561 251.948975,88.0035022 C251.948975,94.4515287 250.7273,100.724826 248.516967,106.591796 Z" id="Shape"></path>
            </g>
        </g>
    </g>
</svg>