<?xml version="1.0" encoding="UTF-8"?>
<svg width="600px" height="600px" viewBox="0 0 600 600" version="1.1" xmlns="http://www.w3.org/2000/svg" xmlns:xlink="http://www.w3.org/1999/xlink">
    <!-- Generator: Sketch 55.1 (78136) - https://sketchapp.com -->
    <title>monster31</title>
    <desc>Created with Sketch.</desc>
    <g id="monster31" stroke="none" stroke-width="1" fill="none" fill-rule="evenodd">
        <g id="noun_Monster_2236033" transform="translate(118.000000, 109.000000)" fill="#000000" fill-rule="nonzero">
            <path d="M282.574941,137.32531 L282.258419,137.32531 C280.833966,120.209225 273.553966,104.466393 262.159289,91.5764622 L262.159289,0.0264137931 L225.178946,65.743931 C212.096153,60.408292 197.483294,57.3970668 182.026535,57.3970668 C166.569776,57.3970668 151.904111,60.408292 138.821318,65.743931 L101.840975,0.0264137931 L101.840975,91.5764094 C90.4463507,104.46634 83.2187878,120.209172 81.7418446,137.325258 L81.4253229,137.325258 C81.4253229,137.325258 1.13415014,182.968028 1.13415014,290.102531 L9.99702261,301.935858 L45.28888,301.935858 C45.28888,301.935858 38.4309617,243.984154 68.8171014,202.725809 C68.8171014,202.725809 46.9770487,285.136738 89.2855072,364.74791 L70.7690383,382.973586 L122.784058,382.973586 L130.644612,340.288791 C130.644612,340.288791 150.005086,347.156324 178.070066,347.156324 L185.930303,347.156324 C213.995283,347.156324 233.408564,340.288791 233.408564,340.288791 L241.215995,382.973586 L293.231014,382.973586 L274.714757,364.748016 C317.022951,285.136791 295.183162,202.725915 295.183162,202.725915 C325.621792,243.98426 318.711067,301.935963 318.711067,301.935963 L354.056048,301.935963 L362.865797,290.102637 C362.865797,182.968081 282.574941,137.32531 282.574941,137.32531 Z M134.495521,96.1198459 C134.495521,91.787931 137.977101,88.3011519 142.250145,88.3011519 C146.523188,88.3011519 150.005086,91.787931 150.005086,96.1198459 C150.005086,100.39888 146.523188,103.885343 142.250145,103.885343 C137.977101,103.885343 134.495521,100.398828 134.495521,96.1198459 Z M147.367405,188.990478 C147.367405,169.866892 162.87697,154.335582 182.026588,154.335582 C201.123399,154.335582 216.632965,169.866892 216.632965,188.990478 C216.632965,208.166945 147.367405,208.166945 147.367405,188.990478 Z M221.749855,103.885343 C217.476812,103.885343 213.995231,100.39888 213.995231,96.1198459 C213.995231,91.787931 217.476812,88.3011519 221.749855,88.3011519 C226.075705,88.3011519 229.504796,91.787931 229.504796,96.1198459 C229.504796,100.398828 226.075705,103.885343 221.749855,103.885343 Z" id="Shape"></path>
        </g>
    </g>
</svg>