<?xml version="1.0" encoding="UTF-8"?>
<svg width="600px" height="600px" viewBox="0 0 600 600" version="1.1" xmlns="http://www.w3.org/2000/svg" xmlns:xlink="http://www.w3.org/1999/xlink">
    <!-- Generator: Sketch 55.1 (78136) - https://sketchapp.com -->
    <title>monster37</title>
    <desc>Created with Sketch.</desc>
    <g id="monster37" stroke="none" stroke-width="1" fill="none" fill-rule="evenodd">
        <g id="noun_Monster_2236028" transform="translate(156.000000, 123.000000)" fill="#000000" fill-rule="nonzero">
            <g id="Group">
                <path d="M121.319952,126.452103 C121.319952,138.973001 131.495952,149.095491 144.023856,149.095491 C156.55176,149.095491 166.68,138.972953 166.68,126.452103 C166.68,113.931253 156.55176,103.809004 144.023856,103.809004 C131.495952,103.809004 121.319952,113.931205 121.319952,126.452103 Z M153.047904,126.452103 C153.047904,131.441484 148.968,135.471022 144.023904,135.471022 C139.032,135.471022 134.999904,131.441436 134.999904,126.452103 C134.999904,121.46301 139.032048,117.433184 144.023904,117.433184 C148.968,117.433184 153.047904,121.46301 153.047904,126.452103 Z" id="Shape"></path>
                <path d="M93.335904,180.853503 L108.407952,199.994719 L112.199856,193.75828 L126.168,209.973145 L131.111856,195.38917 L144.023856,215.489845 L155.687808,196.252635 L165.095904,209.973145 L174.55176,194.333908 L180.26376,202.633136 L194.66376,180.853503 C179.68776,184.499497 162.407904,186.562286 144.023808,186.562286 C125.592048,186.562382 108.359904,184.499545 93.335904,180.853503 Z" id="Path"></path>
                <path d="M250.056,183.443995 C258.792048,182.916341 278.61576,179.318368 281.256,157.346698 C284.32776,131.585211 239.063808,139.452875 230.904048,141.083812 C238.583952,139.356833 280.968,128.898773 281.592048,106.927055 C282.168048,86.7306257 237.575856,94.9338122 222.695952,98.2439473 L222.695952,96.900848 C243.959904,85.9628662 325.799856,41.2520074 257.639808,37.0784068 C232.344,35.4955385 211.032,36.9827007 193.656,39.7168723 C194.28,37.3662446 194.856,34.8718419 195.81576,32.6169682 L197.256,28.5873824 L199.08,24.7973257 C200.183904,22.1108392 201.863808,19.9042743 203.35176,17.3615628 C206.759856,12.8040824 210.743952,8.24660203 215.831952,4.88868581 C220.535856,1.72232568 220.295904,-0.340512162 214.104,0.715037162 C207.48,1.77029865 201.095904,4.55282703 194.95176,8.00673716 C192.167952,9.97377297 188.95176,11.7967939 186.359856,14.1474216 L182.279952,17.6013318 L178.535808,21.3913885 C175.895856,23.8857912 173.831904,26.7163405 171.479952,29.4508 C169.415712,32.2810615 167.159856,35.1595838 165.28776,38.1819291 C163.271856,41.2519595 161.39976,44.4183676 159.623808,47.6324608 C152.711808,49.8873345 147.479952,52.0458784 144.023808,53.6290824 C140.519904,52.0458784 135.28776,49.8873345 128.37576,47.6324608 C126.647808,44.4183676 124.727712,41.2519595 122.711808,38.1819291 C120.83976,35.1596318 118.583856,32.2810615 116.519904,29.4508 C114.167952,26.7162926 112.104,23.8857912 109.46376,21.3913885 L105.719904,17.6013318 L101.639712,14.1474216 C99.095856,11.7967939 95.879952,9.97377297 93.047808,8.00673716 C86.903952,4.55282703 80.519856,1.77029865 73.895856,0.715037162 C67.751712,-0.340512162 67.463712,1.7222777 72.167904,4.88868581 C77.303952,8.24655405 81.287712,12.8040345 84.647808,17.3615628 C86.135808,19.9042743 87.815664,22.1108392 88.919856,24.7973257 L90.743856,28.5873824 L92.231856,32.6169682 C93.143856,34.8718419 93.719856,37.3662446 94.391904,39.7168723 C77.015616,36.9826527 55.655856,35.4955385 30.35976,37.0784068 C-47.400288,41.8757041 70.103904,99.3475176 70.103904,99.3475176 C70.103904,99.3475176 5.73576,82.700752 6.407808,106.927055 C7.079856,128.898773 49.415616,139.356833 57.095808,141.083812 C48.93576,139.452875 3.719856,131.585259 6.743856,157.346698 C9.383808,179.318416 29.207808,182.916389 37.943856,183.443995 C26.471808,183.540037 -4.680144,185.698869 1.991904,207.478503 C10.151664,234.007413 75.143856,247.487818 75.143856,247.487818 L83.687712,247.487818 L101.687712,325.156109 L80.232,310.140809 C74.280048,305.295491 65.975856,302.321214 56.856,302.321214 C38.711856,302.321214 24.071904,314.02662 24.071904,328.418511 C24.071904,342.858136 38.711856,354.563542 56.856,354.563542 L135.383952,354.563542 L135.383952,247.487818 L152.615808,247.487818 L152.615808,354.563542 L231.192096,354.563542 C249.287904,354.563542 263.975904,342.858136 263.975904,328.418511 C263.975904,314.02662 249.287904,302.321214 231.192096,302.321214 C222.023952,302.321214 213.768096,305.295539 207.815808,310.140809 L186.311904,325.156061 L204.359952,247.48777 L212.856,247.48777 C212.856,247.48777 277.895952,234.007365 286.007952,207.478455 C292.680048,185.698869 261.52776,183.540037 250.056,183.443995 Z M144.023856,67.2535986 C171.143952,67.2535986 193.559904,84.331977 197.592,106.591197 C187.511808,90.0884939 167.304,78.8149412 144.023856,78.8149412 C120.695904,78.8149412 100.535856,90.0884939 90.407952,106.591197 C94.439808,84.331977 116.856,67.2535986 144.023856,67.2535986 Z M178.439808,126.452103 C178.439808,145.449497 163.032,160.848629 144.023904,160.848629 C125.015808,160.848629 109.608,145.449497 109.608,126.452103 C109.608,107.454998 125.015808,92.0555777 144.023904,92.0555777 C163.032,92.0555777 178.439808,107.454998 178.439808,126.452103 Z M144.023856,228.682509 C106.968,228.682509 75.671904,203.065085 64.775808,167.61301 C88.247856,173.657653 115.223856,177.111563 144.023856,177.111563 C172.775808,177.111563 199.799856,173.657653 223.223856,167.61301 C212.375808,203.065085 181.032,228.682509 144.023856,228.682509 Z" id="Shape"></path>
            </g>
        </g>
    </g>
</svg>