<?xml version="1.0" encoding="UTF-8"?>
<svg width="600px" height="600px" viewBox="0 0 600 600" version="1.1" xmlns="http://www.w3.org/2000/svg" xmlns:xlink="http://www.w3.org/1999/xlink">
    <!-- Generator: Sketch 55.1 (78136) - https://sketchapp.com -->
    <title>monster1</title>
    <desc>Created with Sketch.</desc>
    <g id="monster1" stroke="none" stroke-width="1" fill="none" fill-rule="evenodd">
        <g id="noun_Monster_1731711" transform="translate(140.000000, 95.000000)" fill="#000000" fill-rule="nonzero">
            <g id="Group">
                <path d="M118.68165,129.32615 C118.5083,130.51755 118.3789,131.77245 118.3789,133.0078 C118.3789,150.7568 137.01415,165.04395 160.0464,165.04395 C183.01025,165.04395 201.626,150.75685 201.626,133.0078 C201.626,131.77245 201.5186,130.51755 201.34525,129.32615 L118.68165,129.32615 Z M102.66355,127.1631 L217.36325,127.1631 C217.60005,128.833 217.7734,130.56155 217.7734,132.2705 C217.7734,156.8408 191.9067,176.77735 160.04635,176.77735 C128.11765,176.77735 102.31685,156.84085 102.31685,132.2705 C102.31685,130.5615 102.4243,128.833 102.66355,127.1631 Z" id="Shape"></path>
                <path d="M169.7217,134.1992 C172.38285,134.1992 174.57035,136.3623 174.57035,139.04785 C174.57035,141.7334 172.38285,143.8965 169.7217,143.8965 C167.03615,143.8965 164.8511,141.7334 164.8511,139.04785 C164.8511,136.3623 167.03615,134.1992 169.7217,134.1992 Z" id="Path"></path>
                <path d="M163.33495,328.5742 C163.33495,328.5742 163.313,328.5742 163.313,328.59375 C162.9663,327.4463 162.6636,326.2793 162.3389,325.1123 C162.16555,324.4824 161.9727,323.8574 161.79935,323.208 C161.1719,320.8447 160.564,318.4668 160.00245,316.04005 C158.7671,321.32325 157.4048,326.4551 155.8472,331.4307 C155.80325,331.6065 155.7593,331.7774 155.71535,331.92875 C155.6958,331.92875 155.6958,331.95315 155.6958,331.95315 C151.2134,346.30375 145.36865,359.37505 137.7075,370.67385 C132.5781,378.252 126.36475,381.8018 119.5898,382.1875 L119.5898,400.67385 L119.5898,404.05275 L119.5898,408.79395 L114.5239,408.79395 L92.31685,408.79395 C92.31685,408.79395 102.8808,400.15625 108.50825,396.8457 L108.50825,380.2832 C85.08785,371.43065 58.76705,333.8574 47.5317,296.60645 C47.50975,296.5381 47.50975,296.49415 47.4902,296.4502 C46.92625,294.58985 46.4062,292.74905 45.93015,290.9131 C45.93015,290.84475 45.9082,290.8008 45.9082,290.76175 C44.458,285.21975 43.39845,279.7217 42.749,274.37505 C42.72705,274.19925 42.70505,274.0479 42.6831,273.877 C42.49025,272.2315 42.33885,270.586 42.229,268.9649 C42.20705,268.74515 42.18505,268.53035 42.18505,268.3155 C42.07765,266.71395 42.01415,265.11235 41.9922,263.53035 C41.9922,263.35455 41.9922,263.18365 41.9922,263.01275 C41.9922,261.38675 42.01415,259.7852 42.0996,258.18365 C40,271.084 37.85645,283.96485 35.75685,296.88475 C10.19535,275.0244 17.9224,220.34665 26.16945,190.4541 C18.39845,196.51365 10.62745,202.5342 2.8125,208.59375 C2.8125,208.59375 3.8745,162.6172 32.5757,123.916 C34.2847,121.6211 36.04005,119.3945 37.793,117.1875 C38.0298,116.9043 38.26905,116.60155 38.5059,116.31835 C40.21735,114.21875 41.97025,112.1875 43.7232,110.1953 C44.00395,109.86815 44.3067,109.5654 44.5899,109.24315 C46.38435,107.25095 48.1812,105.32225 50.02205,103.44235 C50.23935,103.24705 50.4542,103.0273 50.6495,102.81245 C54.524,98.91595 58.50595,95.25875 62.57575,91.84075 C62.79305,91.64545 63.0103,91.4501 63.22515,91.2548 C65.19535,89.6288 67.18755,88.05165 69.19925,86.5331 C69.48,86.31825 69.7632,86.1034 70.06595,85.88855 C71.5601,84.7606 73.07375,83.6571 74.5899,82.59755 C64.28715,79.04775 53.2691,73.32995 44.80475,64.02335 C22.8785,39.9755 26.25495,1.21075 26.25495,1.21075 C26.25495,1.21075 65.1734,1.46965 87.0997,25.5175 C98.11775,37.5976 102.7296,53.39835 104.6119,66.12295 C104.78525,66.05945 104.9586,65.996 105.10995,65.9081 C109.7413,64.02335 114.4166,62.37785 119.13585,60.996 C119.37265,60.92765 119.6119,60.84465 119.8292,60.77625 C122.1217,60.12685 124.39465,59.52135 126.68955,58.95985 C126.9508,58.9159 127.23155,58.85245 127.49035,58.78405 C129.8292,58.24695 132.16565,57.7489 134.5265,57.3143 C134.61195,57.3143 134.71935,57.29475 134.80725,57.27035 C139.69985,56.4061 144.61195,55.7762 149.54845,55.42955 C149.6998,55.41 149.8512,55.3856 150.0245,55.3856 C152.42685,55.2147 154.8292,55.1073 157.2535,55.06335 C157.40485,55.06335 157.5782,55.06335 157.72955,55.06335 C165.28325,54.9315 172.815,55.41005 180.3272,56.494 C180.34915,56.494 180.34915,56.494 180.37115,56.494 C187.4268,57.50965 194.44095,59.06725 201.36725,61.1473 C203.65975,49.43345 208.4229,36.0594 218.0323,25.5174 C239.961,1.46955 278.87945,1.21075 278.87945,1.21075 C278.87945,1.21075 282.23395,39.9754 260.30765,64.02325 C254.35305,70.56135 247.14605,75.3465 239.78765,78.82795 C257.2559,89.9559 273.4449,104.9754 287.47075,123.91585 C316.1304,162.617 317.19,208.5936 317.19,208.5936 C309.419,202.53405 301.6065,196.5135 293.8355,190.45395 C302.08255,220.34655 309.85355,275.02425 284.26765,296.8846 C282.14605,283.9647 280.00495,271.0838 277.90535,258.18345 C280.65435,307.62195 235.93515,380.65415 202.75155,382.21175 L202.75155,396.84555 C208.357,400.1561 218.94295,408.79395 218.94295,408.79395 L196.7335,408.79395 L191.67,408.79395 L191.67,404.0526 L191.67,400.6737 L191.67,379.6776 C188.27155,377.7977 185.10995,374.8534 182.29745,370.6737 C174.09425,358.48635 167.9468,344.24315 163.33495,328.5742 Z M244.09425,129.3701 C244.09425,126.86035 243.87695,124.35055 243.55225,121.9043 L76.47215,121.9043 C76.12545,124.3506 75.93015,126.86035 75.93015,129.3701 C75.93015,165.1074 113.5937,194.13575 160.04635,194.13575 C206.4746,194.13575 244.09425,165.1074 244.09425,129.3701 Z M91.8408,242.9004 L228.186,242.9004 C227.2534,241.8213 224.78755,240.8008 221.04245,239.87305 C218.53025,232.23145 212.5561,216.709 212.5561,216.709 L205.21965,237.29495 C193.142,235.9522 177.31925,235.1514 159.9804,235.1514 C143.7255,235.1514 128.81095,235.86915 117.05805,237.0557 C114.2651,228.96 109.5678,216.709 109.5678,216.709 L101.4721,239.30665 C96.3208,240.3711 92.9663,241.58205 91.8408,242.9004 Z M220.5664,113.5254 C209.2456,99.58985 186.3867,90.0635 160.00245,90.0635 C133.61575,90.0635 110.7593,99.58985 99.4385,113.5254 C114.82915,103.5498 136.2793,97.3584 160.00245,97.3584 C183.7256,97.3584 205.1758,103.5498 220.5664,113.5254 Z" id="Shape"></path>
                <path d="M145.32715,131.49415 C151.3867,131.49415 156.23535,136.3623 156.23535,142.4219 C156.23535,148.46195 151.3867,153.39845 145.32715,153.39845 C139.26515,153.39845 134.39455,148.46195 134.39455,142.4219 C134.39455,136.3623 139.26515,131.49415 145.32715,131.49415 Z" id="Path"></path>
            </g>
        </g>
    </g>
</svg>