<?xml version="1.0" encoding="UTF-8"?>
<svg width="600px" height="600px" viewBox="0 0 600 600" version="1.1" xmlns="http://www.w3.org/2000/svg" xmlns:xlink="http://www.w3.org/1999/xlink">
    <!-- Generator: Sketch 55.1 (78136) - https://sketchapp.com -->
    <title>monster24</title>
    <desc>Created with Sketch.</desc>
    <g id="monster24" stroke="none" stroke-width="1" fill="none" fill-rule="evenodd">
        <g id="noun_Monster_2236192" transform="translate(151.000000, 123.000000)" fill="#000000" fill-rule="nonzero">
            <g id="Group">
                <path d="M297.831774,126.307033 C297.831774,99.1061655 282.451081,74.4002284 257.361548,56.0265318 C257.55371,54.3475736 257.601822,52.6683757 257.601822,50.9413966 C257.601822,23.0210784 234.963339,0.425712162 207.037855,0.425712162 C188.917725,0.425712162 173.056483,9.97257365 164.11629,24.2684236 C159.165789,23.8845439 154.119063,23.7407689 149.024273,23.7407689 C143.929482,23.7407689 138.882419,23.8845439 133.931966,24.2684236 C124.992015,9.97257365 109.130532,0.425712162 91.0104016,0.425712162 C63.0849177,0.425712162 40.3983219,23.0210784 40.3983219,50.9413966 C40.3983219,52.6683757 40.4945471,54.3475736 40.686709,56.0265318 C15.5971758,74.4002764 0.16837,99.1061655 0.16837,126.307033 C0.16837,152.931985 14.8761119,177.158289 39.0045952,195.387922 C27.7092416,225.515093 14.2993858,262.406309 13.2420626,274.495307 C11.9923371,288.359544 31.4103055,316.615721 44.8683219,319.925856 C70.9194819,326.258336 78.0329342,309.275712 89.3279994,290.182565 C97.2106281,276.893955 76.4467571,264.804958 68.5640803,278.09328 C65.0554668,284.042168 61.5468532,289.990769 58.0379513,295.93937 C55.7790632,295.93937 51.3091113,295.93937 51.3091113,295.93937 L39.0045952,276.510364 C39.0045952,276.510364 50.44395,241.585895 61.162289,209.108097 C75.1970316,216.208289 91.154499,221.581261 108.313579,224.939418 C109.707354,258.808336 111.14953,292.629234 112.543257,326.498105 C110.188144,326.258289 107.784918,326.162247 105.285467,326.162247 C82.8875465,326.162247 64.7190152,335.133193 64.7190152,346.262922 C64.7190152,357.344679 145.851918,357.344679 145.851918,346.262922 C145.851918,341.369583 142.343305,336.908145 136.47929,333.406214 C135.037402,298.33797 133.547402,263.269727 132.105563,228.201532 C137.680903,228.633145 143.304691,228.920934 149.024369,228.920934 C154.744046,228.920934 160.367546,228.633097 165.942886,228.201532 C164.452886,263.269775 163.010999,298.338018 161.569159,333.406214 C155.705144,336.908145 152.196531,341.369583 152.196531,346.262922 C152.196531,357.344679 233.329434,357.344679 233.329434,346.262922 C233.329434,335.133145 215.160903,326.162247 192.762982,326.162247 C190.263531,326.162247 187.860305,326.258289 185.505192,326.498105 C186.898967,292.629186 188.29303,258.808289 189.686805,224.939418 C206.509386,221.629282 222.178466,216.448105 236.021047,209.539997 C246.979612,242.689178 259.043854,279.484688 259.043854,279.484688 L246.739338,298.913694 C246.739338,298.913694 242.269386,298.913694 240.010498,298.913694 C236.501596,292.965093 232.992982,287.064226 229.436256,281.115625 C221.60174,267.779282 200.837821,279.86828 208.72045,293.20491 C220.015515,312.298057 227.129255,329.280682 253.180127,322.90018 C266.590031,319.638066 286.008288,291.381889 284.806675,277.469631 C283.700999,265.092796 269.570031,226.522334 258.178741,196.05964 C282.787533,177.733916 297.831774,153.267796 297.831774,126.307033 Z M186.081774,40.1474777 C192.378226,40.1474777 197.473065,45.1845919 197.473065,51.4690514 C197.473065,57.7535108 192.378226,62.8386459 186.081774,62.8386459 C179.785323,62.8386459 174.738596,57.7535108 174.738596,51.4690514 C174.738596,45.1845919 179.785323,40.1474777 186.081774,40.1474777 Z M111.966338,40.1474777 C118.214677,40.1474777 123.309516,45.1845919 123.309516,51.4690514 C123.309516,57.7535108 118.214677,62.8386459 111.966338,62.8386459 C105.669887,62.8386459 100.575048,57.7535108 100.575048,51.4690514 C100.575048,45.1845919 105.669935,40.1474777 111.966338,40.1474777 Z M149.024225,170.298153 C92.2119184,170.298153 46.1660639,147.798829 46.1660639,120.070307 C46.1660639,92.3420723 92.2119665,69.842748 149.024225,69.842748 C205.788418,69.842748 251.833984,92.3420723 251.833984,120.070307 C251.833984,147.798829 205.78837,170.298153 149.024225,170.298153 Z" id="Shape"></path>
                <path d="M149.024225,84.0428439 C105.045096,84.0428439 68.5639842,99.6340601 61.2102574,120.070307 C79.234451,105.582661 111.774225,95.8920243 149.024225,95.8920243 C186.274225,95.8920243 218.765597,105.582661 236.837903,120.070307 C229.484176,99.6340601 193.003065,84.0428439 149.024225,84.0428439 Z" id="Path"></path>
            </g>
        </g>
    </g>
</svg>