<?xml version="1.0" encoding="UTF-8"?>
<svg width="600px" height="600px" viewBox="0 0 600 600" version="1.1" xmlns="http://www.w3.org/2000/svg" xmlns:xlink="http://www.w3.org/1999/xlink">
    <!-- Generator: Sketch 55.1 (78136) - https://sketchapp.com -->
    <title>monster22</title>
    <desc>Created with Sketch.</desc>
    <g id="monster22" stroke="none" stroke-width="1" fill="none" fill-rule="evenodd">
        <g id="noun_Monster_2236186" transform="translate(161.000000, 123.000000)" fill="#000000" fill-rule="nonzero">
            <g id="Group">
                <path d="M188.081331,69.4707176 C175.571379,69.4230324 162.965517,72.8769426 162.965517,79.8330716 C162.965517,93.4095189 173.797979,104.443207 187.314579,104.731045 C187.506207,104.779066 187.697835,104.779066 187.889751,104.779066 C201.693889,104.779066 212.861628,93.6012669 212.861628,79.8330716 C212.861628,72.9729845 200.543592,69.5187385 188.081331,69.4707176 Z M187.889703,94.6565284 C183.767682,94.6565284 180.364483,91.2986601 180.364483,87.1247236 C180.364483,82.951075 183.767682,79.5932068 187.889703,79.5932068 C192.059703,79.5932068 195.414923,82.951075 195.414923,87.1247236 C195.414923,91.2986601 192.059703,94.6565284 187.889703,94.6565284 Z" id="Shape"></path>
                <path d="M105.735862,174.483651 C105.735862,186.189057 120.642366,195.687609 139,195.687609 C157.357634,195.687609 172.216159,186.189057 172.216159,174.483651 C172.216159,162.730225 105.735862,162.730225 105.735862,174.483651 Z" id="Path"></path>
                <path d="M116.807931,79.8330716 C116.807931,72.9729845 104.489607,69.5187865 92.075661,69.4707655 C79.5654214,69.4230324 66.9118679,72.8769426 66.9118679,79.8330716 C66.9118679,93.4095189 77.7443297,104.443207 91.3086207,104.731045 C91.5005366,104.779066 91.6921648,104.779066 91.8837931,104.779066 C105.639904,104.779066 116.807931,93.6012669 116.807931,79.8330716 Z M84.3585248,87.1247716 C84.3585248,82.951123 87.7137452,79.5932547 91.8837452,79.5932547 C96.0060538,79.5932547 99.4089655,82.951123 99.4089655,87.1247716 C99.4089655,91.2987081 96.0060538,94.6565764 91.8837452,94.6565764 C87.7137452,94.6565764 84.3585248,91.2986601 84.3585248,87.1247716 Z" id="Shape"></path>
                <path d="M276.274531,120.562078 C263.045517,119.986402 253.027787,113.65397 253.027787,113.65397 C277.520786,96.4315284 276.274531,62.5149243 276.274531,62.5149243 C266.831973,83.2390088 254.274042,82.0877054 254.274042,82.0877054 C263.7166,69.4230804 265.585718,45.8681588 265.585718,45.8681588 C253.698918,59.2047892 244.879751,61.4113541 244.879751,61.4113541 C264.962854,32.6755912 247.371973,7.39373851 247.371973,7.39373851 C234.526504,26.8707655 221.105862,27.3506392 199.824483,23.6566243 C182.904684,9.02491554 161.81522,0.341807432 139,0.341807432 C116.136801,0.341807432 95.0953162,9.02491554 78.1755172,23.6566243 C56.846159,27.3506392 43.4734962,26.8707176 30.6280269,7.39373851 C30.6280269,7.39373851 13.0374331,32.6755912 33.120249,61.4113541 C33.120249,61.4113541 24.3010824,59.2047892 12.4142817,45.8681588 C12.4142817,45.8681588 14.2833524,69.4230324 23.7259579,82.0877054 C23.7259579,82.0877054 11.1680269,83.2390088 1.72546931,62.5149243 C1.72546931,62.5149243 0.479214483,96.4315764 24.9722128,113.65397 C24.9722128,113.65397 14.9065038,119.98645 1.72546931,120.562078 C7.38128345,127.997841 21.8085728,129.149144 21.8085728,129.149144 C21.8085728,129.149144 5.51221276,137.208555 1.72546931,151.552714 C1.72546931,151.552714 14.2834003,145.268255 26.8412834,149.825447 C26.8412834,149.825447 4.88906138,163.641664 6.75818,189.499192 C6.75818,189.499192 13.7562069,181.151943 25.6909866,177.409907 C21.1854693,195.159955 18.9328545,219.002666 28.7586207,242.221441 C47.9310345,287.507928 91.8836972,261.698468 85.0296072,245.483555 C78.1755172,229.316664 62.4542817,241.022117 62.4542817,241.022117 C62.4542817,241.022117 50.2796072,240.350447 40.549751,217.41951 C39.3514752,214.54094 38.5364559,211.422889 38.1052203,208.208795 C50.7590614,199.093834 60.6328545,202.787849 77.983889,208.160774 C86.9469924,215.980369 97.1083238,222.025011 108.084435,226.102618 L108.084435,229.988429 L108.084435,323.823564 C105.735862,323.391664 103.291331,323.151895 100.799109,323.151895 C83.6397031,323.151895 69.7396072,333.130369 69.7396072,345.411402 C69.7396072,357.740504 131.858324,357.740504 131.858324,345.411402 C131.858324,338.935147 127.97591,333.130321 121.840594,329.100495 L121.840594,229.988429 C127.400738,231.091711 133.152558,231.667387 139,231.667387 C144.84773,231.667387 150.551236,231.091711 156.159406,229.988429 L156.159406,329.100447 C149.976111,333.130321 146.093697,338.935147 146.093697,345.411354 C146.093697,357.740456 208.260393,357.740456 208.260393,345.411354 C208.260393,333.130273 194.360297,323.151847 177.201178,323.151847 C174.66069,323.151847 172.264138,323.391664 169.915565,323.823516 L169.915565,229.988381 L169.915565,226.10257 C180.843697,222.024964 191.053008,215.980321 200.016111,208.160726 C217.367146,202.787753 227.193199,199.093786 239.89478,208.208747 C239.415565,211.422841 238.648525,214.54094 237.402558,217.419462 C227.720393,240.350399 215.546006,241.022069 215.546006,241.022069 C215.546006,241.022069 199.824483,229.316664 192.970393,245.483507 C186.116303,261.698372 230.068966,287.50788 249.1934,242.221393 C259.019214,219.002618 256.814579,195.159907 252.309013,177.409859 C264.243793,181.151895 271.24182,189.499144 271.24182,189.499144 C273.110891,163.641664 251.158717,149.825399 251.158717,149.825399 C263.716648,145.268207 276.274531,151.552666 276.274531,151.552666 C272.487835,137.208555 256.143448,129.149144 256.143448,129.149144 C256.143448,129.149144 270.618717,127.997841 276.274531,120.562078 Z M139.287586,115.812801 C145.326944,115.812801 150.216006,120.753874 150.216006,126.798516 C150.216006,132.843159 145.326944,137.736498 139.287586,137.736498 C133.248228,137.736498 128.359454,132.843159 128.359454,126.798516 C128.359454,120.753874 133.248228,115.812801 139.287586,115.812801 Z M53.4431993,80.6485162 C53.4431993,59.3965372 70.6502969,42.1740959 91.8836972,42.1740959 C113.117098,42.1740959 130.324483,59.3965372 130.324483,80.6485162 C130.324483,101.900495 113.117098,119.122936 91.8836972,119.122936 C70.6502969,119.122936 53.4431993,101.900495 53.4431993,80.6485162 Z M139.287586,211.231093 C102.524579,211.231093 72.7593103,186.860726 72.7593103,156.781576 C72.7593103,154.047069 73.0948755,151.36063 73.5740421,148.722165 L205.00113,148.722165 C205.480345,151.36063 205.815862,154.047117 205.815862,156.781624 C205.815862,186.860774 176.050594,211.231093 139.287586,211.231093 Z M187.889703,119.122936 C166.656303,119.122936 149.448918,101.900495 149.448918,80.6485162 C149.448918,59.3965372 166.656303,42.1740959 187.889703,42.1740959 C209.123103,42.1740959 226.37818,59.3965372 226.37818,80.6485162 C226.37818,101.900495 209.123103,119.122936 187.889703,119.122936 Z" id="Shape"></path>
            </g>
        </g>
    </g>
</svg>