<?xml version="1.0" encoding="UTF-8"?>
<svg width="600px" height="600px" viewBox="0 0 600 600" version="1.1" xmlns="http://www.w3.org/2000/svg" xmlns:xlink="http://www.w3.org/1999/xlink">
    <!-- Generator: Sketch 55.1 (78136) - https://sketchapp.com -->
    <title>monster40</title>
    <desc>Created with Sketch.</desc>
    <g id="monster40" stroke="none" stroke-width="1" fill="none" fill-rule="evenodd">
        <g id="noun_Monster_2236106" transform="translate(131.000000, 96.000000)" fill="#000000" fill-rule="nonzero">
            <path d="M306.94625,56.6003754 C289.835053,56.6003754 276.051043,70.4272141 276.051043,87.473173 C276.051043,90.4813548 276.473649,93.3838827 277.265625,96.0753666 L265.646822,109.216088 C245.683856,84.6234721 213.94349,67.9994428 177.714221,65.6773783 L177.714221,48.3147742 C187.061822,44.7790088 193.769115,35.8072903 193.769115,25.1996774 C193.769062,11.5838299 182.678596,0.501354839 169,0.501354839 C155.374269,0.501354839 144.283803,11.5838299 144.283803,25.1996246 C144.283803,35.8072903 150.938231,44.778956 160.338697,48.3147214 L160.338697,65.6773255 C124.109375,67.9993901 92.3690097,84.6234194 72.3532306,109.216035 L60.7872931,96.0753138 C61.5795862,93.3837772 62.001875,90.4812493 62.001875,87.4731203 C62.001875,70.4271613 48.165,56.6003226 31.1066681,56.6003226 C14.0483362,56.6003226 0.211144375,70.4271613 0.211144375,87.4731203 C0.211144375,104.519079 14.0483362,118.346235 31.1066681,118.346235 C36.4407834,118.346235 41.4580237,117.02688 45.7883847,114.651988 L59.2558362,129.850956 C53.2880237,142.411214 50.0136487,156.132399 50.0136487,170.592475 L50.0136487,369.076164 C41.2466153,378.522956 35.9125,391.135724 35.9125,405.01539 C35.9125,406.176581 35.9653653,407.337455 36.0710959,408.498645 L141.801827,408.498645 C141.854375,407.337455 141.960106,406.176581 141.960106,405.01539 C141.960106,392.983032 137.893437,381.900293 131.080731,372.981718 L131.080731,270.335859 C143.016408,273.871625 155.744062,275.82427 169.000053,275.82427 C182.256043,275.82427 195.036562,273.871625 206.919375,270.335859 L206.919375,372.981718 C200.159533,381.900241 196.04,392.983032 196.04,405.01539 C196.04,406.176581 196.145731,407.337455 196.251461,408.498645 L301.981875,408.498645 C302.03474,407.337455 302.140471,406.176581 302.140471,405.01539 C302.140471,391.135777 296.75349,378.522956 288.039322,369.076164 L288.039322,170.592475 C288.039322,156.132399 284.712452,142.411214 278.797135,129.903466 L292.211721,114.651988 C296.595264,117.02688 301.612187,118.346235 306.946303,118.346235 C324.004952,118.346235 337.788961,104.519079 337.788961,87.4731203 C337.788961,70.4271613 324.004899,56.6003754 306.94625,56.6003754 Z M31.8986444,103.51637 C23.1847931,103.51637 16.1077597,96.4447859 16.1077597,87.7369385 C16.1077597,79.0294076 23.1847931,72.0103343 31.8986444,72.0103343 C40.6128125,72.0103343 47.6369806,79.0294076 47.6369806,87.7369385 C47.6369806,96.4447859 40.6128125,103.51637 31.8986444,103.51637 Z M205.071043,124.943009 C213.784894,124.943009 220.809062,131.961765 220.809062,140.616786 C220.809062,149.324633 213.784894,156.34339 205.071043,156.34339 C196.40974,156.34339 189.385572,149.324633 189.385572,140.616786 C189.385572,131.961713 196.409687,124.943009 205.071043,124.943009 Z M156.642033,25.1996246 C156.642033,18.3918592 162.187293,12.850305 169,12.850305 C175.865572,12.850305 181.411149,18.3918592 181.411149,25.1996246 C181.411149,32.060217 175.865572,37.6014546 169,37.6014546 C162.187293,37.6014546 156.642033,32.060217 156.642033,25.1996246 Z M132.928957,124.943009 C141.643125,124.943009 148.667293,131.961765 148.667293,140.616786 C148.667293,149.324633 141.643125,156.34339 132.928957,156.34339 C124.267971,156.34339 117.243803,149.324633 117.243803,140.616786 C117.243803,131.961713 124.267971,124.943009 132.928957,124.943009 Z M169,195.60739 C139.213697,195.60739 112.807447,207.903883 96.1188028,226.849977 C100.872086,190.805097 131.66151,162.992991 169,162.992991 C206.391356,162.992991 237.128231,190.805097 241.934062,226.849977 C225.245418,207.903883 198.839168,195.60739 169,195.60739 Z M306.523644,103.51637 C297.809793,103.51637 290.785625,96.4447859 290.785625,87.7369385 C290.785625,79.0294076 297.809793,72.0103343 306.523644,72.0103343 C315.237812,72.0103343 322.314846,79.0294076 322.314846,87.7369385 C322.314846,96.4447859 315.237812,103.51637 306.523644,103.51637 Z" id="Shape"></path>
        </g>
    </g>
</svg>