<?xml version="1.0" encoding="UTF-8"?>
<svg width="600px" height="600px" viewBox="0 0 600 600" version="1.1" xmlns="http://www.w3.org/2000/svg" xmlns:xlink="http://www.w3.org/1999/xlink">
    <!-- Generator: Sketch 55.1 (78136) - https://sketchapp.com -->
    <title>monster4</title>
    <desc>Created with Sketch.</desc>
    <g id="monster4" stroke="none" stroke-width="1" fill="none" fill-rule="evenodd">
        <g id="noun_Monster_2140408" transform="translate(148.000000, 111.000000)" fill="#000000" fill-rule="nonzero">
            <g id="Group">
                <path d="M131.493401,195.062442 C132.0346,193.611794 132.412712,192.143764 132.696181,190.672187 L82.4070997,171.966078 C81.6572351,173.263758 80.9806099,174.620719 80.4389883,176.071346 C75.1863456,190.146475 82.3572101,205.807414 96.4554607,211.051846 C110.553711,216.296278 126.240357,209.13757 131.493401,195.062442 Z" id="Path"></path>
                <path d="M222.080577,171.966079 L171.792288,190.672188 C172.074974,192.143764 172.453066,193.611795 172.994286,195.062442 C178.24733,209.137571 193.933985,216.296279 208.032226,211.051847 C222.130466,205.807415 229.301331,190.146475 224.048688,176.071347 C223.507468,174.620719 222.830441,173.263759 222.080577,171.966079 Z" id="Path"></path>
                <path d="M288.707632,206.91812 C288.968934,206.7703 289.249213,206.682941 289.541007,206.637099 C290.403348,206.920904 293.259096,205.812161 293.611471,204.103824 C294.596901,204.749279 295.630635,205.36195 296.5745,206.034702 C297.498185,206.692815 299.085015,206.139845 298.750854,205.278957 C297.614573,202.351187 296.26056,199.457823 294.757621,196.5945 C295.233927,191.587229 295.212944,186.561393 294.59016,181.631587 C297.740871,183.382642 300.891983,185.134478 304.042694,186.885513 C300.178167,173.309221 294.99441,160.173246 288.58687,147.712006 C293.054403,146.993011 297.689798,148.145213 301.126365,150.828693 C296.061404,126.52323 283.205923,104.305158 264.846849,88.1268071 C268.450075,89.2450235 272.052939,90.3636305 275.656967,91.4814568 C265.59906,79.721418 252.898845,70.2551299 238.654888,63.901573 C242.962482,62.6853334 247.486243,62.4141756 251.800156,63.1141954 C237.416863,50.5019608 219.501978,41.8712658 200.340341,38.3229436 C204.558046,36.3612233 208.776152,34.4002937 212.99466,32.4389688 C210.368137,31.7432955 207.710342,31.1480232 205.037903,30.6140137 C230.504914,19.1737486 259.77551,22.807061 259.77551,22.807061 C222.767895,14.7751984 192.623102,22.680179 178.192687,27.9676897 C176.584072,27.9688762 174.973872,27.9957526 173.362489,28.0530658 C176.471635,25.1383529 179.580782,22.2236401 182.689929,19.3077454 C175.954167,19.8674443 169.23387,21.0074004 162.62916,22.7098242 C161.323432,19.7879965 160.018085,16.8657736 158.712356,13.9439459 C157.456497,16.193026 156.200257,18.442106 154.943615,20.6919778 C146.877972,14.4158962 138.811928,8.13942412 130.746285,1.86255667 C130.890798,4.91995822 131.035712,7.9773645 131.181006,11.034766 C121.41371,7.82202382 111.647216,4.6096722 101.881103,1.3969305 C107.967561,7.4935539 112.698382,14.9289577 115.683598,23.0869112 C106.620248,23.8845631 97.5576812,24.6818192 88.4943317,25.4802623 C91.3421762,27.479929 94.1904018,29.4799869 97.0386475,31.4796536 C76.3123373,37.1138145 56.9650246,48.8240461 42.1117744,64.7241294 C46.4106421,65.7273199 50.7091291,66.7305103 55.0080068,67.7329201 C34.8161965,84.770186 18.9905652,106.998522 9.67303503,131.410319 C14.2747893,128.394829 18.8769354,125.380501 23.4786897,122.365792 C11.9907327,143.571552 4.31626061,166.66475 0.957296138,190.137784 C4.31230876,186.800138 7.66771262,183.462491 11.0227152,180.124043 C8.37244194,190.514875 10.7855651,217.536242 11.6878561,216.734634 C12.1768195,216.299444 12.7113094,215.901004 13.2141245,215.476088 C13.3574434,216.841359 13.525316,218.201864 13.7185245,219.558043 C13.4223779,220.373469 13.0810966,221.181004 12.8312685,222.004361 C13.2165014,221.877069 13.6025173,221.750197 13.9877501,221.623305 C14.7669126,226.441639 15.8826121,231.184071 17.2766346,235.830072 C17.0145402,238.132895 16.8308302,240.438502 16.8007399,242.742526 C16.7900481,243.511329 18.2121847,243.848086 19.040845,243.288387 C19.2562197,243.14293 19.4462684,242.982051 19.6469994,242.827502 C19.8279312,243.309736 19.9740183,243.80659 20.1612888,244.285659 C20.0096549,246.334739 19.8908795,248.384599 19.8687128,250.434058 C19.8596054,251.295346 21.0271607,251.700896 21.8459211,251.233302 C21.6511281,256.58524 21.8178169,261.950616 22.4473211,267.306901 C24.7337452,266.547992 27.0201693,265.789062 29.3062021,265.030554 C31.1088179,275.450625 34.1803419,285.687288 38.5192093,295.518821 C38.6712445,295.863088 38.9852041,296.055589 39.3355929,296.132654 C40.4512923,299.63236 41.7285156,303.113121 43.1744138,306.566965 C43.7845201,305.280781 44.6682155,304.060165 45.7648982,302.932075 C49.8638374,315.487023 55.9487015,327.550623 63.8947766,338.690851 C64.0551166,338.915757 64.2811932,339.060032 64.5310108,339.13237 C64.7808384,339.20591 65.0532239,339.207872 65.3070133,339.148191 C65.814974,339.029631 66.2449409,338.666378 66.2580102,338.1367 C66.2774082,337.336294 66.2960137,336.535087 66.3154122,335.734642 C66.3435264,334.574548 68.2953991,334.267812 68.7629783,335.346516 C74.1351889,347.739363 80.1646172,359.922726 86.812476,371.857472 C88.9361732,368.131258 90.3250706,364.138683 92.2713965,360.144066 C95.1057605,363.632717 97.3066689,367.128097 98.9469584,370.719088 C100.700487,366.172322 102.676903,361.678908 104.827922,357.239647 C106.364482,361.272957 107.800079,365.332383 109.105827,369.419846 C111.066015,366.152575 113.026985,362.884863 114.987573,359.617592 C117.312793,364.441855 119.639618,369.266478 121.965239,374.09034 C125.671032,369.37122 129.173717,364.544594 132.464567,359.622319 C135.001622,363.262375 136.964176,367.171957 138.288139,371.221489 C142.350258,367.554196 146.412758,363.886862 150.474878,360.218768 C150.485971,360.229062 150.497044,360.239356 150.508539,360.249609 C152.2664,365.594057 153.385671,371.079577 153.840974,376.603068 C158.69691,371.24364 163.203238,365.670722 167.334645,359.916798 C173.348245,364.121661 178.417178,369.235276 182.210072,374.92319 C184.218163,369.693778 186.073436,364.424431 187.806764,359.128649 C190.173168,363.68647 192.765247,368.123368 195.03464,372.663806 C196.326125,368.04394 195.22864,363.065508 199.974506,360.144066 C203.370291,363.488442 205.385122,367.285392 206.814781,371.257058 C209.788122,364.448144 212.935663,357.687895 216.169924,350.954083 C217.255534,352.966773 218.318957,354.951825 219.667453,356.848718 C220.503636,355.646727 221.299438,354.43164 222.115421,353.223721 C222.145912,353.462044 222.1752,353.701209 222.205691,353.939532 C229.620847,346.510857 235.940483,338.358041 241.024862,329.738831 C241.561328,330.150309 242.641381,330.189042 243.129161,329.64198 C249.172852,322.851651 254.174062,315.645117 258.071488,308.166615 C258.518466,308.940584 258.903699,309.740189 259.215713,310.561543 C260.916965,305.4867 262.357316,300.36203 263.590969,295.209322 C263.740658,294.764239 263.916423,294.32312 264.058569,293.876875 C264.357102,292.939284 266.414661,293.03257 266.598773,293.994275 C266.770206,294.88993 268.646061,295.063485 269.106519,294.227471 C275.923043,281.850425 279.741673,268.697468 280.379101,255.403779 C280.419462,254.570949 282.085088,254.301764 282.742335,255.029451 C283.643433,256.028306 284.725472,256.958768 285.959164,257.791197 C286.788206,258.350516 288.209942,258.013739 288.199671,257.244936 C288.08565,248.728486 286.357437,240.191067 283.158822,231.868681 C283.975988,232.709822 284.89851,233.509045 285.959164,234.224475 C286.788206,234.784195 288.209942,234.447418 288.199671,233.678615 C288.155298,230.370609 287.854036,227.060239 287.33733,223.759343 C290.575542,225.59339 293.674419,227.535344 296.574499,229.601426 C297.498184,230.259158 299.085014,229.706168 298.750853,228.845661 C296.012698,221.792495 292.112503,214.9239 287.298132,208.328055 C287.568541,207.914214 287.901939,207.554125 288.291906,207.241862 C288.479951,207.318924 288.758304,207.102711 288.707632,206.91812 Z M60.8311567,213.523078 C35.404918,195.630432 29.3216388,160.547954 47.2440562,135.163007 C49.1420875,132.475583 51.2432167,130.017789 53.4944054,127.767918 L144.194439,191.59514 C142.829714,194.468357 141.217528,197.270016 139.319888,199.958242 C121.39748,225.342387 86.2570142,231.415704 60.8311567,213.523078 Z M206.283451,298.980194 L193.312003,261.74784 L180.340556,279.55469 L165.747414,260.129606 L144.668738,279.55469 L133.318965,266.604507 L120.347517,282.79196 L107.37605,260.129606 L92.7833091,303.83606 L86.2973947,247.179423 L217.633244,247.179423 L206.283451,298.980194 Z M242.9015,213.523078 C217.47487,231.415704 182.335186,225.342387 164.412779,199.958242 C162.514738,197.270016 160.902953,194.468356 159.537445,191.59514 L250.237459,127.767918 C252.48946,130.017789 254.590589,132.475582 256.48863,135.163007 C274.410637,160.547954 268.326946,195.630432 242.9015,213.523078 Z" id="Shape"></path>
            </g>
        </g>
    </g>
</svg>