<?xml version="1.0" encoding="UTF-8"?>
<svg width="600px" height="600px" viewBox="0 0 600 600" version="1.1" xmlns="http://www.w3.org/2000/svg" xmlns:xlink="http://www.w3.org/1999/xlink">
    <!-- Generator: Sketch 55.1 (78136) - https://sketchapp.com -->
    <title>monster29</title>
    <desc>Created with Sketch.</desc>
    <g id="monster29" stroke="none" stroke-width="1" fill="none" fill-rule="evenodd">
        <g id="noun_Monster_2236063" transform="translate(122.000000, 110.000000)" fill="#000000" fill-rule="nonzero">
            <g id="Group">
                <path d="M231.997394,155.072239 C230.942843,155.072239 229.887976,155.178178 228.833055,155.389739 C221.765638,156.818595 216.439087,163.115678 216.439087,170.682708 C216.439087,179.361095 223.400601,186.346148 231.997342,186.346148 C240.646876,186.346148 247.608706,179.361095 247.608706,170.682708 C247.608706,162.057292 240.646981,155.072239 231.997394,155.072239 Z" id="Path"></path>
                <polygon id="Path" points="212.114399 256.090314 224.455521 227.674064 199.825701 227.674064"></polygon>
                <polygon id="Path" points="143.920621 256.090314 156.209003 227.674064 131.579182 227.674064"></polygon>
                <path d="M139.59588,170.682708 C139.59588,163.115678 134.269013,156.818542 127.148802,155.389739 C126.094251,155.178178 125.039383,155.072239 123.984463,155.072239 C115.387722,155.072239 108.425892,162.057292 108.425892,170.682708 C108.425892,179.361095 115.387722,186.346148 123.984463,186.346148 C132.63405,186.346148 139.59588,179.361148 139.59588,170.682708 Z" id="Path"></path>
                <path d="M350.611584,241.749792 L348.449055,230.690367 C347.552568,226.986148 346.497648,223.334898 345.548367,219.683595 C343.807817,212.275155 341.012716,205.131511 338.586537,197.776042 C332.996018,183.382867 326.139775,169.201253 317.173796,155.707239 C317.121003,155.707239 317.121003,155.707239 317.121003,155.654587 C314.325902,145.75917 310.633997,137.080784 305.887225,129.566405 C320.760167,128.402398 331.993944,123.057761 332.046738,116.602087 C332.046738,109.722655 319.283584,104.113489 302.986537,103.319944 C303.935817,102.68495 304.937944,102.102973 305.940018,101.415003 C320.496516,90.9372917 328.882135,77.6021858 324.610135,71.6225496 C321.551383,67.3362996 312.743468,68.0772388 302.617352,72.6809358 C300.191172,72.2574967 297.659722,71.9400496 294.917098,71.7814583 C295.708315,71.25208 296.499584,70.7230721 297.290484,70.1410417 C309.948367,61.0921858 317.173849,49.5564054 313.481944,44.370625 C309.94842,39.3434888 297.501658,42.1479133 285.318547,50.45583 C285.05458,50.3502083 284.843722,50.13833 284.580124,50.0327083 C283.894494,49.7678604 283.156018,49.82083 282.417595,49.82083 C285.265806,37.6500496 283.947288,27.3842163 278.778484,25.6378604 C272.819097,23.574375 264.063923,33.6812996 259.0535,48.1804133 C243.494929,19.9757242 213.063732,0.81994375 177.990981,0.81994375 C144.500716,0.81994375 115.282188,18.38833 99.1435212,44.5821329 C94.0278276,32.0408829 86.2747804,23.7859358 80.8426424,25.6378604 C75.5157748,27.4371858 74.3028433,38.3379663 77.5199757,51.038125 C76.0958702,50.2442692 74.7245582,49.8737996 73.4060397,49.8737996 C61.486896,42.0422388 49.6202293,39.5020271 46.1391822,44.3705721 C42.4472776,49.5562996 49.6727064,61.09208 62.3306424,70.1409888 C63.121859,70.7230192 63.9128119,71.2520271 64.7040284,71.7814054 C61.0121239,71.9929663 57.5838175,72.4693221 54.4723247,73.1572917 C43.8713831,68.0771858 34.58896,67.1777083 31.424621,71.6224967 C27.152621,77.60208 35.4857636,90.9371858 50.0947378,101.41495 C51.0968119,102.102867 52.0461452,102.684898 53.0482193,103.319898 C36.6986951,104.113436 23.9355413,109.722603 23.9880184,116.602034 C23.9880184,123.057708 35.2746424,128.402345 50.1475313,129.566353 C45.4007591,137.080731 41.7091182,145.75917 38.9137535,155.654534 C38.9137535,155.707186 38.86096,155.707186 38.86096,155.707186 C29.8425043,169.2012 23.0387378,183.382814 17.4482193,197.775989 C15.0223561,205.131458 12.2269387,212.275103 10.4863887,219.683542 C9.53710815,223.334792 8.48224059,226.986042 7.58570074,230.690314 L5.42338311,241.749792 C-0.167135407,271.330367 -0.958352,300.963542 1.15138311,329.962087 C2.04787022,343.561405 4.21013511,343.455784 5.9506323,330.120678 C9.48415644,301.598542 15.918685,273.605731 26.3085055,247.782345 L30.211584,238.204428 C31.5825796,235.188125 33.112272,232.277761 34.536061,229.36745 C39.7576581,272.229845 57.9004729,317.473489 79.5768646,343.085314 C64.3347378,350.175989 52.5736053,363.66995 47.8268332,380.17995 L160.586537,380.17995 C157.474675,369.437708 151.462494,359.965731 143.445796,352.7162 C151.25132,346.789534 159.637256,340.704011 177.990929,340.704011 C196.344917,340.756981 204.150441,347.530155 211.270336,354.039117 C203.886843,361.129792 198.348802,370.072708 195.448114,380.17995 L308.155077,380.17995 C303.672219,364.516511 292.913266,351.604845 278.778431,344.19667 C301.457214,318.796405 317.384706,274.558178 321.762241,229.949428 C323.133553,232.7012 324.504865,235.399686 325.77059,238.204428 L329.726145,247.782345 C340.115913,273.605678 346.550441,301.598489 350.084018,330.120678 C351.771775,343.455784 353.933987,343.561405 354.883584,329.962087 C356.940262,300.963542 356.149309,271.330314 350.611584,241.749792 Z M77.256272,151.950367 C77.256272,144.859375 78.8384415,138.191822 81.633859,132.212239 L129.627828,140.044117 L170.449108,146.6587 C170.659966,148.405056 170.765553,150.151042 170.765553,151.950367 C170.765553,177.82667 149.827637,198.834481 123.984516,198.834481 C123.878929,198.834481 123.826452,198.834481 123.720865,198.834481 C98.0361239,198.675837 77.256272,177.720731 77.256272,151.950367 Z M177.990929,296.624322 C143.393003,296.624322 115.282135,268.472603 115.282135,233.70667 C115.282135,227.991564 116.126145,222.488337 117.550251,217.249322 L238.484716,217.249322 C239.908505,222.488337 240.752516,227.991564 240.752516,233.70667 C240.752516,268.472655 212.641648,296.624322 177.990929,296.624322 Z M231.997394,198.834428 C231.892124,198.834428 231.83933,198.834428 231.733743,198.834428 C206.049003,198.675837 185.269151,177.720731 185.269151,151.950314 C185.269151,150.150989 185.374738,148.405003 185.532802,146.658648 L226.354082,140.044064 L274.401161,132.212186 C277.196262,138.191769 278.778431,144.859322 278.778431,151.950314 C278.778431,177.82667 257.840516,198.834428 231.997394,198.834428 Z" id="Shape"></path>
            </g>
        </g>
    </g>
</svg>