<?xml version="1.0" encoding="UTF-8"?>
<svg width="600px" height="600px" viewBox="0 0 600 600" version="1.1" xmlns="http://www.w3.org/2000/svg" xmlns:xlink="http://www.w3.org/1999/xlink">
    <!-- Generator: Sketch 55.1 (78136) - https://sketchapp.com -->
    <title>monster13</title>
    <desc>Created with Sketch.</desc>
    <g id="monster13" stroke="none" stroke-width="1" fill="none" fill-rule="evenodd">
        <g id="noun_Monster_2236424" transform="translate(133.000000, 100.000000)" fill="#000000" fill-rule="nonzero">
            <g id="Group">
                <path d="M225.881801,119.746054 C207.402877,119.746054 192.435833,138.610865 192.435833,161.854054 C192.435833,185.097243 207.402877,203.962054 225.881801,203.962054 C244.361049,203.962054 259.381855,185.097243 259.381855,161.854054 C259.381855,138.610865 244.361049,119.746054 225.881801,119.746054 Z M225.881801,178.610703 C218.533468,178.610703 212.590081,171.097459 212.590081,161.854054 C212.590081,152.610649 218.533522,145.097405 225.881801,145.097405 C233.230458,145.097405 239.227931,152.610649 239.227931,161.854054 C239.227931,171.097459 233.230458,178.610703 225.881801,178.610703 Z" id="Shape"></path>
                <path d="M109.118145,119.746054 C90.5851347,119.746054 75.6180911,138.610865 75.6180911,161.854054 C75.6180911,185.097243 90.5851347,203.962054 109.118145,203.962054 C127.597069,203.962054 142.564113,185.097243 142.564113,161.854054 C142.564113,138.610865 127.597123,119.746054 109.118145,119.746054 Z M109.118145,178.610703 C101.769812,178.610703 95.7723395,171.097459 95.7723395,161.854054 C95.7723395,152.610649 101.769866,145.097405 109.118145,145.097405 C116.466424,145.097405 122.410189,152.610649 122.410189,161.854054 C122.410189,171.097459 116.466478,178.610703 109.118145,178.610703 Z" id="Shape"></path>
                <path d="M323.193898,317.908108 C310.874705,294.610865 295.799489,276.827189 290.342501,250.827189 C288.559328,243.421459 287.370456,235.421568 286.235995,227.205243 C297.906801,207.043189 304.606747,183.637676 304.606747,158.664757 C304.606747,104.340486 273.106156,57.4216216 227.340726,35.2054595 L227.719006,34.2325405 L229.718199,29.9620541 C231.014919,26.935027 232.906265,24.5025405 234.58121,21.5837297 C238.363198,16.4485405 242.847984,11.3136757 248.575403,7.58389189 C253.870781,3.96205405 253.600349,1.63772973 246.630296,2.82713514 C239.173844,4.01616216 232.041532,7.15140541 225.125565,11.0431351 C221.9375,13.2595135 218.317447,15.3136216 215.453575,17.9622162 L210.806855,21.8539459 L206.592501,26.1244324 C206.322069,26.3946486 206.106048,26.6648649 205.835995,26.935027 C193.678737,23.4217297 180.81906,21.4755135 167.472876,21.4755135 C154.343091,21.4755135 141.591532,23.3676216 129.542447,26.8271351 C129.326102,26.6107027 129.110081,26.3404865 128.89406,26.1244324 L124.679381,21.8539459 L120.086748,17.9622162 C117.16879,15.3136216 113.548736,13.2595135 110.360671,11.0431351 C103.444704,7.15140541 96.3123919,4.01616216 88.8559403,2.82713514 C81.8858871,1.63778378 81.6157798,3.96205405 86.9108331,7.58389189 C92.6382524,11.3136216 97.1229839,16.4484865 100.905026,21.5837297 C102.58035,24.5025405 104.471317,26.935027 105.768037,29.9620541 L107.821263,34.2325405 L108.09137,34.989027 C62.1098645,57.1514054 30.392929,104.178486 30.392929,158.664703 C30.392929,183.637676 37.092875,207.043135 48.7640048,227.205189 C47.6292194,235.421514 46.3865855,243.421405 44.6574992,250.827135 C39.2001871,276.827135 24.1252952,294.610811 11.8057782,317.908054 C-10.0772323,356.232541 17.3171766,356.232541 48.7640048,343.908054 C48.7640048,364.448541 33.742875,383.637676 61.0831976,391.854 C81.6157258,396.989189 96.1504032,380.448649 105.767983,363.69173 L107.605242,363.69173 C108.09137,407.745892 170.012446,409.745892 166.60836,363.69173 L168.391532,363.69173 C164.9875,409.745892 226.908252,407.745892 227.39465,363.69173 L229.231585,363.69173 C238.849489,380.448703 253.384166,396.989189 273.91637,391.854 C301.256693,383.637676 286.235887,364.448541 286.235887,343.908054 C317.682877,356.232541 345.076908,356.232541 323.193898,317.908108 Z M109.118145,225.746 C81.0213169,225.746 58.3279847,197.151189 58.3279847,161.854054 C58.3279847,126.556595 81.0212629,97.9621081 109.118145,97.9621081 C137.160887,97.9621081 159.908576,126.556595 159.908576,161.854054 C159.908576,197.151189 137.160941,225.746 109.118145,225.746 Z M167.47293,254.016162 C149.912446,254.016162 135.6482,247.313514 135.6482,238.989297 C135.6482,230.718865 149.912446,223.962108 167.47293,223.962108 C185.0875,223.962108 199.297984,230.718865 199.297984,238.989297 C199.297984,247.313514 185.0875,254.016162 167.47293,254.016162 Z M225.881801,225.746 C197.839059,225.746 175.091694,197.151189 175.091694,161.854054 C175.091694,126.556595 197.839059,97.9621081 225.881801,97.9621081 C253.924543,97.9621081 276.672231,126.556595 276.672231,161.854054 C276.672231,197.151189 253.924543,225.746 225.881801,225.746 Z" id="Shape"></path>
            </g>
        </g>
    </g>
</svg>