<?xml version="1.0" encoding="UTF-8"?>
<svg width="600px" height="600px" viewBox="0 0 600 600" version="1.1" xmlns="http://www.w3.org/2000/svg" xmlns:xlink="http://www.w3.org/1999/xlink">
    <!-- Generator: Sketch 55.1 (78136) - https://sketchapp.com -->
    <title>monster21</title>
    <desc>Created with Sketch.</desc>
    <g id="monster21" stroke="none" stroke-width="1" fill="none" fill-rule="evenodd">
        <g id="noun_Monster_2236225" transform="translate(147.000000, 123.000000)" fill="#000000" fill-rule="nonzero">
            <g id="Group">
                <path d="M153.499952,121.557565 C166.163462,121.557565 176.428871,111.291301 176.428871,98.6263399 C176.428871,85.9136939 166.16351,75.6473818 153.499952,75.6473818 C140.836154,75.6473818 130.570746,85.9136459 130.570746,98.6263399 C130.570746,102.608193 131.578185,106.302207 133.353029,109.564322 C137.23845,116.712247 144.769592,121.557565 153.499952,121.557565 Z" id="Path"></path>
                <path d="M160.503198,3.06427365 L146.496419,3.06427365 C17.9882333,12.4670723 -1.87087719,162.334592 0.863341562,174.759448 C3.64533719,187.520403 16.4051686,177.445934 16.4051686,177.445934 C16.0213227,196.059448 17.7004208,228.297478 34.0096039,256.073685 C34.0096039,256.073685 32.3307936,263.461715 49.9832936,270.321802 C49.9352769,272.384592 49.8392434,274.44743 49.7912267,276.414178 C59.0014186,285.481118 70.7538583,293.252739 85.5760102,298.817748 C69.890133,304.958145 58.9053852,319.014178 58.9053852,335.421126 C58.9053852,357.440577 147.263727,357.440577 147.263727,335.421126 C147.263727,324.722961 142.562885,315.032613 134.93571,307.836667 C138.677416,307.980442 142.514868,308.076484 146.496323,307.980442 L160.503102,307.980442 C164.484604,308.076484 168.322008,307.980442 172.063714,307.836667 C164.436539,315.032613 159.735698,324.722961 159.735698,335.421126 C159.735698,357.440577 248.094039,357.440577 248.094039,335.421126 C248.094039,319.014178 237.109339,304.958097 221.423462,298.817748 C236.24595,293.252739 247.998006,285.481118 257.208246,276.414178 C257.160229,274.44743 257.064195,272.384592 257.016179,270.321802 C274.668631,263.461715 272.989868,256.073685 272.989868,256.073685 C289.299339,228.29743 291.026166,196.059448 290.64232,177.445934 C290.64232,177.445934 303.402152,187.520451 306.136131,174.759448 C308.870493,162.334592 289.059352,12.4670723 160.503198,3.06427365 Z M153.499952,43.5054419 C192.25851,43.5054419 223.677945,74.9276912 223.677945,113.689901 C223.677945,122.756841 221.903102,131.439949 218.737308,139.403415 C199.453775,136.621126 177.196515,134.989949 153.499904,134.989949 C139.301058,134.989949 125.582044,135.565625 112.726467,136.621174 C104.139868,137.340577 95.985133,138.300132 88.2622122,139.403415 C85.1444353,131.440045 83.3215748,122.756937 83.3215748,113.689949 C83.3215748,74.9276912 114.741106,43.5054419 153.499952,43.5054419 Z M153.499952,156.625808 C114.645073,156.625808 78.3327289,159.024457 47.1050247,163.198105 C65.1413227,152.644003 105.962777,145.304282 153.499952,145.304282 C201.036839,145.304282 241.858294,152.644003 259.894592,163.198105 C228.714904,159.024457 192.354496,156.625808 153.499952,156.625808 Z" id="Shape"></path>
                <path d="M111.910806,126.210799 C117.331275,126.210799 121.696623,121.845403 121.696623,116.424409 C121.696623,114.073781 120.833233,111.866928 119.441948,110.18797 C117.667104,108.029139 114.980902,106.638018 111.910806,106.638018 C106.538306,106.638018 102.125277,111.003415 102.125277,116.424409 C102.125277,121.845403 106.538354,126.210799 111.910806,126.210799 Z" id="Path"></path>
                <path d="M111.910806,97.0434716 C114.980854,97.0434716 117.523342,94.5487811 117.523342,91.4304419 C117.523342,88.3604115 114.980854,85.8657209 111.910806,85.8657209 C108.841046,85.8657209 106.346575,88.3604115 106.346575,91.4304419 C106.346575,94.5487811 108.841046,97.0434716 111.910806,97.0434716 Z" id="Path"></path>
            </g>
        </g>
    </g>
</svg>