<?xml version="1.0" encoding="UTF-8"?>
<svg width="600px" height="600px" viewBox="0 0 600 600" version="1.1" xmlns="http://www.w3.org/2000/svg" xmlns:xlink="http://www.w3.org/1999/xlink">
    <!-- Generator: Sketch 55.1 (78136) - https://sketchapp.com -->
    <title>monster10</title>
    <desc>Created with Sketch.</desc>
    <g id="monster10" stroke="none" stroke-width="1" fill="none" fill-rule="evenodd">
        <g id="noun_Monster_2236491" transform="translate(116.000000, 117.000000)" fill="#000000" fill-rule="nonzero">
            <g id="Group" transform="translate(0.599349, 0.000000)">
                <path d="M345.251565,187.795627 C335.164529,175.490171 313.749967,156.384691 274.642476,148.235078 C272.808307,145.536549 270.704864,143.053794 268.331443,140.895132 C278.796069,129.723166 285.322759,114.017563 285.322759,96.5311465 C285.322759,76.0764015 276.368653,57.9960925 262.613658,46.9321759 C283.920229,38.0272447 300.480283,26.58548 297.891205,12.8767347 C294.007265,-7.52398574 256.572279,13.8481513 225.394007,35.8142347 C207.539414,37.8651171 192.273953,49.6307053 183.805104,66.307725 C175.174593,49.3068818 159.531488,37.4332444 141.245634,35.6524849 C110.067362,13.7944506 72.794038,-7.46996118 68.9100977,12.8767347 C66.3210199,26.7472299 83.1506728,38.2429651 104.72722,47.1482741 C91.1878827,58.2662153 82.2874491,76.2381513 82.2874491,96.5311465 C82.2874491,113.801789 88.7064719,129.345372 98.9014984,140.463259 C96.3124206,142.783941 94.1006627,145.374421 92.1048321,148.235024 C53.0513355,156.438661 31.6367742,175.490117 21.5497384,187.795573 C9.62858814,190.22398 0.620487557,200.802323 0.620487557,213.485627 C0.620487557,227.949691 12.3256565,239.661254 26.7819432,239.661254 C41.2382298,239.661254 52.9973941,227.949745 52.9973941,213.485627 C52.9973941,208.520117 51.5951883,203.932725 49.2217681,199.99298 C56.9353298,191.303445 68.4785668,180.023808 82.5574796,171.226549 C77.8106392,190.008205 77.0013569,212.028313 72.7400967,230.162323 C67.7775987,253.639421 54.2382614,269.668848 43.1263395,290.663514 C23.383637,325.204475 48.0888375,325.204475 76.4080558,314.086588 C76.4080558,332.598445 62.8687184,349.869088 87.5199776,357.263058 C106.021813,361.904799 119.129565,347.008862 127.814018,331.896828 L129.432528,331.896828 C129.863844,371.565426 185.639326,373.40021 182.618663,331.896828 L184.182855,331.896828 C181.162139,373.40021 236.937675,371.565426 237.36899,331.896828 L239.041496,331.896828 C247.672007,347.008862 260.779706,361.904799 279.281541,357.263058 C303.9328,349.869088 290.393463,332.598445 290.393463,314.086588 C318.766676,325.204529 343.417936,325.204529 323.675179,290.663514 C312.563257,269.668848 299.024244,253.639421 294.061422,230.162323 C289.800162,212.028259 288.990933,190.008205 284.244039,171.226549 C298.323006,180.023754 309.866189,191.303445 317.580074,199.99298 C315.206654,203.932725 313.85812,208.520117 313.85812,213.485627 C313.85812,227.949691 325.563289,239.661254 340.019576,239.661254 C354.475862,239.661254 366.181031,227.949745 366.181031,213.485627 C366.181031,200.802377 357.172769,190.224034 345.251565,187.795627 Z M183.42746,115.852725 C209.912834,115.852725 231.38139,130.910411 231.38139,149.476294 C231.38139,168.0962 209.912834,183.153887 183.42746,183.153887 C156.888415,183.153887 135.419859,168.0962 135.419859,149.476294 C135.419859,130.910411 156.888415,115.852725 183.42746,115.852725 Z M134.12532,50.97997 C149.930087,50.97997 162.714191,68.1965876 162.714191,89.4070288 C162.714191,110.61747 105.482453,110.617416 105.482453,89.4070288 C105.482453,68.1966416 118.320553,50.97997 134.12532,50.97997 Z M255.709055,221.257122 L204.141107,266.376804 C192.759533,276.739049 174.041716,276.739049 162.660195,266.376804 L111.092248,221.257122 C99.009435,211.056951 109.150412,202.691563 133.58569,202.691563 L233.215559,202.691563 C257.650837,202.691563 267.791868,211.056951 255.709055,221.257122 Z M204.087112,89.4070288 C204.087112,68.1966416 216.925158,50.97997 232.729979,50.97997 C248.534799,50.97997 261.31885,68.1965876 261.31885,89.4070288 C261.31885,110.61747 204.087112,110.617416 204.087112,89.4070288 Z" id="Shape"></path>
                <path d="M227.120184,70.9491956 C220.862824,70.9491956 215.846276,75.9684063 215.846276,82.2292104 C215.846276,88.4356122 220.86277,93.4548769 227.120184,93.4548769 C233.323226,93.4548769 238.340097,88.4356662 238.340097,82.2292104 C238.340097,75.9684063 233.323226,70.9491956 227.120184,70.9491956 Z" id="Path"></path>
                <path d="M139.735114,93.4548229 C145.938479,93.4548229 150.955026,88.4356122 150.955026,82.2291565 C150.955026,75.9684063 145.938533,70.9491416 139.735114,70.9491416 C133.478077,70.9491416 128.46153,75.9683524 128.46153,82.2291565 C128.46153,88.4356122 133.478077,93.4548229 139.735114,93.4548229 Z" id="Path"></path>
            </g>
        </g>
    </g>
</svg>