<?xml version="1.0" encoding="UTF-8"?>
<svg width="600px" height="600px" viewBox="0 0 600 600" version="1.1" xmlns="http://www.w3.org/2000/svg" xmlns:xlink="http://www.w3.org/1999/xlink">
    <!-- Generator: Sketch 55.1 (78136) - https://sketchapp.com -->
    <title>monster12</title>
    <desc>Created with Sketch.</desc>
    <g id="monster12" stroke="none" stroke-width="1" fill="none" fill-rule="evenodd">
        <g id="noun_Monster_2236447" transform="translate(116.000000, 95.000000)" fill="#000000" fill-rule="nonzero">
            <g id="Group" transform="translate(0.599349, 0.000000)">
                <path d="M150.45294,123.9758 C150.45294,142.156063 165.178826,156.883587 183.411062,156.883587 C201.589303,156.883587 216.315189,142.156063 216.315189,123.9758 C216.315189,105.795213 201.589303,91.0136882 183.411062,91.0136882 C165.178826,91.0136882 150.45294,105.795213 150.45294,123.9758 Z M196.518761,123.9758 C196.518761,131.204586 190.63899,137.030955 183.411062,137.030955 C176.182757,137.030955 170.303364,131.204532 170.303364,123.9758 C170.303364,116.746691 176.182811,110.86632 183.411062,110.86632 C190.63899,110.86632 196.518761,116.746691 196.518761,123.9758 Z" id="Shape"></path>
                <path d="M362.927719,180.458533 C359.63735,163.14132 353.595971,146.040112 344.58787,130.8269 C335.525774,115.613688 323.712561,102.234849 310.119282,91.8770618 C302.243734,85.8886342 293.882876,80.8715829 285.144428,76.6098487 C270.148512,34.9086408 230.286111,4.96758158 183.411008,4.96758158 C135.942658,4.96758158 95.7022898,35.6099566 81.0840711,78.1205368 C72.5615507,82.2742684 64.3623549,87.2373184 56.6487932,93.1177434 C43.0554606,103.47553 31.242301,116.854693 22.2342004,132.067905 C13.2260998,147.280793 7.18434293,164.382325 3.84003205,181.699214 C0.65765316,199.070429 0.010410684,216.603324 1.03529668,233.758533 C1.03529668,234.19022 1.08929199,234.567851 1.14296365,234.945213 C1.52060717,237.26522 2.86914137,239.261272 4.97290866,240.879639 C3.67836977,242.444005 2.97707805,244.709687 3.51638384,246.975692 C4.32561225,250.859741 7.88563466,253.395429 11.4459268,252.586111 C14.9518999,251.776792 17.1097165,248.270375 16.4624201,244.656009 C18.6201827,244.817689 20.9396615,244.817689 23.3130817,244.656009 C23.2050911,245.357325 23.2050911,246.166374 23.4207487,246.921691 C24.1759818,250.590058 27.6823325,252.855793 31.1883057,251.992743 C34.7485978,251.129424 37.0140813,247.677008 36.3127896,244.224322 C36.1511273,243.469005 35.8274791,242.821637 35.4498895,242.174322 C37.7153191,241.473007 39.8191403,240.609957 41.7609217,239.692636 C42.5701501,242.929693 45.9681866,244.925692 49.4204881,244.170375 C52.9807802,243.361057 55.300259,240.124322 54.6529626,236.941266 C54.2213238,235.107217 52.9807802,233.65053 51.2546564,232.841536 C52.8188482,230.953162 53.6280766,229.065166 53.3044284,227.230793 C53.2504331,226.907109 53.1964378,226.637426 53.0884472,226.367797 C49.7980777,213.096637 47.9102916,199.771799 47.9102916,186.500638 C47.9642869,173.33748 50.0677306,160.282271 54.544972,147.928162 C59.0762087,135.682325 65.980542,124.029532 75.1506285,113.941374 C75.2586192,131.258587 79.5198793,147.604478 86.8557975,162.11632 C78.6566017,186.932325 78.60293,220.325746 73.4244508,246.759741 C68.5159481,274.866428 55.0306061,294.071691 44.0263513,319.157325 C24.3916393,360.534849 48.9351776,360.534849 77.0924099,347.263688 C77.0924099,369.436326 63.6070679,390.097899 88.1503364,398.945375 C106.544505,404.502116 119.544267,386.645213 128.121052,368.573007 L129.739239,368.573007 C130.224873,416.100638 185.622442,418.258641 182.601726,368.573007 L184.166241,368.573007 C181.145201,418.258641 236.597089,416.100638 237.028728,368.573007 L238.646915,368.573007 C247.277426,386.645267 260.277458,404.502116 278.671302,398.945375 C303.160899,390.097953 289.675557,369.436326 289.675557,347.263688 C317.023561,360.103162 340.811866,360.534849 324.46747,322.933371 C323.928164,321.692689 323.388912,320.452008 322.741292,319.157325 C311.737361,294.071691 298.252019,274.866428 293.343516,246.759741 C288.219032,220.325746 288.111042,186.932271 279.91217,162.11632 C287.355755,147.388796 291.671334,130.880901 291.671334,113.240004 C291.671334,113.078324 291.617339,112.862318 291.617339,112.700638 C300.841097,122.788796 307.691758,134.441266 312.222995,146.687426 C316.753908,159.041589 318.80368,172.096745 318.911671,185.259903 C318.911671,198.530739 316.969836,211.855901 313.733192,225.127062 C313.625525,225.396745 313.517534,225.666428 313.463539,225.990058 C313.193886,227.82443 313.949173,229.712426 315.513311,231.600476 C313.841128,232.409795 312.600585,233.866482 312.168946,235.70053 C311.467708,238.883587 313.787133,242.120267 317.347101,242.929639 C320.853398,243.684633 324.197763,241.688634 325.060987,238.4519 C326.948827,239.368897 329.052594,240.232271 331.318024,240.933587 C330.94038,241.580955 330.670727,242.22827 330.508795,242.983587 C329.753886,246.435949 332.019315,249.888688 335.579284,250.752008 C339.085581,251.615004 342.591931,249.349322 343.400836,245.680955 C343.562822,244.925638 343.562822,244.116266 343.454832,243.41495 C345.828252,243.576954 348.147731,243.576954 350.305493,243.41495 C349.658197,247.029639 351.869685,250.536057 355.321986,251.345375 C358.881955,252.15437 362.442301,249.619005 363.251206,245.734633 C363.790835,243.468951 363.143539,241.203216 361.795005,239.63858 C363.898448,238.020213 365.300978,236.024214 365.624626,233.704478 C365.732617,233.326792 365.732617,232.949161 365.732617,232.517797 C366.81166,215.362318 366.164417,197.829424 362.927719,180.458533 Z M69.4868928,328.436111 C64.6320618,328.436111 60.7483911,324.552062 60.7483911,319.696637 C60.7483911,314.841212 64.6320078,310.957163 69.4868928,310.957163 C74.2874048,310.957163 78.2253944,314.841212 78.2253944,319.696637 C78.2253944,324.552062 74.2874048,328.436111 69.4868928,328.436111 Z M303.376557,319.210949 C306.882854,319.210949 309.90357,321.31495 311.198109,324.336003 C311.629424,325.361003 311.845406,326.494005 311.845406,327.627062 C311.845406,332.266482 308.069456,336.042851 303.376557,336.042851 C301.650379,336.042851 300.032192,335.503162 298.683658,334.586164 C296.418228,333.075476 294.961703,330.540112 294.961703,327.627062 C294.961703,322.987372 298.737707,319.210949 303.376557,319.210949 Z M273.061562,227.069113 C273.061562,232.571529 268.638316,237.049268 263.136188,237.049268 C257.634385,237.049268 253.157143,232.571529 253.157143,227.069113 C253.157143,221.620375 257.634385,217.142636 263.136188,217.142636 C268.638316,217.142636 273.061562,221.620375 273.061562,227.069113 Z M183.411008,37.9296395 C222.842148,37.9296395 255.368631,62.7453211 261.248348,95.1137421 C246.522463,71.1071092 217.23203,54.7612184 183.411008,54.7612184 C149.589663,54.7612184 120.245558,71.1071092 105.519673,95.1137421 C111.39912,62.7453211 143.979922,37.9296395 183.411008,37.9296395 Z M233.360769,123.9758 C233.360769,151.542851 210.974993,173.930793 183.411008,173.930793 C155.793028,173.930793 133.407252,151.542851 133.407252,123.9758 C133.407252,96.3544237 155.793028,74.0204829 183.411008,74.0204829 C210.974993,74.0204829 233.360769,96.3544237 233.360769,123.9758 Z M101.689728,191.895321 C105.573668,191.895321 108.702052,195.024376 108.702052,198.854424 C108.702052,202.684795 105.573668,205.81385 101.689728,205.81385 C97.8601063,205.81385 94.7313991,202.684795 94.7313991,198.854424 C94.7313991,195.024376 97.8601063,191.895321 101.689728,191.895321 Z M90.8474588,240.124322 C90.8474588,232.517905 96.9968287,226.421799 104.548782,226.421799 C112.100358,226.421799 118.195786,232.517851 118.195786,240.124322 C118.195786,247.677062 112.100412,253.773168 104.548782,253.773168 C96.9968287,253.773168 90.8474588,247.677062 90.8474588,240.124322 Z M135.457078,343.271637 C116.199956,343.271637 100.557175,327.627116 100.557175,308.421529 C100.557175,289.162642 116.199956,273.517743 135.457078,273.517743 C154.660205,273.517743 170.30331,289.162588 170.30331,308.421529 C170.30331,327.627062 154.660205,343.271637 135.457078,343.271637 Z M158.921411,252.42443 C150.344896,252.42443 143.332626,245.465004 143.332626,236.833587 C143.332626,228.255793 150.34495,221.242743 158.921411,221.242743 C167.552246,221.242743 174.510521,228.255847 174.510521,236.833587 C174.510521,245.465058 167.552246,252.42443 158.921411,252.42443 Z M105.519673,149.492797 C120.245558,173.445429 149.589663,189.845321 183.411008,189.845321 C217.23203,189.845321 246.522463,173.445429 261.248348,149.492797 C255.368577,181.861218 222.842094,206.622899 183.411008,206.622899 C143.979922,206.622899 111.39912,181.861218 105.519673,149.492797 Z M183.411008,275.028432 C183.411008,269.417689 187.941921,264.832325 193.551985,264.832325 C199.215775,264.832325 203.746634,269.417743 203.746634,275.028432 C203.746634,280.63885 199.215721,285.224214 193.551985,285.224214 C187.941921,285.224214 183.411008,280.638796 183.411008,275.028432 Z M214.750943,356.650476 C206.983386,356.650476 200.6723,350.338742 200.6723,342.570267 C200.6723,334.747845 206.983332,328.436057 214.750943,328.436057 C222.572495,328.436057 228.883581,334.747791 228.883581,342.570267 C228.883581,350.338688 222.572495,356.650476 214.750943,356.650476 Z M221.817262,237.372953 C217.933322,237.372953 214.750943,234.19022 214.750943,230.305847 C214.750943,226.421799 217.933322,223.292743 221.817262,223.292743 C225.700879,223.292743 228.883581,226.421799 228.883581,230.305847 C228.883581,234.19022 225.700879,237.372953 221.817262,237.372953 Z M267.181791,370.676954 C260.924754,370.676954 255.854212,365.605901 255.854212,359.347791 C255.854212,353.036057 260.9247,347.96495 267.181791,347.96495 C273.439152,347.96495 278.563689,353.036003 278.563689,359.347791 C278.563689,365.605901 273.439205,370.676954 267.181791,370.676954 Z M290.106872,286.357217 C290.106872,302.055739 277.376764,314.733587 261.733659,314.733587 C246.090878,314.733587 233.360769,302.055793 233.360769,286.357217 C233.360769,270.712372 246.090878,258.034849 261.733659,258.034849 C277.376817,258.034849 290.106872,270.712372 290.106872,286.357217 Z" id="Shape"></path>
            </g>
        </g>
    </g>
</svg>