<?xml version="1.0" encoding="UTF-8"?>
<svg width="600px" height="600px" viewBox="0 0 600 600" version="1.1" xmlns="http://www.w3.org/2000/svg" xmlns:xlink="http://www.w3.org/1999/xlink">
    <!-- Generator: Sketch 55.1 (78136) - https://sketchapp.com -->
    <title>monster20</title>
    <desc>Created with Sketch.</desc>
    <g id="monster20" stroke="none" stroke-width="1" fill="none" fill-rule="evenodd">
        <g id="noun_Monster_2236231" transform="translate(142.000000, 113.000000)" fill="#000000" fill-rule="nonzero">
            <g id="Group">
                <path d="M158.499856,136.64814 C169.402831,136.64814 178.288341,127.825432 178.288341,116.893029 C178.288341,106.008862 169.402831,97.1861536 158.499856,97.1861536 C147.597169,97.1861536 138.759449,106.008862 138.759449,116.893029 C138.759449,120.297484 139.623947,123.509952 141.160965,126.291073 C144.475103,132.476314 151.007129,136.64814 158.499856,136.64814 Z" id="Path"></path>
                <path d="M122.669442,140.627644 C127.328237,140.627644 131.122823,136.887788 131.122823,132.236618 C131.122823,130.510513 130.59425,128.88016 129.681674,127.53774 C128.144656,125.284006 125.599194,123.797596 122.669442,123.797596 C118.010358,123.797596 114.264139,127.585737 114.264139,132.236618 C114.264139,136.887788 118.010358,140.627644 122.669442,140.627644 Z" id="Path"></path>
                <ellipse id="Oval" cx="122.669442" cy="110.755689" rx="4.8030303" ry="4.79487179"></ellipse>
                <path d="M276.366412,198.933477 C276.654593,193.610929 276.702672,188.768349 276.606515,184.692564 C276.606515,184.692564 287.605358,193.371282 290.006874,182.391121 C291.351866,176.109839 286.020551,129.311843 259.171515,89.9938459 C259.987934,88.7471313 260.756611,87.5004167 261.428795,86.1579964 C262.437528,84.2399518 263.44626,82.2741503 264.454704,80.3561056 L265.943644,77.3832851 C266.376061,76.3762662 266.760351,75.3695349 267.19248,74.3145192 C273.964897,58.0121469 276.41449,40.366731 275.790096,27.0851279 C275.261523,13.7072438 272.476005,4.69288487 270.650806,3.59016026 C268.777576,2.53543231 268.873684,10.25508 267.288636,22.1463141 C265.70354,33.9897913 262.389449,50.1005126 254.992879,64.3411379 L252.255103,69.6636854 C251.246371,71.3897913 250.093692,73.0198559 249.085248,74.6502562 C248.797066,75.0819385 248.508884,75.5132851 248.26854,75.8969708 C229.344601,54.46375 202.399649,37.5379964 164.55177,34.7568749 L152.448326,34.7568749 C114.552369,37.5379964 87.6074168,54.46375 68.6834774,75.9929641 C68.4430858,75.6092785 68.2029823,75.2256408 67.9148485,74.8899518 C66.9061161,73.2118426 65.7534368,71.5814903 64.7449926,69.8553844 L62.0071212,64.5810733 C54.6583408,50.2921636 51.2961715,34.1814423 49.7113636,22.3382528 C48.1262676,10.446779 48.2224242,2.72708333 46.3491944,3.82980795 C44.5720732,4.88482359 41.7381892,13.9472272 41.2099039,27.276779 C40.6335403,40.6066664 43.0350555,58.20375 49.8553105,74.5541669 C50.2396489,75.5611859 50.6239394,76.6159138 51.056068,77.6229328 L52.5450074,80.5477567 C53.5537398,82.5137979 54.5624723,84.4316028 55.5709165,86.3976441 C56.2433888,87.6443587 57.0117776,88.8910733 57.7804065,90.0897913 C30.9794014,129.407788 25.6481338,176.109791 26.9928382,182.391073 C29.3943533,193.371234 40.3934848,184.692516 40.3934848,184.692516 C40.2973282,188.768349 40.3454065,193.610929 40.6816667,198.933429 C25.5520252,215.235801 3.98646712,245.108044 3.98646712,282.795689 C3.98646712,340.669839 63.6400074,332.902147 63.6400074,312.188253 C63.6400074,291.474359 41.1618736,296.988605 41.1618736,296.988605 C41.1618736,296.988605 28.2417221,290.61133 28.2417221,261.266714 C28.2417221,247.697131 35.8306061,233.600208 43.9958056,222.380064 C46.2530858,232.305497 49.8553585,242.614567 55.5709645,252.300304 C55.5709645,252.300304 54.1301035,258.677292 69.3556615,264.575176 C69.259793,266.301282 69.2117147,268.075336 69.1636364,269.801442 C78.3372802,278.815849 90.3929342,286.343846 106.147018,291.186714 L106.147018,341.101186 C89.5765152,341.101186 76.08,350.451234 76.08,361.911073 C76.08,373.370913 136.214035,373.370865 136.214035,361.911073 C136.214035,355.29415 131.746977,349.396506 124.782823,345.608413 L124.782823,295.262259 C125.359187,295.358253 125.935503,295.501955 126.511866,295.549952 C134.436962,296.604967 143.082369,297.132355 152.448326,296.940656 L164.55177,296.940656 C173.965806,297.132355 182.563134,296.604967 190.48823,295.549952 C191.064593,295.501955 191.640909,295.358253 192.217273,295.262259 L192.217273,345.608413 C185.252831,349.396554 180.786061,355.29415 180.786061,361.911073 C180.786061,373.370865 240.920096,373.370865 240.920096,361.911073 C240.920096,350.451282 227.471659,341.101186 210.853078,341.101186 L210.853078,291.186762 C226.606874,286.343894 238.662528,278.815897 247.83646,269.80149 C247.788381,268.075384 247.740303,266.30133 247.644146,264.575224 C262.869945,258.67734 261.476874,252.300352 261.476874,252.300352 C267.144401,242.614615 270.746674,232.305545 273.004242,222.380112 C281.169442,233.600256 288.758038,247.697179 288.758038,261.266762 C288.758038,290.611378 275.837886,296.988653 275.837886,296.988653 C275.837886,296.988653 253.359752,291.474455 253.359752,312.188301 C253.359752,332.902147 313.013581,340.669839 313.013581,282.795737 C313.013581,245.108092 291.447687,215.235849 276.366412,198.933477 Z M158.499856,69.5196474 C191.880965,69.5196474 218.970152,96.5627723 218.970152,129.887179 C218.970152,137.70282 217.433134,145.134824 214.695407,151.99149 C198.077114,149.594054 178.912783,148.203637 158.499904,148.203637 C146.252225,148.203637 134.436962,148.683029 123.341674,149.642051 C115.993182,150.217436 108.932583,151.032756 102.30469,151.99149 C99.6149926,145.134872 98.0780229,137.702868 98.0780229,129.887179 C98.0780229,96.5627723 125.119035,69.5196474 158.499856,69.5196474 Z M158.499856,238.203477 C139.623995,238.203477 121.996922,239.354198 106.81949,241.415945 C115.560765,236.285384 135.39728,232.737227 158.499856,232.737227 C181.602432,232.737227 201.438947,236.285384 210.18051,241.415945 C195.051157,239.354198 177.375717,238.203477 158.499856,238.203477 Z M158.499856,215.379839 C136.406013,215.379839 115.705,216.722259 97.9336918,219.119695 C108.212225,213.126106 131.458747,208.954567 158.499856,208.954567 C185.540965,208.954567 208.787727,213.126106 219.066308,219.119695 C201.295,216.722259 180.593987,215.379839 158.499856,215.379839 Z M158.499856,192.556202 C129.873987,192.556202 103.072982,194.330304 80.0665632,197.447067 C93.370765,189.679374 123.485861,184.261169 158.499856,184.261169 C193.514139,184.261169 223.628947,189.679374 236.933437,197.447067 C213.927018,194.330256 187.126013,192.556202 158.499856,192.556202 Z M158.499856,170.595593 C125.022879,170.595593 93.7551035,172.705336 66.8582298,176.30149 C82.3719217,167.239135 117.57823,160.910144 158.499856,160.910144 C199.42177,160.910144 234.628078,167.239135 250.14177,176.30149 C223.292975,172.705336 191.977121,170.595593 158.499856,170.595593 Z" id="Shape"></path>
            </g>
        </g>
    </g>
</svg>