<?xml version="1.0" encoding="UTF-8"?>
<svg width="600px" height="600px" viewBox="0 0 600 600" version="1.1" xmlns="http://www.w3.org/2000/svg" xmlns:xlink="http://www.w3.org/1999/xlink">
    <!-- Generator: Sketch 55.1 (78136) - https://sketchapp.com -->
    <title>monster9</title>
    <desc>Created with Sketch.</desc>
    <g id="monster9" stroke="none" stroke-width="1" fill="none" fill-rule="evenodd">
        <g id="noun_Monster_2236533" transform="translate(121.000000, 125.000000)" fill="#000000" fill-rule="nonzero">
            <path d="M355.208432,180.677224 C351.988044,163.734111 346.075155,147.055118 337.258326,132.117772 C328.388968,117.233208 316.87985,104.196224 303.523149,94.0618773 C295.815103,88.1502983 287.632067,83.2416293 279.132003,79.1247952 C275.64775,69.5184266 270.84359,60.651111 264.930385,52.5753135 C265.352844,49.9362158 265.933474,47.4027875 266.461626,44.710855 C267.35902,41.8079003 267.99255,38.6408247 269.154179,35.8435394 L270.737949,31.4096968 L272.744126,27.240028 C273.958285,24.2314038 275.85882,21.856163 277.495385,19.0588777 C281.191026,14.0445392 285.573044,9.03020075 291.169167,5.33535835 C296.342885,1.85190767 296.078968,-0.470551128 289.268632,0.743328271 C281.983044,1.90468962 274.96132,4.96583188 268.256362,8.76629098 C265.141667,10.9301928 261.604567,12.9359598 258.753474,15.5222229 L254.266079,19.322682 L250.14798,23.4923508 C247.772191,25.7619221 245.766279,28.2956671 243.654409,30.8290953 C225.862791,17.2112454 203.689209,9.03014797 179.50945,9.03014797 C155.329955,9.03014797 133.103526,17.1584635 115.311961,30.8290953 C113.252938,28.2956671 111.246709,25.7619221 108.870921,23.4923508 L104.753138,19.322682 L100.212897,15.5222229 C97.41465,12.9359598 93.8775497,10.9301928 90.7625384,8.76629098 C84.0050497,4.96583188 77.0361734,1.90468962 69.7505851,0.743328271 C62.9402496,-0.470551128 62.676015,1.85185489 67.8500497,5.33535835 C73.4462262,9.03014797 77.8281907,14.0444865 81.5235678,19.0588777 C83.1601854,21.856163 85.0081379,24.2314038 86.275144,27.240028 L88.2285263,31.4096968 L89.865144,35.8435394 C91.0267729,38.6408247 91.6603024,41.8079003 92.5576968,44.710855 C93.0326854,47.3499528 93.6664788,49.8833811 94.0357737,52.5224788 C87.8589675,61.0203208 82.8434207,70.4156143 79.3591674,80.5496968 C71.0175912,84.6668477 62.9927797,89.522682 55.4432737,95.2760734 C42.1393672,105.410103 30.5774554,118.447088 21.7606266,133.331652 C12.9441146,148.269051 7.03117338,164.94799 3.81083779,181.943938 C0.642979559,198.887051 0.00950294118,216.093704 1.01259118,232.87863 C1.06543809,233.24784 1.06543809,233.617313 1.118285,234.039674 C1.48789662,236.256411 2.86059647,238.262178 4.91930309,239.793066 C3.59945015,241.376472 2.96592074,243.540374 3.44122618,245.75711 C4.23324353,249.610404 7.71754971,252.090997 11.2018031,251.299479 C14.6335263,250.507644 16.7979796,247.076659 16.1644501,243.487539 C18.2763204,243.698878 20.4936206,243.698878 22.8165618,243.487539 C22.7111847,244.226539 22.7637149,244.965592 22.9222556,245.75711 C23.661426,249.346547 27.0928853,251.563336 30.5774554,250.718614 C34.0088619,249.874261 36.2264788,246.443275 35.5401025,243.118012 C35.3815618,242.379329 35.0647971,241.693111 34.6952382,241.112615 C36.9128024,240.373615 38.9715618,239.528892 40.8723612,238.631705 C41.6640618,241.851351 44.990144,243.804231 48.3690203,243.012712 C51.8532737,242.220877 54.1762676,239.1069 53.4898913,235.992607 C53.0677496,234.145344 51.8532737,232.720126 50.216656,231.981125 C51.7478966,230.133863 52.4867503,228.286336 52.1700384,226.491908 C52.1171915,226.175216 52.0646613,225.911359 51.9589675,225.59472 C48.7385791,212.663088 46.8906266,199.572952 46.8906266,186.641637 C46.9963204,173.76284 49.0024969,160.989343 53.4370444,148.902434 C57.8190618,136.920825 64.5768672,125.520081 73.5516032,115.59702 C73.6572971,132.592968 77.8282435,148.585742 85.0081379,162.731253 C77.0361734,187.063682 76.9304796,219.735712 71.8624554,245.598975 C67.1108793,273.045645 53.9123499,291.836021 43.0896085,316.432253 L101.215985,316.432253 C94.0885678,321.974306 89.6540731,329.522389 89.6540731,337.914562 C89.6540731,354.80484 169.900868,354.80484 169.900868,337.914562 C169.900868,329.522389 165.46632,321.974306 158.339273,316.432253 L200.627097,316.432253 C193.499997,321.974306 189.118032,329.522389 189.118032,337.914562 C189.118032,354.80484 269.312297,354.80484 269.312297,337.914562 C269.312297,329.522389 264.93028,321.974306 257.803232,316.432253 L315.929609,316.432253 C305.106867,291.836021 291.908338,273.045645 287.103915,245.598975 C282.088421,219.735712 281.983044,187.063629 273.958232,162.731253 C281.24382,148.37472 285.467297,132.170607 285.467297,114.963637 C285.467297,114.752615 285.41445,114.594111 285.41445,114.383088 C294.44235,124.306096 301.147308,135.706892 305.581856,147.688502 C310.01672,159.775464 312.022897,172.548591 312.128274,185.427388 C312.128274,198.35902 310.280585,211.448839 307.06025,224.380471 C306.954556,224.697163 306.848862,224.961337 306.796332,225.277975 C306.532097,227.072404 307.27132,228.91993 308.802508,230.767193 C307.165574,231.506193 305.951415,232.931095 305.528956,234.778675 C304.842949,237.892652 307.165574,241.006892 310.597297,241.798463 C314.02902,242.590298 317.355103,240.637419 318.146803,237.417772 C319.994808,238.31496 322.106362,239.159366 324.323609,239.898366 C323.901468,240.478915 323.637603,241.16508 323.479062,241.90408 C322.739891,245.229343 325.009986,248.660329 328.441709,249.504682 C331.925962,250.349351 335.357738,248.132298 336.096909,244.543178 C336.255133,243.75166 336.255133,243.012607 336.202286,242.273607 C338.525227,242.484629 340.742844,242.484629 342.854397,242.273607 C342.220868,245.862727 344.385638,249.293712 347.817044,250.08523 C351.248768,250.877065 354.733074,248.396155 355.577938,244.543178 C356.052927,242.326441 355.419397,240.16217 354.099544,238.578817 C356.158568,237.048246 357.531268,235.042532 357.900879,232.825742 C357.953726,232.403381 357.953726,232.033907 357.953726,231.664381 C359.00945,214.879825 358.375974,197.672855 355.208432,180.677224 Z M122.439062,91.000735 C122.439062,81.7638929 129.883191,74.3214789 139.069314,74.3214789 C148.308285,74.3214789 155.752097,81.7638929 155.752097,91.000735 C155.752097,100.184742 148.308285,107.62684 139.069314,107.62684 C129.883191,107.62684 122.439062,100.184742 122.439062,91.000735 Z M221.797644,151.647148 L221.797644,193.767043 L215.198379,193.767043 L200.57462,154.866742 L200.57462,151.647096 L158.444703,151.647096 L158.444703,154.866742 L143.820943,193.767043 L137.221679,193.767043 L137.221679,151.647148 L128.616238,151.647148 C128.616238,137.976464 139.80859,126.786742 153.429209,126.786742 L205.589797,126.786742 C219.210785,126.786742 230.403085,137.976517 230.403085,151.647148 L221.797644,151.647148 Z M219.897109,107.626892 C210.710985,107.626892 203.266856,100.184795 203.266856,91.0007878 C203.266856,81.7639457 210.710985,74.3215317 219.897109,74.3215317 C229.136079,74.3215317 236.579891,81.7639457 236.579891,91.0007878 C236.579891,100.184742 229.136079,107.626892 219.897109,107.626892 Z" id="Shape"></path>
        </g>
    </g>
</svg>