<?xml version="1.0" encoding="UTF-8"?>
<svg width="600px" height="600px" viewBox="0 0 600 600" version="1.1" xmlns="http://www.w3.org/2000/svg" xmlns:xlink="http://www.w3.org/1999/xlink">
    <!-- Generator: Sketch 55.1 (78136) - https://sketchapp.com -->
    <title>monster28</title>
    <desc>Created with Sketch.</desc>
    <g id="monster28" stroke="none" stroke-width="1" fill="none" fill-rule="evenodd">
        <g id="noun_Monster_2236036" transform="translate(115.000000, 105.000000)" fill="#000000" fill-rule="nonzero">
            <g id="Group">
                <path d="M285.798466,141.314797 L285.481323,141.314797 C284.001481,124.195391 276.759789,108.449504 265.342751,95.5570712 L265.342751,3.98925676 L228.289841,69.719527 C215.181376,64.3828526 200.486931,61.371043 184.999841,61.371043 C169.512751,61.371043 154.818624,64.3828526 141.709841,69.719527 L104.656931,3.98925676 L104.656931,95.5570184 C93.2399471,108.449451 85.9985186,124.195338 84.51836,141.314744 L84.2012171,141.314744 C84.2012171,141.314744 3.80571429,186.966689 3.80571429,294.121666 L12.6327514,305.957289 L47.99418,305.957289 C47.99418,305.957289 41.1228043,247.994339 71.6211643,206.727988 C71.6211643,206.727988 49.7385714,289.154909 92.1297357,368.781531 L73.5768786,387.010743 L125.641376,387.010743 L133.517037,344.317665 C133.517037,344.317665 152.915503,351.186531 181.088466,351.186531 L188.911217,351.186531 C217.08418,351.186531 236.482646,344.317665 236.482646,344.317665 L244.358624,387.010743 L296.422804,387.010743 L277.869894,368.781636 C320.261429,289.154962 298.378466,206.728093 298.378466,206.728093 C328.877143,247.994445 322.00545,305.957394 322.00545,305.957394 L357.366879,305.957394 L366.194286,294.121719 C366.194286,186.966742 285.798466,141.314797 285.798466,141.314797 Z M184.999841,74.2106376 C220.25545,74.2106376 248.851376,102.795749 248.851376,138.038851 C248.851376,173.228693 220.255503,201.814174 184.999841,201.814174 C149.74418,201.814174 121.148307,173.228693 121.148307,138.038851 C121.148307,102.795802 149.744233,74.2106376 184.999841,74.2106376 Z M184.999841,238.324962 C134.627143,238.324962 93.0286243,206.622259 85.5226457,165.303017 C104.339789,195.94891 141.762699,216.8728 184.999841,216.8728 C228.236984,216.8728 265.659894,195.94891 284.477037,165.303017 C276.971376,206.622259 235.372857,238.324962 184.999841,238.324962 Z" id="Shape"></path>
                <path d="M184.999841,180.044668 C208.25709,180.044668 227.074233,161.234398 227.074233,138.038851 C227.074233,114.790097 208.25709,95.9798268 184.999841,95.9798268 C161.74291,95.9798268 142.925767,114.790097 142.925767,138.038851 C142.925767,161.234398 161.74291,180.044668 184.999841,180.044668 Z M184.999841,121.289045 C194.249841,121.289045 201.75545,128.79223 201.75545,138.038851 C201.75545,147.232582 194.249841,154.73545 184.999841,154.73545 C175.749841,154.73545 168.244233,147.232582 168.244233,138.038851 C168.244233,128.79223 175.749841,121.289045 184.999841,121.289045 Z M163.222699,113.152124 C166.341429,113.152124 168.878466,115.635661 168.878466,118.752935 C168.878466,121.870526 166.341429,124.353746 163.222699,124.353746 C160.156879,124.353746 157.619841,121.870526 157.619841,118.752935 C157.619841,115.635661 160.156931,113.152124 163.222699,113.152124 Z" id="Shape"></path>
            </g>
        </g>
    </g>
</svg>