<?xml version="1.0" encoding="UTF-8"?>
<svg width="600px" height="600px" viewBox="0 0 600 600" version="1.1" xmlns="http://www.w3.org/2000/svg" xmlns:xlink="http://www.w3.org/1999/xlink">
    <!-- Generator: Sketch 55.1 (78136) - https://sketchapp.com -->
    <title>monster8</title>
    <desc>Created with Sketch.</desc>
    <g id="monster8" stroke="none" stroke-width="1" fill="none" fill-rule="evenodd">
        <g id="noun_Monster_2236000" transform="translate(147.000000, 132.000000)" fill="#000000" fill-rule="nonzero">
            <g id="Group">
                <path d="M204.658864,64.824 C196.504128,64.824 189.884393,71.4 189.884393,79.560048 C189.884393,87.720096 196.50408,94.344144 204.658864,94.344144 C212.813311,94.344144 219.433047,87.720144 219.433047,79.560048 C219.433047,71.399952 212.813311,64.824 204.658864,64.824 Z" id="Path"></path>
                <path d="M302.035378,105.144096 C302.035378,85.511952 294.024405,67.175952 280.209645,51.575952 L303.04253,3.912 L242.218203,22.824 C217.466472,10.055856 186.766328,2.472048 153.476016,2.472048 C120.23372,2.472048 89.5338638,10.055856 64.7338281,22.824 L3.95751781,3.912 L26.7906908,51.575952 C12.9276741,67.175952 4.9649575,85.512 4.9649575,105.144096 C4.9649575,131.784048 19.643395,156.024 43.6757867,174.263904 C32.4509553,204.36 19.067818,241.272 17.9642969,253.368096 C16.7650781,267.287904 36.144645,295.56 49.5278303,298.823952 C75.5748136,305.208048 82.6263637,288.215856 93.9469408,269.111952 C101.813864,255.768096 81.0913637,243.672 73.2243928,257.015856 C69.72277,262.920048 66.1728427,268.872 62.6712198,274.823952 C60.4648492,274.823952 55.9557867,274.823952 55.9557867,274.823952 L43.7235156,255.384 C43.7235156,255.384 55.1400781,220.439856 65.8373492,187.992096 C79.8441283,195.096 95.7698013,200.472 112.894693,203.832048 C114.285691,237.672 115.676689,271.56 117.115943,305.399904 C114.717505,305.208 112.319068,305.063856 109.872614,305.063856 C87.5190323,305.063856 69.3869888,314.087856 69.3869888,325.175856 C69.3869888,336.311904 150.31027,336.311904 150.31027,325.175856 C150.31027,320.327808 146.808647,315.815808 141.004333,312.359952 C139.517301,277.271952 138.078287,242.183952 136.639032,207.047952 C142.155535,207.527856 147.76783,207.815808 153.476112,207.815808 C159.23241,207.815808 164.844705,207.527808 170.361208,207.047952 C168.922193,242.184 167.483178,277.271952 165.996195,312.359952 C160.19188,315.815808 156.642241,320.327808 156.642241,325.175856 C156.642241,336.311904 237.613491,336.311904 237.613491,325.175856 C237.613491,314.087856 219.48116,305.063856 197.127866,305.063856 C194.681412,305.063856 192.234958,305.208 189.884537,305.399904 C191.323551,271.559952 192.714549,237.671952 194.105787,203.832048 C210.894849,200.520048 226.53271,195.287904 240.299693,188.423952 C251.236424,221.592096 263.276628,258.408048 263.276628,258.408048 L251.044549,277.848 C251.044549,277.848 246.535487,277.848 244.328828,277.848 C240.779189,271.896048 237.277566,265.944096 233.775655,259.992144 C225.90902,246.696048 205.186472,258.792144 213.053395,272.136 C224.373972,291.239904 231.425234,308.232096 257.472218,301.848 C270.855691,298.584048 290.23497,270.263904 288.987734,256.392144 C287.932566,244.008048 273.829753,205.415856 262.413143,174.936 C286.973095,156.599952 302.035378,132.072048 302.035378,105.144096 Z M225.285378,101.063952 C232.144862,113.112 236.126364,126.984048 236.126364,141.863952 C236.126364,152.232096 234.111484,162.072048 230.657878,171.239952 C209.263672,182.520096 182.54503,189.287952 153.476016,189.287952 C124.45497,189.287952 97.7363281,182.520096 76.3424575,171.239904 C72.8405469,162.072048 70.873972,152.232096 70.873972,141.863904 C70.873972,126.984 74.8554742,113.111952 81.7149575,101.063904 C67.6601617,93.623952 58.0664117,78.839904 58.0664117,61.848 C58.0664117,55.175952 59.553443,48.887952 62.1916762,43.224 L146.328672,56.903856 C146.424705,57.767808 146.472722,58.631808 146.520451,59.543808 C148.823143,59.351904 151.125547,59.16 153.476016,59.16 C155.874453,59.16 158.177145,59.351904 160.479549,59.543808 C160.527566,58.631808 160.527566,57.767808 160.623311,56.903856 L244.80866,43.224 C247.446893,48.887952 248.933924,55.175952 248.933924,61.848 C248.933924,78.839904 239.340174,93.624 225.285378,101.063952 Z" id="Shape"></path>
                <path d="M153.476016,102.456096 C122.488395,102.456096 97.3048012,117.911952 97.3048012,137.015856 C97.3048012,156.120048 122.488395,171.623952 153.476016,171.623952 C184.511941,171.623952 209.695535,156.120048 209.695535,137.015856 C209.695535,117.911952 184.511941,102.456096 153.476016,102.456096 Z M153.476016,159.144096 C131.986112,159.144096 114.093864,149.687952 110.112362,137.16 C120.425739,129.480096 136.015582,124.536 153.476016,124.536 C170.984705,124.536 186.574549,129.480144 196.887686,137.16 C192.906472,149.687952 175.013936,159.144096 153.476016,159.144096 Z" id="Shape"></path>
                <path d="M117.115895,79.56 C117.115895,71.399952 110.496207,64.823952 102.341424,64.823952 C94.1866406,64.823952 87.5669531,71.399952 87.5669531,79.56 C87.5669531,87.720048 94.1866406,94.344096 102.341424,94.344096 C110.496208,94.344096 117.115895,87.720096 117.115895,79.56 Z" id="Path"></path>
            </g>
        </g>
    </g>
</svg>