<?xml version="1.0" encoding="UTF-8"?>
<svg width="600px" height="600px" viewBox="0 0 600 600" version="1.1" xmlns="http://www.w3.org/2000/svg" xmlns:xlink="http://www.w3.org/1999/xlink">
    <!-- Generator: Sketch 55.1 (78136) - https://sketchapp.com -->
    <title>monster36</title>
    <desc>Created with Sketch.</desc>
    <g id="monster36" stroke="none" stroke-width="1" fill="none" fill-rule="evenodd">
        <g id="noun_Monster_1510403" transform="translate(147.000000, 94.000000)" fill="#000000" fill-rule="nonzero">
            <g id="Group">
                <ellipse id="Oval" cx="197.63125" cy="171.923256" rx="9.1140625" ry="9.1244186"></ellipse>
                <ellipse id="Oval" cx="106.970312" cy="171.923256" rx="9.1140625" ry="9.1244186"></ellipse>
                <path d="M298.845312,225.709302 L281.576563,167.12093 C276.3,148.39186 266.70625,131.583721 254.714063,117.656977 C264.307813,82.6 255.19375,43.2209302 227.851563,15.3674419 L226.4125,13.9267442 C222.575,10.0848837 219.217188,7.20348837 214.9,3.84186047 C230.25,28.8139535 228.810938,60.5093023 211.542188,84.5209302 C194.273438,76.3569767 174.60625,71.5546512 154.459375,71.5546512 L152.540625,71.5546512 C131.434375,71.5546512 111.767188,76.3569767 93.5390625,85.4813953 C75.3109375,61.4697674 73.871875,29.294186 89.221875,3.84186047 C85.384375,6.72325581 81.546875,10.0848837 77.709375,13.9267442 L76.75,15.3674419 C48.4484375,43.7011628 39.8140625,84.0406977 50.3671875,120.05814 C39.334375,133.504651 30.7,149.352326 25.4234375,167.12093 L8.1546875,225.709302 C-14.390625,302.066279 35.0171875,378.903488 109.848437,393.790698 L109.848437,402.434884 C109.848437,405.796512 112.726562,409.15814 116.564062,409.15814 L116.564062,409.15814 C119.921875,409.15814 123.279687,406.276744 123.279687,402.434884 L123.279687,395.711628 C127.596875,396.19186 131.914062,396.19186 136.23125,396.19186 L172.6875,396.19186 C177.004687,396.19186 181.321875,396.19186 185.639063,395.711628 L185.639063,402.434884 C185.639063,405.796512 188.517188,409.15814 192.354688,409.15814 L192.354688,409.15814 C195.7125,409.15814 199.070312,406.276744 199.070312,402.434884 L199.070312,393.790698 C271.982813,378.903488 321.390625,302.066279 298.845312,225.709302 Z M106.970313,200.256977 C91.6203125,200.256977 78.66875,187.77093 78.66875,171.923256 C78.66875,156.555814 91.140625,143.589535 106.970313,143.589535 C122.8,143.589535 135.271875,156.075581 135.271875,171.923256 C135.271875,187.290698 122.320313,200.256977 106.970313,200.256977 Z M160.215625,245.398837 L160.215625,245.398837 C155.898437,249.72093 148.703125,249.72093 143.90625,245.398837 L143.90625,245.398837 C139.589062,241.076744 139.589062,233.873256 143.90625,229.551163 L143.90625,229.551163 C148.223437,225.22907 155.41875,225.22907 159.735937,229.551163 L159.735937,229.551163 C164.532812,233.873256 164.532812,241.076744 160.215625,245.398837 Z M197.63125,200.256977 C182.28125,200.256977 169.329687,187.77093 169.329687,171.923256 C169.329687,156.555814 181.801562,143.589535 197.63125,143.589535 C213.460937,143.589535 225.932812,156.075581 225.932812,171.923256 C225.453125,187.290698 212.98125,200.256977 197.63125,200.256977 Z M244.160937,174.324419 C242.721875,174.324419 241.7625,173.363953 241.7625,171.923256 C241.7625,147.431395 222.095312,127.74186 197.63125,127.74186 C177.484375,127.74186 159.735937,141.668605 154.939062,160.877907 C154.459375,162.318605 153.5,163.27907 152.060937,163.27907 C151.101562,163.27907 149.6625,162.318605 149.6625,161.35814 C144.865625,141.668605 127.117187,128.222093 106.970312,128.222093 C82.50625,128.222093 62.8390625,147.911628 62.8390625,172.403488 C62.8390625,173.844186 61.8796875,174.804651 60.440625,174.804651 C59.0015625,174.804651 57.5625,173.363953 57.5625,171.923256 C57.5625,144.55 79.628125,122.459302 106.970312,122.459302 C127.117187,122.459302 144.385937,134.465116 152.060937,152.233721 C159.735937,134.465116 177.484375,122.459302 197.151562,122.459302 C224.49375,122.459302 246.559375,144.55 246.559375,171.923256 C246.559375,173.363953 245.6,174.324419 244.160937,174.324419 Z" id="Shape"></path>
            </g>
        </g>
    </g>
</svg>