<?xml version="1.0" encoding="UTF-8"?>
<svg width="600px" height="600px" viewBox="0 0 600 600" version="1.1" xmlns="http://www.w3.org/2000/svg" xmlns:xlink="http://www.w3.org/1999/xlink">
    <!-- Generator: Sketch 55.1 (78136) - https://sketchapp.com -->
    <title>monster30</title>
    <desc>Created with Sketch.</desc>
    <g id="monster30" stroke="none" stroke-width="1" fill="none" fill-rule="evenodd">
        <g id="noun_Monster_2236034" transform="translate(105.000000, 110.000000)" fill="#000000" fill-rule="nonzero">
            <g id="Group">
                <path d="M140.812785,191.254803 C157.139835,199.93319 175.738543,204.85444 195.499841,204.85444 C215.261457,204.85444 233.860165,199.933243 250.187215,191.254803 C239.460975,175.962151 219.012785,165.643295 195.499841,165.643295 C171.987268,165.643295 151.539025,175.962098 140.812785,191.254803 Z" id="Path"></path>
                <path d="M195.499841,117.700795 C207.335781,117.700795 216.89943,108.122879 216.89943,96.2692808 C216.89943,84.4160004 207.335781,74.8380838 195.499841,74.8380838 C183.664219,74.8380838 174.10057,84.4160004 174.10057,96.2692808 C174.10057,108.122879 183.664219,117.700795 195.499841,117.700795 Z M195.499841,85.5273562 C201.417996,85.5273562 206.226081,90.3426142 206.226081,96.2692808 C206.226081,102.196265 201.417996,107.011523 195.499841,107.011523 C189.582004,107.011523 184.773919,102.196265 184.773919,96.2692808 C184.773919,90.3426671 189.582004,85.5273562 195.499841,85.5273562 Z" id="Shape"></path>
                <path d="M386.878649,5.35850042 C386.878649,5.35850042 298.216598,-16.6017046 273.171516,60.9210004 C254.097162,48.8031896 231.007027,40.3366287 202.950135,38.2728258 L188.102703,38.2728258 C160.045811,40.3366287 136.902838,48.8031896 117.828431,60.9210004 C92.7830847,-16.6017046 4.12135135,5.35850042 4.12135135,5.35850042 L61.2390541,123.468553 C37.145,167.654182 32.1782432,213.744387 33.6578612,220.570848 C36.6167801,234.117515 50.1432666,223.428242 50.1432666,223.428242 C49.7204582,243.219023 51.5167862,277.403295 68.7948649,306.877932 C68.7948649,306.877932 67.0511105,314.762462 85.7559165,322.065015 C85.7030258,324.23444 85.5972445,326.404235 85.5443538,328.52069 C92.1490835,335.029651 100.022186,340.903348 109.215916,345.877515 C93.6287015,349.687356 82.6912162,358.312826 82.6912162,368.314129 C82.6912162,381.913765 171.670294,381.913765 171.670294,368.314129 C171.670294,362.704962 168.235729,357.571887 162.476246,353.444545 C161.73678,345.083606 161.261081,336.299598 161.261081,327.197773 C161.261081,271.899803 176.58416,227.079545 195.499894,227.079545 C214.415946,227.079545 229.739025,271.899803 229.739025,327.197773 C229.739025,336.299598 229.316216,345.083606 228.523543,353.444545 C222.764377,357.571887 219.329812,362.704962 219.329812,368.314129 C219.329812,381.913765 308.308889,381.913765 308.308889,368.314129 C308.308889,358.312826 297.371404,349.687356 281.784189,345.877515 C291.030811,340.903348 298.850705,335.029651 305.455435,328.52069 C305.402861,326.404235 305.29708,324.23444 305.244189,322.065015 C324.001569,314.762515 322.205241,306.877932 322.205241,306.877932 C339.483002,277.403348 341.279647,243.219023 340.90973,223.428242 C340.90973,223.428242 354.436216,234.117515 357.342244,220.570848 C358.821862,213.744387 353.855106,167.654182 329.761052,123.468553 L386.878649,5.35850042 Z M195.499841,60.5505308 C195.658514,60.5505308 195.764295,60.5505308 195.92265,60.5505308 C233.437726,60.8153788 263.819483,96.2692808 263.819483,96.2692808 C263.819483,96.2692808 233.226163,131.988031 195.499894,131.988031 C195.341539,131.988031 195.235758,131.988031 195.077403,131.988031 C157.562327,131.7235 127.18057,96.2692808 127.18057,96.2692808 C127.18057,96.2692808 157.773889,60.5505308 195.499841,60.5505308 Z M71.4367039,102.513712 L24.6224324,18.1645454 C93.575758,24.93772 71.4367039,102.513712 71.4367039,102.513712 Z M195.499841,215.70225 C141.288484,215.70225 95.372403,180.248348 79.4681609,131.300432 C113.812756,139.608084 153.335353,144.423659 195.499841,144.423659 C237.664647,144.423659 277.187244,139.608084 311.531839,131.300432 C295.627597,180.248348 249.711516,215.70225 195.499841,215.70225 Z M369.442215,18.1645454 L322.627626,102.513712 C322.627679,102.513712 300.488942,24.93772 369.442215,18.1645454 Z" id="Shape"></path>
            </g>
        </g>
    </g>
</svg>