<?xml version="1.0" encoding="UTF-8"?>
<svg width="600px" height="600px" viewBox="0 0 600 600" version="1.1" xmlns="http://www.w3.org/2000/svg" xmlns:xlink="http://www.w3.org/1999/xlink">
    <!-- Generator: Sketch 55.1 (78136) - https://sketchapp.com -->
    <title>monster14</title>
    <desc>Created with Sketch.</desc>
    <g id="monster14" stroke="none" stroke-width="1" fill="none" fill-rule="evenodd">
        <g id="noun_Monster_2236080" transform="translate(151.000000, 113.000000)" fill="#000000" fill-rule="nonzero">
            <g id="Group">
                <path d="M204.268858,135.632491 C198.020519,135.632491 192.973793,140.667058 192.973793,146.900631 C192.973793,153.08592 198.020519,158.120487 204.268858,158.120487 C210.469373,158.120487 215.516099,153.08592 215.516099,146.900631 C215.516099,140.667058 210.469373,135.632491 204.268858,135.632491 Z" id="Path"></path>
                <path d="M104.534987,218.96741 C104.534987,225.680327 111.50439,230.475198 121.453793,233.400022 C120.396518,231.338275 119.723519,229.180535 119.723519,226.783099 C119.723519,205.158179 130.489922,186.314381 146.351165,176.340952 C123.184068,176.86858 104.534987,195.712378 104.534987,218.96741 Z" id="Path"></path>
                <path d="M103.717987,115.589974 C103.717987,109.356689 98.6712606,104.370118 92.4710342,104.370118 C86.2224068,104.370118 81.1756806,109.356689 81.1756806,115.589974 C81.1756806,121.775263 86.2224068,126.810118 92.4710342,126.810118 C98.6712606,126.810118 103.717987,121.775263 103.717987,115.589974 Z" id="Path"></path>
                <path d="M258.149325,89.7455674 L258.774164,88.5468495 C259.302825,87.3481315 259.735502,86.1494136 260.216051,84.9506956 C268.146793,65.9151985 270.982455,45.3452944 270.261679,29.80967 C269.636841,14.2263367 266.368454,3.67785846 264.301727,2.43114385 C262.090664,1.18442923 262.186889,10.1508395 260.312276,24.0560636 C258.485825,37.8650067 254.592599,56.7091405 245.989147,73.2992051 L245.316195,74.5939164 C224.312002,52.921 195.377115,36.2829387 155.820066,33.4058238 L142.217712,33.4058238 C102.564486,36.2829387 73.6295516,52.9689967 52.6253581,74.6899097 L52.0485839,73.5389008 C43.397019,56.9488362 39.5037932,38.1530346 37.6773416,24.2957592 C35.8027774,10.4385318 35.8989545,1.42412487 33.7360032,2.67083949 C31.6211645,3.9175541 28.3527774,14.514029 27.7279387,30.0973623 C27.0549874,45.58499 29.89089,66.1548941 37.8216794,85.190679 C38.2541158,86.3893969 38.7346168,87.5881149 39.2154542,88.7868328 L39.7441158,89.8415608 C5.90679258,135.153147 -0.677998065,192.211978 0.907890645,199.548275 C3.59950355,211.871144 15.9520842,202.13741 15.9520842,202.13741 C15.6155845,220.166176 17.2980348,251.332843 33.0630519,278.232026 C33.0630519,278.232026 31.4290026,285.376624 48.5880829,292.041256 C48.5399703,294.007298 48.4437452,296.021096 48.3956326,297.939141 C59.7390987,309.063003 74.9754542,318.221352 95.354761,323.543612 C100.834164,324.934317 106.697939,326.085038 112.994342,326.90007 C115.061068,327.187763 117.175955,327.427458 119.290794,327.619397 L119.290794,328.434429 L119.290794,352.073099 C96.4601487,355.525263 78.8205674,362.765567 72.1395035,371.684269 L225.850018,371.684269 C219.169003,362.765567 201.529373,355.525263 178.698728,352.073099 L178.698728,328.434429 L178.698728,327.619397 C180.861391,327.42741 182.97623,327.187715 184.99518,326.90007 C191.291631,326.085038 197.155358,324.934317 202.634761,323.543612 C223.06218,318.221352 238.298536,309.063003 249.641714,297.939141 C249.593889,296.021096 249.497664,294.007298 249.401439,292.041256 C266.560519,285.376624 264.92647,278.232026 264.92647,278.232026 C280.7396,251.332843 282.421714,220.166176 282.037438,202.13741 C282.037438,202.13741 294.389778,211.871144 297.081343,199.548275 C298.715777,192.164221 292.082825,135.057154 258.149325,89.7455674 Z M57.8645345,131.556993 C57.8645345,111.754125 73.9660513,95.7391572 93.7685839,95.7391572 C113.619229,95.7391572 129.721034,111.754173 129.721034,131.556993 C129.721034,151.359814 113.619229,167.374542 93.7685839,167.374542 C73.9660513,167.374542 57.8645345,151.359814 57.8645345,131.556993 Z M165.048357,350.586689 C159.857294,350.155007 154.522228,349.915359 148.994665,349.915359 C143.51555,349.915359 138.132325,350.155055 132.941261,350.586689 L132.941261,328.434381 C135.969325,328.482378 139.04555,328.530375 142.217664,328.482378 L155.820018,328.482378 C158.992132,328.530375 162.068357,328.482378 165.048357,328.434381 L165.048357,350.586689 L165.048357,350.586689 Z M91.3653581,222.563564 C91.3653581,190.821513 117.176003,165.025103 148.994665,165.025103 C180.861439,165.025103 206.672084,190.821513 206.672084,222.563564 C206.672084,254.353564 91.3653581,254.353564 91.3653581,222.563564 Z M205.566696,167.374542 C185.764116,167.374542 169.662647,151.359814 169.662647,131.556993 C169.662647,111.754173 185.764164,95.7391572 205.566696,95.7391572 C225.417342,95.7391572 241.518858,111.754173 241.518858,131.556993 C241.518858,151.359814 225.41739,167.374542 205.566696,167.374542 Z" id="Shape"></path>
            </g>
        </g>
    </g>
</svg>