<?xml version="1.0" encoding="UTF-8"?>
<svg width="600px" height="600px" viewBox="0 0 600 600" version="1.1" xmlns="http://www.w3.org/2000/svg" xmlns:xlink="http://www.w3.org/1999/xlink">
    <!-- Generator: Sketch 55.1 (78136) - https://sketchapp.com -->
    <title>monster26</title>
    <desc>Created with Sketch.</desc>
    <g id="monster26" stroke="none" stroke-width="1" fill="none" fill-rule="evenodd">
        <g id="noun_Monster_2236070" transform="translate(109.000000, 112.000000)" fill="#000000" fill-rule="nonzero">
            <g id="Group">
                <path d="M190.86628,110.424935 C199.318588,110.424935 206.186069,103.517662 206.186069,95.0286764 C206.186069,86.5393218 199.318536,79.6321018 190.86628,79.6321018 C182.413655,79.6321018 175.546175,86.5393745 175.546175,95.0286764 C175.546175,103.517662 182.413655,110.424935 190.86628,110.424935 Z" id="Path"></path>
                <path d="M170.950175,82.4267527 C173.803076,82.4267527 176.074609,80.1067527 176.074609,77.2595855 C176.074609,74.4121018 173.803076,72.0921018 170.950175,72.0921018 C168.150471,72.0921018 165.826057,74.4121018 165.826057,77.2595855 C165.826057,80.1067527 168.150471,82.4267527 170.950175,82.4267527 Z" id="Path"></path>
                <path d="M382.841517,4.02135091 C382.841517,4.02135091 294.196986,-17.8605727 269.156763,59.3849873 C250.033177,47.3102309 226.947574,38.8740255 198.896126,36.8175564 L184.05131,36.8175564 C155.999862,38.8739727 132.91426,47.3102309 113.843554,59.3849873 C88.7504505,-17.8605727 0.158482759,4.02135091 0.158482759,4.02135091 L57.2651034,121.708676 C33.1757241,165.735844 28.1573676,211.661404 29.6892619,218.463116 C32.5947263,231.961298 46.1185884,221.310284 46.1185884,221.310284 C45.696179,241.030547 47.5450389,275.092155 64.8197652,304.461298 C64.8197652,304.461298 63.0234688,312.317609 81.7772091,319.594025 C81.6717652,321.756002 81.6188848,323.917715 81.513124,326.026911 C88.1165723,332.51226 95.9878298,338.364935 105.232657,343.321298 C89.5959032,347.11782 78.7134204,355.712418 78.7134204,365.677609 C78.7134204,379.228571 167.674917,379.228571 167.674917,365.677609 C167.674917,360.088518 164.241018,354.974131 158.48297,350.861245 C157.69045,342.530547 157.268041,333.777662 157.268041,324.708729 C157.268041,269.608676 172.58783,224.948518 191.500211,224.948518 C210.412593,224.948518 225.732382,269.608676 225.732382,324.708729 C225.732382,333.777662 225.257092,342.530547 224.464572,350.861245 C218.759087,354.974131 215.272625,360.088518 215.272625,365.677609 C215.272625,379.228571 304.287002,379.228571 304.287002,365.677609 C304.287002,355.712418 293.351639,347.11782 277.714885,343.321298 C286.959712,338.364935 294.83097,332.51226 301.434418,326.026911 C301.381538,323.917715 301.275777,321.756002 301.223214,319.594025 C319.924073,312.317662 318.180657,304.461298 318.180657,304.461298 C335.402503,275.092207 337.251363,241.0306 336.828954,221.310284 C336.828954,221.310284 350.352816,231.961298 353.311161,218.463116 C354.790175,211.661404 349.824382,165.735844 325.682439,121.708676 L382.841517,4.02135091 Z M67.4610917,100.828518 L20.6555862,16.7812455 C89.5958503,23.5829582 67.4610917,100.828518 67.4610917,100.828518 Z M190.86628,56.3267 C212.103076,56.3267 229.324605,73.6214036 229.324605,95.0286764 C229.324605,116.383169 212.103076,133.730336 190.86628,133.730336 C169.576605,133.730336 152.354759,116.383169 152.354759,95.0286764 C152.354759,73.6214036 169.576605,56.3267 190.86628,56.3267 Z M190.86628,205.650389 C146.332678,205.650389 108.613676,176.650389 95.5651034,136.524987 C123.775193,143.37948 156.211384,147.334025 190.86628,147.334025 C225.468296,147.334025 257.957368,143.37948 286.16714,136.524987 C273.065952,176.650389 235.399883,205.650389 190.86628,205.650389 Z M365.355586,16.7812455 L318.550398,100.828518 C318.55045,100.828518 296.415692,23.5829582 365.355586,16.7812455 Z" id="Shape"></path>
            </g>
        </g>
    </g>
</svg>