<?xml version="1.0" encoding="UTF-8"?>
<svg width="600px" height="600px" viewBox="0 0 600 600" version="1.1" xmlns="http://www.w3.org/2000/svg" xmlns:xlink="http://www.w3.org/1999/xlink">
    <!-- Generator: Sketch 55.1 (78136) - https://sketchapp.com -->
    <title>monster3</title>
    <desc>Created with Sketch.</desc>
    <g id="monster3" stroke="none" stroke-width="1" fill="none" fill-rule="evenodd">
        <g id="noun_Monster_2140409" transform="translate(137.000000, 106.000000)" fill="#000000" fill-rule="nonzero">
            <g id="Group">
                <path d="M166.100875,94.8278763 C130.526902,94.8278763 101.694198,123.6534 101.694198,159.218163 C101.694198,194.783288 130.526902,223.608821 166.100875,223.608821 C201.674486,223.608821 230.50717,194.783288 230.50717,159.218163 C230.50717,123.6534 201.674486,94.8278763 166.100875,94.8278763 Z M125.671621,180.799132 C121.701095,180.799132 118.479511,177.57835 118.479511,173.608811 C118.479511,169.629647 121.701095,166.408865 125.671621,166.408865 C129.651394,166.408865 132.873359,169.629647 132.873359,173.608811 C132.873359,177.57835 129.651394,180.799132 125.671621,180.799132 Z M166.100875,180.799132 C147.744966,180.799132 132.873358,165.921619 132.873358,147.570656 C132.873358,129.228918 147.744965,114.351394 166.100875,114.351394 C184.456402,114.351394 199.32801,129.228918 199.32801,147.570656 C199.32801,165.921619 184.456403,180.799132 166.100875,180.799132 Z" id="Shape"></path>
                <path d="M166.443625,125.31283 C158.493326,125.31283 152.059004,131.754786 152.059004,139.694625 C152.059004,147.642947 158.493326,154.084512 166.443625,154.084512 C174.393904,154.084512 180.828607,147.642947 180.828607,139.694625 C180.828607,131.754786 174.393904,125.31283 166.443625,125.31283 Z" id="Path"></path>
                <path d="M288.49802,88.8154949 C288.436442,88.7235821 288.380681,88.6278192 288.319143,88.536298 C291.689597,87.7506142 295.31968,87.9409766 298.472023,89.0839238 C292.61547,80.1057234 284.012025,72.5304462 273.730253,67.2983541 C279.93457,67.116063 286.137683,66.9341629 292.341961,66.7518817 C278.303941,58.0448069 262.537991,51.3798023 245.874229,47.0460727 C244.15015,45.933887 242.394159,44.8686247 240.622763,43.8275965 C249.752448,37.6459986 258.881351,31.464019 268.010254,25.282421 C279.183681,17.7163684 291.528411,9.35079462 304.777111,18.8385504 C315.781651,26.7195647 317.053363,46.4565263 302.024803,50.9329328 C297.57074,52.259314 292.209658,50.842945 288.911534,47.5264004 C297.672314,54.1067912 310.40709,47.6640738 309.753924,35.9108126 C309.089204,23.9529615 294.878085,18.0536382 285.138719,23.9348835 C274.390359,30.4256781 273.29981,45.6189247 281.853271,54.3398463 C290.749843,63.4099596 305.460284,63.3526583 314.599196,54.7105749 C336.771747,33.7425986 313.137816,1.25287753 286.372722,5.01706442 C272.291618,6.99760272 258.188571,20.0472559 246.788188,27.766749 C242.811905,30.4591316 238.835983,33.1507466 234.85968,35.8431292 C227.640252,34.4244441 220.396974,32.5338936 213.151771,31.2828859 C207.205599,29.2808059 201.101712,27.6275364 194.842798,26.3907567 C198.598303,23.265732 202.675377,20.9921453 212.754805,19.6815254 C201.527542,12.5100444 181.335611,19.4780884 171.366582,23.7014472 C169.615585,23.6403006 167.867276,23.568772 166.101256,23.568772 C163.778268,23.568772 161.472188,23.6372275 159.175717,23.7437536 C150.106426,19.3369508 139.452319,12.5811915 130.666907,12.8426973 C133.684622,14.6190316 135.824903,17.4475531 136.516159,20.5725778 C116.710423,20.9198444 96.9050879,21.266344 77.0997535,21.6128437 C93.6958204,22.3823703 96.8312353,25.4947062 103.609449,37.4633258 C102.270803,38.0909473 100.950631,38.7477964 99.6346907,39.4138695 C97.7244343,39.5903904 95.8041686,39.8380541 93.8781464,40.1418662 C90.9304439,38.6608817 87.9827513,37.1795114 85.0350488,35.6985316 C72.1494771,29.2242758 58.5461228,20.087632 44.6104084,15.9592638 C19.4916693,8.51780999 -8.59554262,35.9584976 7.19772087,60.2760862 C14.0974914,70.901014 28.0566637,75.6858449 39.4485717,69.2777386 C50.1419228,63.2638133 54.5517374,49.0650715 46.6410724,38.9950737 C38.1276266,28.1586276 18.7900427,30.3314534 16.6670618,45.3916441 C14.7548799,58.9508478 30.1407817,65.2982034 38.9484972,56.8318639 C36.4481666,60.3283841 31.9644882,62.5542799 27.6719921,62.3985285 C13.8262978,61.8951294 9.18644865,44.5728927 16.0327494,34.5886562 C23.2271656,24.0971706 36.0658117,22.4781269 46.8891784,27.5486972 C49.6391598,28.8373943 52.3264404,30.2803083 55.0394954,31.6436119 C62.9343946,35.6108447 70.8296851,39.5776964 78.7245843,43.5449291 C70.8862282,45.7404551 63.1767346,48.4486037 55.9384615,50.9671522 C57.5486817,52.001653 67.9173746,54.8932461 74.1666721,55.7885196 C70.8616073,58.4297618 67.6784949,61.2109736 64.6153895,64.121798 C50.8724015,72.9700057 38.4384344,83.3634218 27.7973943,94.9701714 C26.8961215,95.9535171 28.0685874,97.2825956 29.3868341,96.7684185 L40.702201,92.3527723 C40.9776164,92.2454793 41.2445772,92.2316324 41.4919218,92.266244 C39.0562081,96.1154253 36.7978258,100.083811 34.7202462,104.162959 C25.729041,117.046088 18.8885162,131.00641 14.5952482,145.471274 C14.2409651,146.664604 15.9227318,147.431428 16.9020899,146.51884 C18.3811414,145.14016 19.9144193,143.805698 21.4800101,142.49969 C19.6813156,151.698252 18.713491,161.194861 18.713491,170.919492 C18.713491,180.229589 19.6170705,189.324297 21.2684493,198.154828 C19.7759392,196.903424 18.3157421,195.623205 16.9020899,194.305647 C15.9227318,193.39384 14.2409651,194.159902 14.5952482,195.353232 C18.5961621,208.833979 24.7962272,221.883627 32.8969208,234.027244 C35.2641672,239.011661 37.9091356,243.836879 40.7999032,248.494414 C40.7672086,248.483645 40.7356676,248.485189 40.702201,248.471734 L29.3868341,244.056078 C28.0685874,243.541921 26.8961215,244.870989 27.7973943,245.854345 C37.5625445,256.505421 48.8555972,266.113926 61.2657158,274.465653 C65.0085244,278.253291 68.9540488,281.837112 73.0869138,285.202877 C66.7891469,286.247755 57.4582808,288.880145 55.9384615,289.857344 C68.8198009,294.339135 83.1909525,299.438537 97.134349,301.145282 C99.11539,302.196296 101.118735,303.208127 103.15285,304.169546 C96.6754435,315.488626 100.243227,319.616603 111.815165,319.818897 C108.351241,331.985173 104.886937,344.15149 101.422612,356.317767 C100.720986,358.782112 100.018979,361.246056 99.317714,363.710401 C96.8085478,363.299677 94.1501108,363.075846 91.395506,363.075846 C76.2080972,363.075846 63.8964527,369.789689 63.8964527,378.071793 C63.8964527,386.353535 118.894569,386.353535 118.894569,378.071793 C118.894569,375.056392 117.256659,372.251307 114.448209,369.89966 C118.688775,355.00831 122.927416,340.118484 127.167982,325.227495 C133.676156,327.067311 145.927035,329.48393 165.445401,329.48393 C182.955046,329.48393 196.554941,327.538796 205.199947,325.809751 C209.385514,340.506508 213.569536,355.203665 217.754322,369.899659 C214.946252,372.251307 213.307961,375.056392 213.307961,378.071792 C213.307961,386.353534 268.306469,386.353534 268.306469,378.071792 C268.306469,369.789689 255.994815,363.075846 240.807396,363.075846 C238.05242,363.075846 235.394364,363.299677 232.885178,363.710401 C232.183552,361.246055 231.481926,358.782111 230.780279,356.317766 C227.610626,345.187906 224.442136,334.058406 221.272482,322.928546 C240.03653,321.219113 234.771585,310.581512 234.771585,310.581512 L232.259331,305.559013 C234.798143,305.025204 237.335771,304.477959 239.867663,304.078785 C238.241667,303.114279 236.615691,302.150174 234.989696,301.185668 C239.708784,298.685949 244.288629,295.957788 248.68653,292.978142 C264.305555,288.641334 279.101363,282.285134 292.34196,274.071853 C286.137683,273.890334 279.934569,273.708433 273.730252,273.526152 C284.012024,268.294061 292.61547,260.718783 298.472023,251.739821 C295.501244,252.818147 292.111173,253.018516 288.908445,252.384743 C289.314257,251.774031 289.699328,251.149102 290.095513,250.532253 C303.974313,237.991789 313.669832,222.019766 317.655341,204.838672 C314.625351,206.142373 311.594558,207.446075 308.563365,208.750137 C311.763406,196.675382 313.48943,184.000683 313.48943,170.919492 C313.48943,157.41797 311.637241,144.35603 308.235257,131.933216 C311.374924,133.284222 314.515714,134.634828 317.655341,135.985834 C313.514825,118.137118 303.254595,101.559025 288.49802,88.8154949 Z M285.975736,41.7755237 C285.386434,37.73214 287.596336,32.9084664 291.730354,31.6413063 C294.092576,30.9713825 296.229026,31.4170993 298.140827,32.976922 C301.55974,37.4771715 300.261872,39.5265518 294.248386,39.1254428 C291.113332,35.9477297 286.756631,38.4428314 285.975736,41.7755237 Z M32.0256553,50.0641791 C29.4072238,53.5153293 23.2125545,41.9208925 32.5872671,41.7012978 C37.0417111,41.5966968 40.5648751,45.9219646 40.9052985,50.0630263 C40.9168421,50.2003186 40.9064516,50.332618 40.9114562,50.4695192 C39.2693138,47.8348243 34.5756094,46.7034173 32.0256553,50.0641791 Z M166.101256,254.799077 C116.350002,254.799077 76.0184599,214.477557 76.0184599,164.738295 C76.0184599,114.999033 116.350002,74.6778839 166.101256,74.6778839 C215.852911,74.6778839 256.184463,114.999013 256.184463,164.738295 C256.184463,214.477577 215.852911,254.799077 166.101256,254.799077 Z" id="Shape"></path>
            </g>
        </g>
    </g>
</svg>