<?xml version="1.0" encoding="UTF-8"?>
<svg width="600px" height="600px" viewBox="0 0 600 600" version="1.1" xmlns="http://www.w3.org/2000/svg" xmlns:xlink="http://www.w3.org/1999/xlink">
    <!-- Generator: Sketch 55.1 (78136) - https://sketchapp.com -->
    <title>monster23</title>
    <desc>Created with Sketch.</desc>
    <g id="monster23" stroke="none" stroke-width="1" fill="none" fill-rule="evenodd">
        <g id="noun_Monster_2236193" transform="translate(141.000000, 129.000000)" fill="#000000" fill-rule="nonzero">
            <g id="Group">
                <path d="M315.977799,171.685796 C311.228824,146.164629 306.527868,120.643798 301.826623,95.1226309 C305.472385,86.8232782 307.535044,77.6607648 307.535044,67.9703192 C307.535044,30.6482253 277.266022,0.329855664 239.897594,0.329855664 C216.776042,0.329855664 196.388824,11.9389905 184.204559,29.6407168 L134.795297,29.6407168 C122.611032,11.9390385 102.223814,0.329855664 79.1022621,0.329855664 C41.7338346,0.329855664 11.464812,30.6481773 11.464812,67.9702712 C11.464812,77.6607168 13.5274708,86.8232302 17.1732331,95.1225829 C12.4719886,120.64375 7.72301398,146.164581 3.02205729,171.685748 C1.19920015,181.616005 -1.96671895,189.675258 3.26185895,198.693999 C9.21008165,208.960061 20.1953863,218.122623 28.0144841,227.093632 C31.276391,230.787286 38.3758439,231.746775 42.5012095,228.964301 C51.1360358,223.063838 59.7705743,217.211106 68.3570469,211.358663 C72.1945929,208.768269 73.7296785,205.074327 73.7296785,201.380385 C73.7296785,192.889528 65.2389059,184.638195 56.3165958,190.682719 C50.3683731,194.712513 44.4201504,198.789991 38.5199456,202.819498 C33.8187011,197.446631 29.1657623,192.073812 24.4645177,186.748964 C28.5421532,164.681928 32.6194529,142.662671 36.6970884,120.643654 C48.3057143,129.997959 63.0325292,135.610927 79.102358,135.610927 C88.3605056,135.610927 97.1390977,133.73997 105.149979,130.381832 L87.7368486,179.45712 C85.5784418,186.461132 84.3311758,193.848729 84.2831579,201.572465 C84.2831579,201.716237 84.2831579,201.812277 84.2831579,201.956049 C84.2831579,223.015818 92.9657143,242.012885 106.924818,255.684769 C103.42311,270.939826 99.8733835,286.24295 96.3716749,301.498007 C92.6298768,300.250975 88.6005471,299.531298 84.3311758,299.531298 C65.5747913,299.531298 50.3683731,313.15521 50.3683731,330.04146 C50.3683731,346.87969 118.293978,346.87969 118.293978,330.04146 C118.293978,323.133488 115.751429,316.849152 111.482057,311.716097 C114.936036,296.796845 118.341709,281.87764 121.795687,266.958387 C132.87674,273.386495 145.732632,277.128457 159.5,277.128457 C173.267368,277.128457 186.075242,273.386495 197.204313,266.958387 C200.610274,281.87764 204.063964,296.796845 207.517943,311.716097 C203.248571,316.849152 200.658291,323.13344 200.658291,330.04146 C200.658291,346.87969 268.631579,346.87969 268.631579,330.04146 C268.631579,313.15521 253.425209,299.531298 234.621094,299.531298 C230.399741,299.531298 226.370123,300.250975 222.628613,301.498007 C219.078599,286.24295 215.57689,270.939826 212.075182,255.684769 C225.986268,242.012837 234.668824,223.015818 234.668824,201.956049 C234.668824,201.812277 234.668824,201.716237 234.668824,201.572465 C234.621094,193.848729 233.421846,186.46118 231.263151,179.45712 L216.920192,131.533112 C224.067663,134.171526 231.790773,135.610927 239.89769,135.610927 C255.967471,135.610927 270.694286,129.998007 282.302912,120.643654 C286.380547,142.662671 290.457847,164.681928 294.535482,186.748964 C289.834238,192.073812 285.181299,197.446631 280.480342,202.819498 C274.531832,198.789991 268.631627,194.712513 262.683404,190.682719 C253.761046,184.638195 245.270322,192.889528 245.270322,201.380385 C245.270322,205.074327 246.805407,208.768269 250.642953,211.358663 C259.229426,217.211106 267.864252,223.063838 276.450773,228.964301 C280.624156,231.746775 287.675879,230.787238 290.937786,227.093632 C298.756884,218.122575 309.789918,208.960061 315.738141,198.693999 C320.966863,189.675306 317.800656,181.616005 315.977799,171.685796 Z M73.8737322,110.809244 C51.5676212,110.809244 33.4828636,92.7239815 33.4828636,70.4168926 C33.4828636,48.1100915 51.5676212,30.024541 73.8737322,30.024541 C96.2275732,30.024541 114.312331,48.1100915 114.312331,70.4168926 C114.312331,92.7240295 96.2275732,110.809244 73.8737322,110.809244 Z M142.806514,160.604257 L134.315742,204.162955 C133.164511,210.063418 131.293636,210.063418 130.142358,204.162955 L121.651585,160.604257 C120.500355,154.655774 122.755086,149.810551 126.688667,149.810551 L137.76972,149.810551 C141.703014,149.810551 143.957744,154.655774 142.806514,160.604257 Z M197.348271,160.604257 L188.857498,204.162955 C187.706268,210.063418 185.835393,210.063418 184.684115,204.162955 L176.193342,160.604257 C175.042112,154.655774 177.296842,149.810551 181.230424,149.810551 L192.311477,149.810551 C196.19704,149.810551 198.499501,154.655774 197.348271,160.604257 Z M246.901299,110.809244 C224.595188,110.809244 206.51043,92.7239815 206.51043,70.4168926 C206.51043,48.1100915 224.595188,30.024541 246.901299,30.024541 C269.207122,30.024541 287.29188,48.1100915 287.29188,70.4168926 C287.29188,92.7240295 269.207122,110.809244 246.901299,110.809244 Z" id="Shape"></path>
                <path d="M246.901299,54.3944271 C238.026671,54.3944271 230.831182,61.5422113 230.831182,70.4169406 C230.831182,79.2919576 238.026671,86.4877618 246.901299,86.4877618 C255.775591,86.4877618 262.923062,79.2919576 262.923062,70.4169406 C262.923062,61.5422113 255.775591,54.3944271 246.901299,54.3944271 Z" id="Path"></path>
                <path d="M73.8737322,54.3944271 C65.0471221,54.3944271 57.8516334,61.5422113 57.8516334,70.4169406 C57.8516334,79.2919576 65.0471221,86.4877618 73.8737322,86.4877618 C82.7480723,86.4877618 89.9435611,79.2919576 89.9435611,70.4169406 C89.9435611,61.5422113 82.7480723,54.3944271 73.8737322,54.3944271 Z" id="Path"></path>
            </g>
        </g>
    </g>
</svg>