<?xml version="1.0" encoding="UTF-8"?>
<svg width="600px" height="600px" viewBox="0 0 600 600" version="1.1" xmlns="http://www.w3.org/2000/svg" xmlns:xlink="http://www.w3.org/1999/xlink">
    <!-- Generator: Sketch 55.1 (78136) - https://sketchapp.com -->
    <title>monster35</title>
    <desc>Created with Sketch.</desc>
    <g id="monster35" stroke="none" stroke-width="1" fill="none" fill-rule="evenodd">
        <g id="noun_Monster_2236038" transform="translate(126.000000, 129.000000)" fill="#000000" fill-rule="nonzero">
            <path d="M347.856,3.65868266 C347.856,3.65868266 267.311856,-16.2498049 244.559904,54.029312 C227.232,43.0435257 206.256,35.3680972 180.768,33.4971401 L167.28,33.4971401 C141.792,35.3680972 120.768,43.0435257 103.440048,54.029312 C80.687856,-16.2498529 0.144,3.65868266 0.144,3.65868266 L52.032,110.732009 C30.144,150.788844 25.632,192.572577 26.975856,198.760872 C29.663856,211.041712 41.952144,201.351266 41.952144,201.351266 C41.568048,219.292757 43.199904,250.282783 58.896,277.00325 C58.896,277.00325 57.311904,284.151034 74.304096,290.771222 C74.256048,292.737931 74.159952,294.704976 74.111904,296.623666 C80.111904,302.524417 87.263856,307.849264 95.616096,312.358635 C81.456048,315.812477 71.52,323.631965 71.52,332.698727 C71.52,345.027586 152.352144,345.027586 152.352144,332.698727 C152.352144,327.613692 149.232048,322.960549 143.999904,319.218587 C143.280096,311.63891 142.896,303.675698 142.896,295.424365 C142.896,245.293836 156.816096,204.661384 173.999904,204.661384 C191.184,204.661384 205.104096,245.293836 205.104096,295.424365 C205.104096,303.675698 204.72,311.63891 203.999904,319.218587 C198.768048,322.960549 195.647952,327.613692 195.647952,332.698727 C195.647952,345.027586 276.480096,345.027586 276.480096,332.698727 C276.480096,323.631965 266.544048,315.812477 252.384,312.358635 C260.784,307.849264 267.887904,302.524417 273.887904,296.623666 C273.840144,294.704976 273.744048,292.737931 273.696,290.771222 C290.735952,284.151082 289.104096,277.00325 289.104096,277.00325 C304.799904,250.28283 306.432048,219.292757 306.096,201.351266 C306.096,201.351266 318.384,211.041712 321.023952,198.760872 C322.368096,192.572577 317.856096,150.788844 295.968096,110.732009 L347.856,3.65868266 Z M61.295952,91.7352301 L18.768,15.2678175 C81.407952,21.4561131 61.295952,91.7352301 61.295952,91.7352301 Z M134.352096,75.3766246 C134.352096,70.2438575 138.480048,66.1180712 143.616048,66.1180712 C148.752048,66.1180712 152.88,70.2439055 152.88,75.3766246 C152.88,80.5096796 148.752048,84.6354659 143.616048,84.6354659 C138.480048,84.6354659 134.352096,80.5096796 134.352096,75.3766246 Z M145.823856,117.496209 C145.823856,101.95332 158.447856,89.3366287 173.999856,89.3366287 C189.552096,89.3366287 202.175856,101.953272 202.175856,117.496209 C202.175856,133.039146 145.823856,133.039098 145.823856,117.496209 Z M204.383952,84.6354659 C199.247904,84.6354659 195.12,80.5096316 195.12,75.3766246 C195.12,70.2438575 199.247952,66.1180712 204.383952,66.1180712 C209.519952,66.1180712 213.647904,70.2439055 213.647904,75.3766246 C213.647904,80.5096796 209.519952,84.6354659 204.383952,84.6354659 Z M332.016048,15.2678175 L289.487808,91.7352301 C289.487856,91.7352301 269.375808,21.4561131 332.016048,15.2678175 Z" id="Shape"></path>
        </g>
    </g>
</svg>