<?xml version="1.0" encoding="UTF-8"?>
<svg width="600px" height="600px" viewBox="0 0 600 600" version="1.1" xmlns="http://www.w3.org/2000/svg" xmlns:xlink="http://www.w3.org/1999/xlink">
    <!-- Generator: Sketch 55.1 (78136) - https://sketchapp.com -->
    <title>monster33</title>
    <desc>Created with Sketch.</desc>
    <g id="monster33" stroke="none" stroke-width="1" fill="none" fill-rule="evenodd">
        <g id="noun_Vernon-the-trudger_1445578" transform="translate(120.000000, 110.000000)" fill="#000000" fill-rule="nonzero">
            <g id="Group">
                <path d="M267.993922,88.6468172 C228.973139,87.8805812 202.391206,87.4974632 188.248121,87.4974632 C157.566146,87.4974632 152.278017,69.3742616 106.279978,62.532308 C105.978235,62.4874252 105.677606,62.442856 105.378092,62.3985996 C108.437333,41.5750368 108.849051,32.3365392 106.613246,34.683107 C104.453234,36.9501271 95.6929952,45.103232 80.3325296,59.1424212 C72.3380536,58.2885916 65.7015048,57.8162872 60.4228828,57.725508 C97.3356708,5.83648512 235.963471,-53.9372412 309.780362,89.5109792 C303.506998,89.3758148 297.454576,89.2474556 291.623097,89.1259012 C283.809816,73.931892 279.089208,66.2741504 277.461272,66.1526756 C275.848586,66.0323392 272.692803,73.5303864 267.993922,88.6468172 Z M56.237382,64.3608684 C75.7295316,65.0383316 89.402444,66.1131892 97.2561196,67.5854412 C162.449114,79.8065376 144.346535,93.5290356 205.656364,93.5290356 C241.258105,93.5290356 276.705689,93.648976 311.999115,93.8888564 C351.00633,171.871506 366.134228,256.324608 357.382811,347.248161 L357.382811,375.231238 C332.643157,363.683661 310.835498,363.683661 291.959834,375.231238 C263.646337,392.552604 242.462486,355.619727 218.592738,375.231238 C204.552838,386.766495 231.234342,337.848856 218.592738,327.693618 C201.646078,314.080046 176.362869,314.080046 159.416208,327.693618 C150.988472,334.463777 150.988472,350.30965 159.416208,375.231238 C128.372007,364.110927 101.86632,364.110927 79.8991484,375.231238 C46.9483908,391.911705 47.7462196,350.063214 3.35016307,361.051702 C-7.68941452,363.784114 12.9143462,341.278521 3.35016307,283.23801 C-2.48381155,247.834373 13.8724668,205.805364 28.5645568,175.794841 C61.9055508,107.691481 40.0341432,99.7312856 43.1257836,87.1171964 C46.2174244,74.5031076 50.6513632,75.159444 55.5677712,65.6200172 C55.7834424,65.2015448 56.0066776,64.7817884 56.237382,64.3608684 Z M176.005525,66.4603072 C179.227336,66.4603072 181.839131,63.1955644 181.839131,59.1683 C181.839131,55.1410356 179.227336,51.8762928 176.005525,51.8762928 C172.783713,51.8762928 170.171919,55.1410356 170.171919,59.1683 C170.171919,63.1955644 172.783713,66.4603072 176.005525,66.4603072 Z M197.881546,72.2939132 C201.908811,72.2939132 205.173554,68.3762216 205.173554,63.5435044 C205.173554,58.7107872 201.908811,54.7930956 197.881546,54.7930956 C193.854282,54.7930956 190.589539,58.7107872 190.589539,63.5435044 C190.589539,68.3762216 193.854282,72.2939132 197.881546,72.2939132 Z" id="Shape"></path>
            </g>
        </g>
    </g>
</svg>