<?xml version="1.0" encoding="UTF-8"?>
<svg width="600px" height="600px" viewBox="0 0 600 600" version="1.1" xmlns="http://www.w3.org/2000/svg" xmlns:xlink="http://www.w3.org/1999/xlink">
    <!-- Generator: Sketch 55.1 (78136) - https://sketchapp.com -->
    <title>monster11</title>
    <desc>Created with Sketch.</desc>
    <g id="monster11" stroke="none" stroke-width="1" fill="none" fill-rule="evenodd">
        <g id="noun_Monster_2236457" transform="translate(122.000000, 111.000000)" fill="#000000" fill-rule="nonzero">
            <g id="Group">
                <path d="M346.518425,290.662776 C333.195557,265.444884 316.851759,246.16683 310.918533,217.978668 C309.354399,211.336776 308.221564,204.262776 307.142722,196.972614 C333.896769,185.524614 350.186574,170.458776 350.186574,153.934776 C350.186574,124.61283 298.890156,99.826668 228.499032,91.834776 L228.499032,74.50056 C234.540567,78.22656 241.606574,80.440776 249.211921,80.440776 C271.057321,80.440776 288.803544,62.67456 288.803544,40.804614 C288.803544,18.880614 271.057267,1.114776 249.211921,1.114776 C227.312527,1.114776 209.620244,18.880668 209.620244,40.804614 L209.620244,90.160668 C199.911207,89.512668 189.932581,89.134668 179.737927,89.134668 C168.302776,89.134668 157.191315,89.566776 146.403436,90.37656 L146.403436,40.804614 C146.403436,18.880614 128.657483,1.114776 106.811759,1.114776 C84.9123648,1.114776 67.1664121,18.880668 67.1664121,40.804614 C67.1664121,62.67456 84.9123648,80.440776 106.811759,80.440776 C114.417375,80.440776 121.483436,78.226614 127.524648,74.50056 L127.524648,92.266776 C58.9139006,100.636722 9.23561091,125.04483 9.23561091,153.934668 C9.23561091,169.756614 24.2306006,184.282668 49.0428836,195.514722 C47.9100485,203.290722 46.7235436,210.904614 45.0514224,217.97856 C39.1178733,246.166722 22.8283921,265.444776 9.5052,290.662668 C-14.2282412,332.188668 15.4384255,332.188668 49.4744527,318.850506 C49.4744527,341.098506 33.1846479,361.888668 62.8513145,370.798506 C85.0743448,376.360668 100.770547,358.432614 111.180796,340.288722 L113.176877,340.288722 C113.716163,387.97083 180.708782,390.184668 177.040958,340.288722 L178.929052,340.288722 C175.314897,390.184668 242.30784,387.97083 242.847126,340.288722 L244.78889,340.288722 C255.199139,358.432668 270.949712,376.360668 293.172688,370.798506 C322.785362,361.888722 306.495557,341.098506 306.495557,318.850506 C340.5852,332.188722 370.197873,332.188722 346.518425,290.662776 Z M249.211921,17.69283 C261.941564,17.69283 272.24415,28.060722 272.24415,40.804668 C272.24415,53.548614 261.941564,63.862776 249.211921,63.862776 C236.482278,63.862776 226.179692,53.548614 226.179692,40.804668 C226.179692,28.060722 236.482278,17.69283 249.211921,17.69283 Z M106.811759,63.862722 C94.0821158,63.862722 83.72586,53.54856 83.72586,40.804614 C83.72586,28.060668 94.0821158,17.692776 106.811759,17.692776 C119.487732,17.692776 129.843988,28.060668 129.843988,40.804614 C129.843988,53.54856 119.487732,63.862722 106.811759,63.862722 Z M222.457819,268.900614 L133.511813,268.900614 C111.720405,268.900614 102.712635,253.348614 113.500513,234.394884 L159.456661,150.262776 C169.651261,130.930668 186.318695,130.930668 196.513025,150.262776 L242.52349,234.394884 C253.311368,253.34856 244.303544,268.900614 222.457819,268.900614 Z" id="Shape"></path>
                <path d="M249.211921,51.280668 C254.98349,51.280668 259.676163,46.582668 259.676163,40.804668 C259.676163,34.97256 254.983436,30.274614 249.211921,30.274614 C243.386358,30.274614 238.693685,34.97256 238.693685,40.804668 C238.693685,46.582668 243.386358,51.280668 249.211921,51.280668 Z" id="Path"></path>
                <path d="M206.276001,226.186722 C201.799247,226.186722 198.185092,231.640776 198.185092,238.336722 C198.185092,245.086722 201.799247,250.486722 206.276001,250.486722 C210.753079,250.486722 214.420904,245.086722 214.420904,238.336722 C214.420904,231.640776 210.753079,226.186722 206.276001,226.186722 Z" id="Path"></path>
                <path d="M149.693631,226.186722 C145.216877,226.186722 141.602722,231.640776 141.602722,238.336722 C141.602722,245.086722 145.216877,250.486722 149.693631,250.486722 C154.170708,250.486722 157.838533,245.086722 157.838533,238.336722 C157.838533,231.640776 154.170708,226.186722 149.693631,226.186722 Z" id="Path"></path>
                <path d="M106.811759,30.27456 C100.98652,30.27456 96.2938467,34.972506 96.2938467,40.804614 C96.2938467,46.582668 100.986574,51.280614 106.811759,51.280614 C112.583328,51.280614 117.276001,46.582614 117.276001,40.804614 C117.276001,34.97256 112.583328,30.27456 106.811759,30.27456 Z" id="Path"></path>
            </g>
        </g>
    </g>
</svg>