<?xml version="1.0" encoding="UTF-8"?>
<svg width="600px" height="600px" viewBox="0 0 600 600" version="1.1" xmlns="http://www.w3.org/2000/svg" xmlns:xlink="http://www.w3.org/1999/xlink">
    <!-- Generator: Sketch 55.1 (78136) - https://sketchapp.com -->
    <title>monster15</title>
    <desc>Created with Sketch.</desc>
    <g id="monster15" stroke="none" stroke-width="1" fill="none" fill-rule="evenodd">
        <g id="noun_Cyclops_60276" transform="translate(124.000000, 124.000000)" fill="#000000" fill-rule="nonzero">
            <path d="M265.1,194.92 L89.54,238.81 L89.54,194.92 L265.1,151.8 L265.1,194.92 Z M265.1,213.4 L89.54,257.29 L89.54,328.515 C89.54,341.22 99.165,350.845 111.87,350.845 L154.605,350.845 L154.605,278.85 C154.605,266.145 164.23,256.52 176.935,256.52 C189.64,256.52 199.265,266.145 199.265,278.85 L199.265,350.845 L242,350.845 C254.705,350.845 264.33,341.22 264.33,328.515 L265.1,213.4 Z M176.935,36.3 C172.7,36.3 169.235,39.765 169.235,44 C169.235,48.235 172.7,51.7 176.935,51.7 C181.17,51.7 184.635,48.235 184.635,44 C184.635,39.765 181.17,36.3 176.935,36.3 Z M263.56,44 L219.67,44 C219.67,19.36 200.035,0.11 175.78,0.11 C151.14,0.11 131.89,19.745 131.89,44 L86.46,44 C62.59,44 0.99,44.77 0.99,131.395 L0.99,326.205 C0.99,338.14 10.615,347.765 22.55,347.765 C34.485,347.765 43.34,338.525 44.11,327.36 C37.95,327.36 32.175,321.585 32.175,315.425 C32.175,309.265 37.95,303.49 44.11,303.49 L44.11,131.78 C44.11,119.075 54.505,109.45 66.44,109.45 C79.145,109.45 88.77,119.845 88.77,131.78 L88.77,175.67 L264.33,131.78 C265.1,119.845 274.725,110.22 286.66,110.22 C299.365,110.22 308.99,120.615 308.99,132.55 L308.99,306.955 C315.15,306.955 320.925,312.73 320.925,318.89 C320.925,325.05 315.15,330.825 308.99,330.825 C309.76,341.99 319.385,351.23 330.55,351.23 C342.485,351.23 350.955,341.605 350.955,329.67 L350.955,131.395 C350.955,44 287.815,44 263.56,44 Z M176.935,22.44 C188.87,22.44 198.495,32.065 198.495,44 C198.495,55.935 188.87,65.56 176.935,65.56 C165,65.56 155.375,55.935 155.375,44 C155.375,32.065 165,22.44 176.935,22.44 Z M210.43,89.43 L210.43,89.43 L150.37,107.525 L150.37,107.525 L150.37,107.525 C146.52,108.68 141.9,106.37 140.745,102.52 C139.59,98.67 141.9,94.05 145.75,92.895 L205.81,74.8 L205.81,74.8 C209.275,74.415 212.74,76.725 213.895,80.19 C215.435,84.04 213.895,87.89 210.43,89.43 Z" id="Shape"></path>
        </g>
    </g>
</svg>