<?xml version="1.0" encoding="UTF-8"?>
<svg width="600px" height="600px" viewBox="0 0 600 600" version="1.1" xmlns="http://www.w3.org/2000/svg" xmlns:xlink="http://www.w3.org/1999/xlink">
    <!-- Generator: Sketch 55.1 (78136) - https://sketchapp.com -->
    <title>monster16</title>
    <desc>Created with Sketch.</desc>
    <g id="monster16" stroke="none" stroke-width="1" fill="none" fill-rule="evenodd">
        <g id="noun_Monster_2236226" transform="translate(127.000000, 118.000000)" fill="#000000" fill-rule="nonzero">
            <g id="Group">
                <path d="M218.00398,131.853224 C217.090924,131.853224 216.225924,131.949373 215.360972,132.093308 C209.498339,133.34204 205.028932,138.577053 205.028932,144.868452 C205.028932,152.024325 210.84375,157.835605 218.00398,157.835605 C218.436624,157.835605 218.917035,157.835605 219.349679,157.787531 C225.885187,157.115114 230.979028,151.592232 230.979028,144.868452 C230.979028,137.664505 225.164209,131.853224 218.00398,131.853224 Z" id="Path"></path>
                <path d="M127.99602,157.835605 C128.428664,157.835605 128.860972,157.835605 129.293616,157.787531 C135.877227,157.115114 140.971068,151.592232 140.971068,144.868452 C140.971068,138.577005 136.50195,133.34204 130.590924,132.093308 C129.774076,131.949373 128.860972,131.853224 127.99602,131.853224 C120.835791,131.853224 115.020972,137.664505 115.020972,144.868452 C115.020972,152.024325 120.835791,157.835605 127.99602,157.835605 Z" id="Path"></path>
                <path d="M336.94148,306.381 C336.46102,306.236777 335.980321,306.236777 335.499861,306.236777 C336.076528,265.222399 293.739583,196.256706 269.135139,175.221132 C279.563098,174.164409 287.348098,170.370426 287.396202,165.807878 C287.396202,161.629588 281.005005,158.123763 272.06648,156.634995 C272.306709,154.761921 272.354813,152.840724 272.45102,150.967938 C280.428098,143.956 284.561116,136.271886 281.870005,132.525689 C280.139765,130.124373 275.95898,129.836215 270.769172,131.325031 C270.336528,129.259947 269.759909,127.24289 269.087035,125.225593 C288.501672,113.843356 306.137965,99.3874349 319.545369,81.3297803 C326.993932,71.100175 333.04898,59.9099474 336.653146,48.0953776 C340.35352,36.3769566 341.891346,24.2264428 341.458702,12.5080217 C340.689957,1.51009145 338.287179,1.79824934 336.172687,11.9797803 C330.982591,33.9278546 318.488291,52.3216934 302.101154,64.8087276 C287.540465,76.0948158 270.384583,83.5387987 252.700187,88.1013947 L252.700187,7.22488684 L216.562361,71.4363112 C203.731624,66.2012987 189.410876,63.2717895 174.321624,63.2717895 C159.184028,63.2717895 144.863568,66.2013467 132.080598,71.4363112 L95.9430608,7.22488684 L95.9430608,88.005198 L95.9430608,88.7256888 C77.3455608,84.2592895 59.1804647,76.6710355 43.8987981,64.8086796 C27.5119978,52.3216454 15.0173611,33.9278066 9.827265,11.9797322 C7.71282056,1.79815329 5.31004278,1.51004342 4.54125,12.5079737 C4.10860583,24.2263947 5.64643167,36.3769086 9.34680556,48.0953296 C12.9509722,59.9098993 19.0060203,71.100127 26.4545833,81.3297322 C40.3426869,100.059803 58.8439797,114.948153 79.1716719,126.522351 C78.6428206,128.347351 78.0662019,130.220474 77.6338461,132.141334 C71.3385683,129.788093 66.1485203,129.740018 64.130235,132.525641 C61.1507906,136.70393 66.5808281,145.684803 76.2881464,153.176909 C76.3843536,154.233632 76.3843536,155.241992 76.5283761,156.250641 C66.2447275,157.403224 58.60375,161.245282 58.6518536,165.80783 C58.6518536,170.370378 66.4368536,174.164361 76.8648131,175.221084 C52.2603686,196.25661 9.92347222,265.222351 10.5000908,306.236729 C10.0196314,306.236729 9.53893167,306.236729 9.05847222,306.380952 C6.51138361,307.149229 5.02166139,309.838703 5.74263889,312.384241 C6.46356833,314.881706 9.05847222,316.370522 11.5574572,315.746132 C11.7495833,316.562483 11.9417094,317.330808 12.1821794,318.099373 C9.77940167,318.915724 8.38559833,321.509049 9.05847222,324.006514 C9.82721694,326.599839 12.5183281,328.088943 15.0654167,327.32033 C15.5458761,327.176395 15.9784722,326.984097 16.3630128,326.744014 C16.8915758,327.41643 17.4200908,328.088895 18.0448611,328.712949 C16.8434722,329.913607 16.3149092,331.690868 16.8434722,333.41972 C17.5644017,336.013045 20.2555128,337.501861 22.8023131,336.78161 C24.1480128,336.397303 25.2050908,335.436729 25.7817575,334.284145 C26.5988942,334.668452 27.4157906,335.004348 28.3288461,335.34058 C28.0405128,336.205006 27.9924092,337.213655 28.2807425,338.174277 C29.0016719,340.719528 31.6927831,342.208343 34.2395833,341.488093 C36.2100053,340.911777 37.5073131,339.278786 37.7475428,337.405664 C38.372265,337.453738 38.9970353,337.549887 39.6698611,337.597961 L39.7179647,337.597961 C39.7179647,337.982268 39.7660683,338.366238 39.9100908,338.750545 C40.6310203,341.296084 43.3221314,342.784899 45.8689317,342.064361 C48.2717094,341.391944 49.6655128,339.038703 49.3290758,336.685413 C50.1940278,336.44533 51.0109242,336.157172 51.8280608,335.820987 C52.8851389,337.837997 55.1917094,338.89472 57.4504647,338.222303 C60.0453686,337.501812 61.5350908,334.812339 60.7662981,332.219014 C60.6219872,331.642698 60.3336539,331.114216 59.9494497,330.634049 C60.8144017,329.865772 61.6312981,329.001011 62.3522275,328.088799 C63.5055128,328.809001 64.8990278,329.049085 66.2925428,328.665114 C68.8396314,327.944624 70.3293536,325.25515 69.6083761,322.661825 C69.2719392,321.557028 68.5512981,320.644528 67.6863461,320.020137 C70.0410203,315.361729 73.3568536,304.747817 76.8167094,291.300497 C82.9198611,307.869624 91.04125,322.80576 99.9314317,333.275449 C88.5903686,338.510461 79.8442575,348.499983 76.3362981,360.698571 L160.04898,360.698571 C157.742409,352.774133 153.273291,345.762435 147.31445,340.383536 C153.12898,336.012997 159.328339,331.498475 173.024076,331.546549 C186.623894,331.546549 192.438424,336.54119 197.676576,341.391896 C192.246298,346.626909 188.113568,353.25454 185.95102,360.698571 L269.663702,360.698571 C266.299765,349.172159 258.322639,339.566896 247.846576,334.139874 C256.832965,324.102518 264.377687,310.07893 269.952035,294.230006 C273.123846,306.284659 276.103291,315.697913 278.313654,320.020137 C277.448702,320.64448 276.728013,321.557028 276.391624,322.661825 C275.670694,325.25515 277.160369,327.944624 279.707457,328.665114 C281.100972,329.049133 282.494776,328.809049 283.648061,328.088799 C284.416806,329.001011 285.185887,329.865772 286.050839,330.634049 C285.666298,331.114216 285.378013,331.642698 285.233702,332.219014 C284.464957,334.812339 285.954631,337.501812 288.549535,338.222303 C290.808291,338.89472 293.114861,337.837997 294.172228,335.820988 C294.989076,336.15722 295.805972,336.44533 296.670924,336.685413 C296.334487,339.038655 297.728291,341.391896 300.131068,342.064361 C302.677869,342.784851 305.36898,341.296084 306.089909,338.750545 C306.23422,338.366238 306.282035,337.982268 306.282035,337.597961 C306.330139,337.597961 306.330139,337.597961 306.330139,337.597961 C307.002965,337.549887 307.627735,337.453738 308.252457,337.405664 C308.492687,339.278738 309.790283,340.911777 311.760417,341.488093 C314.307505,342.208295 316.998616,340.719528 317.719258,338.174277 C318.007591,337.213703 317.959487,336.205054 317.671154,335.34058 C318.584209,335.004348 319.401394,334.668452 320.218243,334.284145 C320.794909,335.436729 321.852276,336.397303 323.197687,336.78161 C325.744776,337.501812 328.435887,336.013045 329.156528,333.41972 C329.685091,331.69082 329.156528,329.913607 327.955139,328.712949 C328.579861,328.088895 329.108424,327.41643 329.637276,326.744014 C330.021528,326.984097 330.454124,327.176395 330.934583,327.32033 C333.481672,328.088895 336.172783,326.599839 336.941528,324.006514 C337.614354,321.509049 336.220887,318.915724 333.818109,318.099373 C334.058339,317.330808 334.250465,316.562483 334.442831,315.746132 C336.941528,316.370474 339.53672,314.881706 340.257361,312.384241 C340.978291,309.838751 339.488568,307.149277 336.94148,306.381 Z M221.464124,84.0669921 C229.152917,80.9454737 234.871528,80.7534645 235.976709,86.4205217 C238.427591,99.4354612 209.354028,108.752566 189.699498,113.507124 L176.820369,113.507124 C185.902917,106.207316 207.047457,89.9263467 221.464124,84.0669921 Z M110.071394,86.4205217 C113.146709,70.0914783 155.291528,102.365307 169.179679,113.507124 L156.300839,113.507124 C137.462869,108.944864 109.927131,100.204026 109.927131,88.00515 C109.927131,87.4769566 109.975187,86.9487151 110.071394,86.4205217 Z M89.0711164,127.098667 C89.3594497,122.007878 90.6567575,117.25332 92.6752831,112.882782 L132.657265,119.414601 L154.763013,122.9685 L166.728798,124.937435 C166.873109,126.33039 166.969028,127.819206 166.969028,129.259899 C166.969028,150.247399 150.341998,167.392794 129.533846,168.161119 C129.005283,168.209193 128.524583,168.209193 127.99602,168.209193 C106.467227,168.209193 89.0230128,150.775641 89.0230128,129.259899 C89.0230128,128.539409 89.0230128,127.819158 89.0711164,127.098667 Z M203.443291,260.804074 L142.556709,260.804074 L93.7323611,260.804074 C96.1351389,242.746132 104.641068,226.657124 116.991394,214.506658 L142.556709,248.797495 L142.556709,197.553176 C151.927591,193.711119 162.211576,191.502101 173.024076,191.502101 C183.788472,191.502101 194.072409,193.711119 203.443339,197.553176 L203.443339,248.797447 L229.008942,214.50661 C241.359268,226.657124 249.864909,242.746084 252.267687,260.804074 L203.443291,260.804074 L203.443291,260.804074 Z M219.589909,168.161119 C219.061346,168.209193 218.532831,168.209193 218.00398,168.209193 C196.475187,168.209193 179.030972,150.775641 179.030972,129.259899 C179.030972,127.819158 179.127179,126.330342 179.271202,124.937435 L191.236987,122.9685 L213.294631,119.414601 L253.325005,112.882782 C255.247035,117.013285 256.496528,121.527759 256.881068,126.33039 C256.929172,127.290676 256.977276,128.251251 256.977276,129.259947 C256.977276,150.247399 240.398013,167.34472 219.589909,168.161119 Z" id="Shape"></path>
            </g>
        </g>
    </g>
</svg>