<?xml version="1.0" encoding="UTF-8"?>
<svg width="600px" height="600px" viewBox="0 0 600 600" version="1.1" xmlns="http://www.w3.org/2000/svg" xmlns:xlink="http://www.w3.org/1999/xlink">
    <!-- Generator: Sketch 55.1 (78136) - https://sketchapp.com -->
    <title>monster27</title>
    <desc>Created with Sketch.</desc>
    <g id="monster27" stroke="none" stroke-width="1" fill="none" fill-rule="evenodd">
        <g id="noun_Monster_2236049" transform="translate(158.000000, 95.000000)" fill="#000000" fill-rule="nonzero">
            <g id="Group">
                <ellipse id="Oval" cx="142.5" cy="96.8221154" rx="22.9582278" ry="22.9210485"></ellipse>
                <path d="M148.886217,5.24288462 L136.113783,5.24288462 C18.5250528,13.8317308 0.369497222,150.673548 2.84989444,162.055245 C5.38343889,173.700034 17.0471167,164.47888 17.0471167,164.47888 C16.73045,179.390909 17.8917194,203.787447 28.1834917,226.603322 C30.9805556,271.07563 38.2638889,316.1275 53.9390472,356.911293 C58.3193917,368.345419 76.2639417,364.235577 74.152725,353.381014 C73.99455,352.748707 73.8360583,352.116452 73.5722222,351.484144 C62.2248944,322.028986 55.4166667,290.466346 51.5639944,258.534808 C59.0583333,265.015856 68.1362694,270.653986 79.1666667,274.922063 C79.3251583,300.530472 81.6998944,326.349808 85.5000528,351.694808 C87.1361639,363.234423 89.0888889,374.668601 91.2526722,385.997553 C78.4805556,385.997553 67.925,394.533707 65.8665611,405.757168 L116.744444,405.757168 C116.163942,402.806399 115.002672,400.013548 113.366614,397.537168 C113.683281,396.167115 113.683281,394.639144 113.366614,393.058111 C105.925106,356.70063 100.436322,318.60388 99.6444972,280.770803 C102.494392,281.350682 105.449947,281.824702 108.563942,282.246346 C116.955767,283.352674 126.086217,283.879808 136.113783,283.721573 L148.886217,283.721573 C158.913783,283.879808 168.04455,283.352674 176.436058,282.246346 C179.550106,281.824702 182.505608,281.350682 185.355503,280.770803 C184.564047,318.603828 179.074947,356.700577 171.633386,393.058111 C171.316719,394.639144 171.316719,396.167115 171.633386,397.537168 C169.997275,400.013548 168.836006,402.806399 168.255556,405.757168 L219.186217,405.757168 C217.075,394.533707 206.519444,385.997553 193.747275,385.997553 C195.911111,374.668548 197.863836,363.234423 199.499947,351.694808 C203.300106,326.349808 205.675158,300.530472 205.833333,274.922063 C216.864047,270.653986 225.941667,265.015909 233.436006,258.534808 C229.583333,290.466346 222.775106,322.028986 211.427778,351.484144 C211.163942,352.116452 211.00545,352.748707 210.847275,353.381014 C208.736058,364.23563 226.680608,368.345472 231.061269,356.911293 C246.736111,316.1275 254.019444,271.07563 256.816825,226.603269 C267.108228,203.787395 268.269497,179.390856 267.952883,164.478828 C267.952883,164.478828 279.616561,173.699982 282.150106,162.055192 C284.630503,150.673496 266.474947,13.8317308 148.886217,5.24288462 Z M142.5,40.9156296 C173.427725,40.9156296 198.497169,65.9444758 198.497169,96.8221154 C198.497169,127.699755 173.427725,152.728601 142.5,152.728601 C111.572275,152.728601 86.5028306,127.699755 86.5028306,96.8221154 C86.5028306,65.9444758 111.572275,40.9156296 142.5,40.9156296 Z M142.5,252.211678 C66.6055556,252.211678 55.9443389,205.526346 55.9443389,205.526346 L102.705714,181.024318 C160.549947,231.661573 225.519392,190.50888 225.519392,190.50888 C225.519392,190.50888 218.394444,252.211678 142.5,252.211678 Z" id="Shape"></path>
            </g>
        </g>
    </g>
</svg>