<?xml version="1.0" encoding="UTF-8"?>
<svg width="600px" height="600px" viewBox="0 0 600 600" version="1.1" xmlns="http://www.w3.org/2000/svg" xmlns:xlink="http://www.w3.org/1999/xlink">
    <!-- Generator: Sketch 55.1 (78136) - https://sketchapp.com -->
    <title>monster18</title>
    <desc>Created with Sketch.</desc>
    <g id="monster18" stroke="none" stroke-width="1" fill="none" fill-rule="evenodd">
        <g id="noun_Monster_2236397" transform="translate(176.000000, 95.000000)" fill="#000000" fill-rule="nonzero">
            <g id="Group">
                <ellipse id="Oval" cx="153.778708" cy="236.592874" rx="10.0817391" ry="10.0881579"></ellipse>
                <ellipse id="Oval" cx="118.951097" cy="214.312557" rx="20.1634243" ry="20.1762618"></ellipse>
                <ellipse id="Oval" cx="118.951097" cy="260.599507" rx="10.0817391" ry="10.0881579"></ellipse>
                <path d="M154.695445,335.802138 C194.267457,321.397975 222.571805,283.473137 222.571805,238.858555 C222.571805,211.561187 211.89713,186.853238 194.644903,168.349291 C202.300447,164.411241 209.524957,159.55587 216.048543,153.567766 C231.629143,139.109925 246.940609,114.347921 245.16137,92.1216592 C244.029089,78.5271382 230.497184,73.9953974 218.959685,77.9874487 C205.643002,82.5731908 194.213437,96.0600329 188.229197,108.359817 C192.919631,93.7939737 209.147457,51.5534 187.58224,43.2452895 C167.310882,35.4231908 148.603217,57.2718211 134.478,107.173137 C135.933437,55.7071316 123.856969,2.67708421 93.7733826,2.67708421 C74.8501739,2.67708421 47.3543061,30.7294461 67.7875652,105.500768 C66.008327,102.425714 31.288327,42.8676039 7.35093565,71.297975 C-4.9414,85.8638184 6.21865391,133.229446 51.6136522,161.06645 C29.9405009,180.00203 16.1387617,207.784709 16.1387617,238.858447 C16.1387617,283.203346 44.0656643,320.858501 83.2605548,335.532024 L83.2605548,339.901761 L83.2605548,367.684763 C79.9715896,367.145397 76.5750678,366.767766 73.0169687,366.767766 C50.1578922,366.767766 31.6657722,379.607239 31.6657722,395.46782 C31.6657722,411.274345 114.368219,411.274345 114.368219,395.46782 C114.368219,386.134709 107.8986,377.880924 97.9787617,372.647867 L97.9787617,339.901868 C104.87947,341.358555 112.050012,342.167874 119.382078,342.167874 C126.391043,342.167874 133.291751,341.412557 139.922948,340.063872 L139.922948,372.647975 C130.00311,377.881032 123.587457,386.134817 123.587457,395.467928 C123.587457,411.274453 206.236261,411.274453 206.236261,395.467928 C206.236261,379.607401 187.744141,366.767874 164.884741,366.767874 C161.380609,366.767874 157.930066,367.145559 154.695445,367.684871 L154.695445,340.063818 L154.695445,335.802138 L154.695445,335.802138 Z M118.951097,289.623245 C86.7108817,289.623245 60.5631635,263.458555 60.5631635,231.198137 C60.5631635,198.883717 86.7108817,172.719028 118.951097,172.719028 C151.244957,172.719028 177.392675,198.883717 177.392675,231.198137 C177.392675,263.458555 151.244957,289.623245 118.951097,289.623245 Z" id="Shape"></path>
            </g>
        </g>
    </g>
</svg>