<?xml version="1.0" encoding="UTF-8"?>
<svg width="600px" height="600px" viewBox="0 0 600 600" version="1.1" xmlns="http://www.w3.org/2000/svg" xmlns:xlink="http://www.w3.org/1999/xlink">
    <!-- Generator: Sketch 55.1 (78136) - https://sketchapp.com -->
    <title>monster34</title>
    <desc>Created with Sketch.</desc>
    <g id="monster34" stroke="none" stroke-width="1" fill="none" fill-rule="evenodd">
        <g id="noun_Monster_2236039" transform="translate(132.000000, 123.000000)" fill="#000000" fill-rule="nonzero">
            <g id="Group">
                <path d="M169.296096,125.881033 C158.544144,125.881033 149.856144,134.612162 149.856144,145.35806 C149.856144,156.056225 158.544144,164.787354 169.296096,164.787354 C180.048048,164.787354 188.784096,156.056225 188.784096,145.35806 C188.784096,134.612162 180.048048,125.881033 169.296096,125.881033 Z M169.296096,152.554006 C165.312,152.554006 162.048048,149.339913 162.048048,145.35806 C162.048048,141.328474 165.312,138.114381 169.296096,138.114381 C173.327952,138.114381 176.544144,141.328474 176.544144,145.35806 C176.544144,149.339865 173.327904,152.554006 169.296096,152.554006 Z" id="Shape"></path>
                <path d="M331.727952,299.78306 C331.248048,299.639285 330.768192,299.591264 330.288,299.639285 C330.912,258.622441 288.624,189.73306 264,168.768871 C274.463952,167.713609 282.191904,163.923841 282.239952,159.318339 C282.239952,155.144691 275.856144,151.642759 266.927952,150.203378 C267.168192,148.332672 267.264,146.413609 267.312048,144.494595 C275.280192,137.538753 279.408144,129.862886 276.720144,126.073117 C274.991904,123.674468 270.864,123.434651 265.680192,124.921814 C265.151952,122.714961 264.576,120.556129 263.856192,118.397249 C268.320144,113.456177 270.336096,108.562838 268.464,105.924372 C266.880192,103.71752 262.944192,103.621766 258.096096,105.156949 C255.168144,99.8797297 251.712,94.8426635 247.584096,90.2371142 L247.584096,0.959507432 L211.487952,65.0513514 C198.720096,59.8704622 184.415904,56.9439189 169.296048,56.9439189 C154.224,56.9439189 139.920048,59.8705101 127.151904,65.0513514 L91.008096,0.959507432 L91.008096,90.2371622 C86.927904,94.8426635 83.424,99.8797777 80.544144,105.156997 C75.696096,103.621814 71.760048,103.717568 70.176,105.92442 C68.303952,108.562886 70.320144,113.408204 74.736048,118.397297 C73.968192,120.795946 73.296096,123.194595 72.768192,125.689285 C66.480192,123.386678 61.248096,123.338657 59.280192,126.073165 C56.256192,130.246814 61.680192,139.265732 71.424048,146.749516 C71.472096,147.756757 71.520144,148.812306 71.615952,149.819834 C61.344192,150.971138 53.712048,154.760907 53.760096,159.318387 C53.760096,163.923889 61.536096,167.713657 71.952,168.768919 C47.376,189.733108 5.088048,258.622489 5.712048,299.639333 C5.232144,299.591312 4.752,299.639333 4.272096,299.783108 C1.680192,300.502799 0.191904,303.189285 0.960096,305.77973 C1.632144,308.27442 4.224048,309.761582 6.768192,309.137886 C6.912048,309.905597 7.152,310.72109 7.344192,311.488514 C4.944192,312.304246 3.552,314.894691 4.272144,317.389381 C4.991952,319.931805 7.68024,321.418967 10.272144,320.699516 C10.704,320.555453 11.136096,320.363657 11.520192,320.075868 C12.048048,320.79527 12.624,321.46694 13.2,322.090589 C12.048048,323.289913 11.520096,325.064913 12,326.791844 C12.720096,329.382576 15.408096,330.869739 18,330.101979 C19.344144,329.718387 20.351952,328.806901 20.976,327.655309 C21.744144,328.039189 22.608144,328.375 23.472096,328.710859 C23.184096,329.574324 23.136048,330.533832 23.424048,331.493387 C24.144144,334.083832 26.832144,335.570994 29.424048,334.851255 C31.344144,334.27558 32.639952,332.644691 32.880192,330.773649 C33.503904,330.82167 34.127952,330.917711 34.8,330.965445 L34.848048,330.965445 C34.896096,331.349324 34.944144,331.733156 35.039952,332.069015 C35.760048,334.659459 38.448048,336.146622 41.039952,335.427171 C43.391904,334.755501 44.832144,332.404874 44.448048,330.05391 C45.312,329.814093 46.127952,329.478234 46.944144,329.190445 C48,331.15748 50.351952,332.212742 52.560048,331.589093 C55.151952,330.82167 56.639952,328.183204 55.920096,325.592472 C55.727904,325.016796 55.439904,324.489189 55.103904,324.009555 C55.920096,323.193823 56.736048,322.37833 57.503904,321.466844 C58.608096,322.186534 60,322.426351 61.391904,322.04252 C63.984096,321.323117 65.424048,318.63663 64.703904,316.045898 C64.368144,314.942616 63.696096,314.031129 62.784096,313.407432 C65.184096,308.706177 68.448048,298.152075 71.903904,284.67167 C72.575952,286.494643 73.248048,288.269643 73.968144,289.996622 C79.824,304.436534 87.072048,317.341264 94.991856,326.6 C83.663904,331.876931 74.975952,341.855357 71.472048,354.040397 L155.039904,354.040397 C152.784048,346.125048 148.320096,339.12085 142.368144,333.747925 C148.175952,329.382528 154.368144,324.873021 168,324.873021 C181.584096,324.921042 187.391904,329.910135 192.624,334.707432 C187.2,339.93663 183.072048,346.556613 180.912,354.040397 L264.527952,354.040397 C261.215952,342.479054 253.2,332.93248 242.736048,327.463466 C250.896096,318.396526 257.808096,306.067424 263.184096,292.011391 C263.760096,290.572249 264.288,289.133108 264.815952,287.645994 C268.032144,299.687258 271.008144,309.042036 273.215952,313.40748 C272.303952,314.031129 271.584096,314.942664 271.296144,316.045946 C270.528,318.636678 272.015952,321.323165 274.608144,322.042568 C275.952,322.426447 277.391952,322.18663 278.496144,321.466892 C279.264,322.378378 280.032192,323.193871 280.896144,324.009603 C280.560096,324.489237 280.272144,325.016844 280.08024,325.59252 C279.360144,328.183252 280.848096,330.821718 283.391952,331.589141 C285.648096,332.21279 288.000048,331.157528 289.008144,329.190493 C289.824048,329.47833 290.688048,329.814141 291.552,330.053958 C291.168192,332.404874 292.608144,334.755501 294.960096,335.427219 C297.552,336.146622 300.191952,334.659507 300.960096,332.069063 C301.056192,331.733204 301.103952,331.349372 301.103952,330.965493 C301.152,330.965493 301.152,330.965493 301.200048,330.965493 C301.872096,330.917759 302.448096,330.821718 303.120144,330.773697 C303.312048,332.644691 304.656192,334.275628 306.576,334.851303 C309.120144,335.570994 311.808144,334.08388 312.576,331.493435 C312.815952,330.533928 312.815952,329.57442 312.527952,328.710907 C313.391904,328.375048 314.208144,328.039237 315.024048,327.655357 C315.600048,328.806949 316.656192,329.718435 318.000048,330.102027 C320.591952,330.869739 323.232192,329.382624 324.000048,326.791892 C324.48024,325.064913 323.952,323.289961 322.800048,322.090636 C323.376048,321.466988 323.952,320.79527 324.432192,320.075868 C324.816,320.363705 325.248096,320.555501 325.728,320.699516 C328.320192,321.418919 331.008192,319.931805 331.728,317.389381 C332.448096,314.894691 331.05624,312.304246 328.608192,311.488514 C328.848144,310.72109 329.040048,309.905597 329.232192,309.137886 C331.776048,309.761534 334.320192,308.27442 335.04,305.77973 C335.808096,303.189237 334.320096,300.502751 331.727952,299.78306 Z M208.608096,324.297489 C197.375952,315.614381 183.312,310.433204 168,310.433204 C153.072048,310.433204 139.296096,315.374276 128.208096,323.673793 C107.472048,315.806177 91.727952,302.133976 85.103904,285.631273 C82.896096,280.162258 81.744144,274.357432 81.744144,268.360811 C81.744144,238.61752 110.784096,213.719547 149.663952,207.339333 C139.391904,195.585907 132.575952,174.957576 132.575952,151.402703 C132.575952,114.799324 148.991856,85.152027 169.296048,85.152027 C189.599952,85.152027 206.063904,114.799276 206.063904,151.402703 C206.063904,174.957576 199.248,195.585907 188.975904,207.339333 C227.856096,213.719547 256.896,238.61752 256.896,268.360811 C256.896,275.220898 255.359952,281.841216 252.480096,288.077655 C245.136,303.860955 229.151952,316.861439 208.608096,324.297489 Z" id="Shape"></path>
            </g>
        </g>
    </g>
</svg>