<?xml version="1.0" encoding="UTF-8"?>
<svg width="600px" height="600px" viewBox="0 0 600 600" version="1.1" xmlns="http://www.w3.org/2000/svg" xmlns:xlink="http://www.w3.org/1999/xlink">
    <!-- Generator: Sketch 55.1 (78136) - https://sketchapp.com -->
    <title>monster32</title>
    <desc>Created with Sketch.</desc>
    <g id="monster32" stroke="none" stroke-width="1" fill="none" fill-rule="evenodd">
        <g id="noun_Monster_1510399" transform="translate(145.000000, 106.000000)" fill="#000000" fill-rule="nonzero">
            <path d="M255.044015,35.0580247 L238.233205,35.0580247 L222.383012,0.480246914 L206.532819,35.0580247 L206.532819,35.0580247 L105.667954,35.0580247 L89.8177606,0.480246914 L73.9675676,35.0580247 L73.9675676,35.0580247 L57.1567568,35.0580247 C25.9366795,35.0580247 0.48030888,60.5111111 0.48030888,91.7271605 L0.48030888,267.977778 C0.48030888,299.193827 25.9366795,324.646914 57.1567568,324.646914 L75.8888031,324.646914 L75.8888031,381.796296 C75.8888031,385.638272 78.7706564,388.519753 82.6131274,388.519753 L82.6131274,388.519753 C86.4555985,388.519753 89.3374517,385.638272 89.3374517,381.796296 L89.3374517,324.166667 L221.902703,324.166667 L221.902703,381.316049 C221.902703,385.158025 224.784556,388.039506 228.627027,388.039506 L228.627027,388.039506 C232.469498,388.039506 235.351351,385.158025 235.351351,381.316049 L235.351351,324.166667 L254.083398,324.166667 C285.303475,324.166667 310.759846,298.71358 310.759846,267.497531 L310.759846,91.2469136 C311.720463,60.5111111 286.264093,35.0580247 255.044015,35.0580247 Z M181.556757,84.5234568 C181.556757,94.608642 189.722008,102.77284 199.808494,102.77284 C209.894981,102.77284 218.060232,94.608642 218.060232,84.5234568 L234.390734,84.5234568 C234.390734,103.733333 219.020849,119.101235 199.808494,119.101235 C180.596139,119.101235 165.226255,103.733333 165.226255,84.5234568 L181.556757,84.5234568 L181.556757,84.5234568 Z M94.6208494,84.5234568 C94.6208494,94.608642 102.7861,102.77284 112.872587,102.77284 C122.959073,102.77284 131.124324,94.608642 131.124324,84.5234568 L147.454826,84.5234568 C147.454826,103.733333 132.084942,119.101235 112.872587,119.101235 C93.6602317,119.101235 78.2903475,103.733333 78.2903475,84.5234568 L94.6208494,84.5234568 L94.6208494,84.5234568 Z M278.579151,246.846914 C278.579151,261.734568 271.374517,274.701235 260.327413,282.385185 L254.563707,263.655556 L235.351351,269.418519 L242.075676,290.069136 C239.674131,290.549383 236.792278,290.549383 234.390734,290.549383 L221.902703,290.549383 L221.902703,256.932099 L201.72973,256.932099 L201.72973,290.549383 L170.509653,290.549383 L178.674903,257.412346 L151.297297,251.169136 L141.210811,291.02963 L116.715058,291.02963 L116.715058,267.977778 L96.5420849,267.977778 L96.5420849,291.02963 L77.8100386,291.02963 C76.369112,291.02963 74.4478764,291.02963 73.0069498,290.549383 L65.3220077,255.491358 L45.6293436,259.81358 L50.4324324,281.424691 C39.8656371,273.260494 33.1413127,260.774074 33.1413127,246.366667 L33.1413127,179.132099 C33.1413127,165.204938 39.3853282,152.718519 49.4718147,144.554321 L49.4718147,157.040741 L69.6447876,157.040741 L69.6447876,135.42963 C72.046332,134.949383 74.9281853,134.949383 77.3297297,134.949383 L82.6131274,134.949383 L80.211583,148.876543 L99.9042471,153.679012 L102.7861,134.949383 L123.439382,134.949383 L123.439382,157.040741 L151.777606,157.040741 L151.777606,134.949383 L192.123552,134.949383 L194.525097,155.6 L214.217761,151.758025 L212.296525,134.469136 L232.949807,134.469136 C235.351351,134.469136 237.752896,134.469136 240.15444,134.949383 L238.713514,149.35679 L258.406178,152.238272 L259.366795,143.11358 C270.4139,151.277778 277.138224,164.244444 277.138224,178.651852 L277.138224,246.846914 L278.579151,246.846914 Z" id="Shape"></path>
        </g>
    </g>
</svg>