<?xml version="1.0" encoding="UTF-8"?>
<svg width="600px" height="600px" viewBox="0 0 600 600" version="1.1" xmlns="http://www.w3.org/2000/svg" xmlns:xlink="http://www.w3.org/1999/xlink">
    <!-- Generator: Sketch 55.1 (78136) - https://sketchapp.com -->
    <title>monster6</title>
    <desc>Created with Sketch.</desc>
    <g id="monster6" stroke="none" stroke-width="1" fill="none" fill-rule="evenodd">
        <g id="noun_Monster_1731710" transform="translate(102.000000, 92.000000)" fill="#000000" fill-rule="nonzero">
            <g id="Group">
                <path d="M237.704525,170.022731 C234.430388,168.024528 233.385504,163.799081 235.340535,160.482932 C237.340495,157.214043 241.612215,156.077976 244.886351,158.07613 C248.205417,160.029444 249.250301,164.34467 247.29527,167.615929 C245.29531,170.93203 241.021169,172.020886 237.704525,170.022731 Z" id="Path"></path>
                <path d="M239.976285,186.329399 C236.113523,183.967487 233.021425,180.833217 230.839426,177.153358 C231.430424,177.609217 231.974169,178.062705 232.612419,178.516193 C240.612162,183.284908 250.978316,180.651386 255.751225,172.748402 C260.571434,164.753317 257.980477,154.443531 249.978361,149.627557 C243.43246,145.72093 235.385415,146.812156 230.02151,151.672971 C230.293358,151.127382 230.565206,150.492015 230.929284,149.946426 C238.43026,137.409347 254.751269,133.365779 267.299374,140.907375 C279.847479,148.446601 283.939532,164.753317 276.391303,177.290348 C268.845447,189.827379 252.524389,193.868625 239.976285,186.329399 Z" id="Path"></path>
                <path d="M148.643336,306.56288 C160.91722,322.869548 178.238185,336.086884 198.514185,336.086884 C218.610519,336.086884 235.976413,322.775126 248.342479,306.42589 C241.886387,282.395747 222.019394,264.865555 198.514185,264.865555 C174.966421,264.865555 155.054499,282.442958 148.643336,306.56288 Z M149.189405,245.696227 C150.643248,253.282713 154.052122,258.639535 158.099295,258.639535 C163.009314,258.639535 167.009185,250.87354 167.647484,240.745633 L167.692413,240.745633 C167.737341,240.065377 167.737341,239.337909 167.782222,238.610441 C187.195377,235.65805 209.790438,235.568272 229.20122,238.426192 C229.248521,239.290649 229.248521,240.107896 229.293402,240.882575 L229.338331,240.882575 C229.929328,251.100212 233.976501,258.960677 238.88652,258.960677 C242.93132,258.960677 246.387496,253.646374 247.79641,245.97011 C247.841339,245.97011 247.841339,245.97011 247.841339,246.012629 C247.886267,245.875639 247.886267,245.648871 247.93352,245.46941 C248.068258,244.515174 248.160488,243.608197 248.250297,242.654009 C264.162348,247.420353 275.07457,255.006839 275.07457,265.455985 C275.07457,289.892406 242.79421,341.901838 198.514185,341.901838 C153.690465,341.901838 121.956173,289.892406 121.956173,265.455985 C121.956173,255.191088 132.868396,247.647122 148.825327,242.743788 C148.915136,243.608246 148.962437,244.378233 149.097175,245.15296 C149.144476,245.332469 149.144476,245.511978 149.144476,245.696179 C149.189405,245.696227 149.189405,245.696227 149.189405,245.696227 Z" id="Shape"></path>
                <path d="M149.735473,167.615929 C147.733189,164.34467 148.780398,160.029444 152.099463,158.07613 C155.371227,156.077927 159.690248,157.214043 161.64528,160.482932 C163.64524,163.799081 162.555426,168.024528 159.28129,170.022731 C155.962273,172.020886 151.688132,170.93203 149.735473,167.615929 Z" id="Path"></path>
                <path d="M157.007158,186.329399 C144.461425,193.868625 128.185297,189.827379 120.63944,177.290348 C113.091211,164.753269 117.138384,148.446601 129.686441,140.907375 C142.232173,133.365779 158.553182,137.409395 166.101411,149.946426 C166.418188,150.492015 166.692408,151.127382 166.964257,151.672971 C161.600351,146.812156 153.553306,145.72093 147.007405,149.627557 C139.00529,154.443531 136.459261,164.753269 141.232169,172.748402 C146.00745,180.651386 156.371183,183.284908 164.373347,178.516193 C165.009274,178.062705 165.555342,177.609217 166.14634,177.153358 C163.964389,180.833217 160.917172,183.967487 157.007158,186.329399 Z" id="Path"></path>
                <path d="M193.968197,163.572313 C193.968197,140.907327 175.557418,122.555245 152.825198,122.555245 C130.14028,122.555245 111.727129,140.907375 111.727129,163.572313 C111.727129,186.329399 130.14028,204.679159 152.825198,204.679159 C175.557418,204.679159 193.968197,186.329399 193.968197,163.572313 Z M244.158195,122.555245 C221.428396,122.555245 203.062498,140.907375 203.062498,163.572313 C203.062498,186.329399 221.428396,204.679159 244.158195,204.679159 C266.845487,204.679159 285.256265,186.329399 285.256265,163.572313 C285.256265,140.907327 266.845487,122.555245 244.158195,122.555245 Z M75.9031562,133.547609 C76.2223055,131.414787 67.9482929,111.744759 70.8583998,104.342474 C72.1302522,104.706233 73.4493573,105.159721 74.8133428,105.70531 C78.8132146,107.113034 82.7232773,108.70259 86.5411101,110.292145 C80.586207,102.79776 74.9480807,94.531066 69.6763565,85.6290047 C69.7212852,85.6290047 69.7212852,85.6290047 69.7212852,85.6290047 C68.8560673,84.3110586 68.0854032,82.9931126 67.4944057,81.6302772 C74.903152,76.9536633 97.8173626,81.949146 99.9520606,81.1767888 C95.3162626,77.0883312 78.4042562,77.1804316 74.2672257,77.1331721 C100.954389,69.2750772 124.093146,80.6760409 135.686224,80.4493209 C131.731281,76.9536633 126.821263,72.3644577 105.727297,70.548134 C133.459345,65.3708205 161.009353,73.954013 180.240469,84.4480484 C177.966289,78.0874084 176.512445,76.1813544 171.602427,70.1844242 C177.829178,73.0919256 183.921192,78.0874084 189.422208,83.62848 C191.1952,79.8140019 193.060374,75.9073749 195.060334,72.0480074 C205.015109,52.8337898 218.154211,35.6626642 229.383211,24.4435312 C234.884227,18.8127293 239.976285,14.6321228 243.567198,11.7718326 C245.34019,10.319267 246.886263,9.31781953 247.84129,8.63756279 C248.841246,7.95730605 249.387363,7.54633674 249.387363,7.54633674 C253.160316,5.00491535 255.479377,4.27744744 255.933264,4.95765581 C256.434452,5.64023442 255.160227,7.54633674 252.34235,10.8175963 C252.34235,10.8175963 251.978272,11.3183442 251.250165,12.2701619 C250.524429,13.2243981 249.387315,14.4974549 248.16044,16.3137786 C245.56953,19.8117581 242.023546,24.8521302 238.522441,31.3946009 C232.657347,41.931107 226.884483,56.0129005 222.83731,71.0016223 C223.338499,70.774854 223.837266,70.4111442 224.338455,70.1843758 C223.610347,71.0464633 223.019349,71.86608 222.428352,72.5911777 C221.655315,75.4538381 220.974509,78.4511181 220.383511,81.4035088 C220.33621,81.6302772 220.29133,81.8569972 220.246401,82.0860874 C239.113439,72.6832781 264.571306,65.73216 290.211212,70.548134 C269.117295,72.3644577 264.207276,76.9536633 260.207356,80.4493209 C271.845314,80.6760893 294.986444,69.2750772 321.671235,77.1331721 C317.534253,77.1804316 300.622198,77.0882828 295.9864,81.1767888 C298.12347,81.949146 321.035309,76.9536633 328.446427,81.6302772 C327.810501,82.9931126 327.082393,84.3110586 326.217175,85.6290047 C326.217175,85.6290047 326.217175,85.6290047 326.264477,85.6290047 C320.99038,94.4861767 315.352254,102.797808 309.35247,110.292145 C313.170303,108.70259 317.125295,107.112986 321.127539,105.70531 C322.444271,105.159721 323.763377,104.706233 325.035229,104.342474 C327.990216,111.744711 319.716252,131.414787 319.990473,133.547609 C324.444232,130.051952 327.219552,114.87898 327.945336,111.246381 C330.309326,133.866478 319.125255,151.309261 315.57927,162.209477 C316.170267,162.573235 316.761265,162.981834 317.352262,163.435323 C320.671328,160.348313 324.581342,154.94186 328.628515,140.453838 C328.628515,150.217987 326.855522,159.531066 323.945416,168.296138 C364.679407,199.773407 404.732592,258.549756 389.593578,277.898593 C376.180303,295.069767 357.951516,272.905529 324.94542,246.102456 C326.855522,257.822288 327.945336,269.72637 327.945336,281.351732 C327.945336,329.818296 310.307546,379.328826 282.483317,400.586087 C276.256565,405.399691 269.481325,408.715792 262.299498,410.350236 C243.34023,414.573362 221.383467,377.647122 197.970441,377.647122 C175.874195,377.647122 155.099379,414.667833 136.913148,411.030493 C95.90726,402.85827 67.9932217,342.355327 67.9932217,281.351732 C67.9932217,269.995609 68.9931776,258.507237 70.8110987,247.103903 C38.5803632,273.401488 20.668401,294.842999 7.39218841,277.898593 C-7.60971537,258.734006 31.8051709,200.545764 72.2224337,168.978716 C69.175265,159.984506 67.3124151,150.444755 67.3124151,140.453838 C71.5392548,155.57718 75.631308,160.846642 79.0401824,163.846292 C79.5413707,163.482534 80.0401383,163.118824 80.5413266,162.844845 C77.2222613,151.94458 65.5843032,134.319967 67.9932217,111.246381 C68.7213778,114.87898 71.494326,130.051952 75.9031562,133.547609 Z M198.514185,360.702765 C254.569278,360.702765 295.395451,289.665686 295.395451,256.324833 C295.395451,202.907676 101.590363,203.724923 101.590363,256.324833 C101.590363,289.665686 141.778286,360.702765 198.514185,360.702765 Z" id="Shape"></path>
            </g>
        </g>
    </g>
</svg>