<?xml version="1.0" encoding="UTF-8"?>
<svg width="600px" height="600px" viewBox="0 0 600 600" version="1.1" xmlns="http://www.w3.org/2000/svg" xmlns:xlink="http://www.w3.org/1999/xlink">
    <!-- Generator: Sketch 55.1 (78136) - https://sketchapp.com -->
    <title>monster7</title>
    <desc>Created with Sketch.</desc>
    <g id="monster7" stroke="none" stroke-width="1" fill="none" fill-rule="evenodd">
        <g id="noun_Monster_2140416" transform="translate(142.000000, 123.000000)" fill="#000000" fill-rule="nonzero">
            <g id="Group">
                <path d="M308.218104,144.059373 C310.142182,145.020099 312.065307,145.980843 313.988762,146.94221 C309.808024,126.012009 299.54343,106.552041 284.788088,91.4673657 C287.411447,91.1442203 290.036089,90.8310575 292.662636,90.5410628 C292.670038,90.5404224 292.677477,90.5394523 292.684219,90.5381715 C293.230767,90.6997444 293.784022,90.8403906 294.307668,91.0615033 C294.181025,90.8355593 294.034742,90.6221697 293.905828,90.3981657 C301.479417,89.5027626 307.843015,88.0402533 310.432515,80.359836 C312.136214,75.3063995 311.864241,69.3327814 310.907827,63.7057968 C310.440906,60.9603769 309.813814,58.2970336 309.168069,55.8650969 C304.807188,39.4386031 299.171565,23.2187462 291.814506,7.90715774 C294.245813,12.967356 292.63977,45.9355622 289.524353,54.5059017 C288.687509,56.8078062 285.129649,58.2104553 279.963511,59.0315046 C262.569382,48.055297 243.012347,40.4131822 222.60011,36.6793484 C226.460523,34.0205068 230.321284,31.3616657 234.181385,28.7028241 C220.956049,26.2824759 207.634669,21.03142 194.3481,20.6760933 C215.701599,15.2203352 228.936609,14.0623051 210.608621,6.50258249 C187.041005,-3.21839114 165.391036,9.02527918 156.139874,15.6599888 C146.000952,11.0548943 132.747565,-0.142426 122.145258,0.224489527 C125.061514,2.21805343 127.131253,5.33747057 127.960053,8.80320125 C115.509705,7.21066453 74.952028,2.97151503 57.5427377,12.6763961 C57.5427377,12.6763961 51.285491,14.5994767 61.8745965,17.0037344 C69.1994175,18.6664344 83.6576482,22.407671 94.1101171,31.5531685 C77.873451,32.3652094 60.6645863,39.5116669 45.4774564,45.646858 C47.7121854,47.3153547 66.4294451,53.0479038 68.8153129,51.4328346 C64.4834445,54.1190347 60.2733911,57.0034999 56.1542061,60.0154168 C40.8568687,60.2091705 27.7269084,59.2410332 26.0051891,54.5059017 C22.8894509,45.9355622 21.2834175,12.967356 23.7150265,7.90715774 C16.3573451,23.2187462 10.7220236,39.4386031 6.36116071,55.8650969 C5.71603929,58.2970336 5.0886401,60.9603769 4.62203531,63.7057968 C3.66498445,69.3327809 3.39333659,75.3063995 5.09669238,80.359836 C7.82735055,88.4580202 14.7503356,89.6440584 22.866575,90.5410628 C22.8707618,90.5413924 22.8749573,90.5420328 22.8791441,90.5423528 C20.7320589,93.0061502 18.6304171,95.5088906 16.6054672,98.0731107 C15.6806403,99.2456254 16.8825934,100.829145 18.235997,100.215684 L29.8456302,94.9552993 C31.1497336,94.3646958 32.3619973,95.8375078 31.5277187,97.0090525 C18.3568355,115.508606 8.64035709,136.409856 3.06078533,158.242203 C2.69697692,159.66448 4.42289207,160.577918 5.42698909,159.491011 C10.4622978,154.042006 16.0164154,149.080629 21.9517337,144.641595 C19.6454751,152.631003 17.1046159,170.295984 26.2555601,198.732484 C26.2555601,198.732484 29.0300401,192.337228 34.2277652,184.675486 C34.0688944,192.237456 34.7958695,199.708015 36.3084605,206.918217 C35.3607587,210.877986 34.4446259,214.843244 33.5861803,218.814286 C28.2653674,243.428104 14.8734325,287.496429 39.7064786,306.061324 C47.8136902,312.122509 58.9950669,312.665477 66.9024946,306.172699 C72.2194414,301.807068 79.7269707,290.854339 70.5927775,286.292383 C59.3537227,280.679554 44.7498401,268.3139 48.0402246,232.520449 C49.1032918,229.855825 49.1757921,226.697131 49.1783757,223.503062 C49.369457,222.298669 49.5705422,221.080459 49.798359,219.829729 C50.3203927,216.961679 50.8098676,214.274839 51.2680944,211.755353 C55.4620337,240.600608 82.2871645,261.219576 100.867485,279.778377 C98.7999813,271.518272 98.7999813,265.32291 98.7999813,257.062824 C107.475315,269.193849 117.593625,278.441069 126.737493,289.636751 L126.737493,337.483672 C123.476103,336.655221 119.945323,336.186588 116.24118,336.186588 C100.44309,336.186588 87.593476,344.441202 86.9200009,354.784314 L145.562047,354.784314 C145.194065,349.137044 141.180242,344.124828 135.054795,340.726364 L135.054795,284.069343 C138.788914,291.603624 142.218171,299.289834 142.218171,308.688616 C152.555613,298.363842 158.758067,283.908411 164.960211,269.452944 C173.230809,283.908411 167.027696,298.363842 169.09518,312.818979 C173.542414,310.598502 177.290695,307.778728 180.604285,304.576296 L180.604285,340.726364 C174.478838,344.124828 170.464702,349.137044 170.096703,354.784314 L228.739078,354.784314 C228.065283,344.441203 215.215989,336.186588 199.417899,336.186588 C195.713756,336.186588 192.182976,336.655221 188.921604,337.483672 L188.921604,294.582061 C196.020211,284.221235 201.155403,272.013952 208.378399,261.192876 C210.445884,267.387927 206.310914,273.583307 210.445884,279.778377 C220.783968,265.32291 222.850811,246.737738 239.390708,236.411994 C241.458505,244.672721 237.323205,252.93279 237.323205,261.192876 C247.719296,249.078906 252.31765,234.072766 259.615089,221.019299 C259.944081,230.397823 259.983071,241.574216 258.742444,247.770567 C257.980025,251.578114 263.36207,248.887723 270.824188,241.308369 C271.139328,270.400493 258.073504,281.166193 247.809515,286.292382 C238.67468,290.854339 246.182218,301.807067 251.499166,306.172698 C259.406914,312.665476 270.587979,312.122508 278.695511,306.061323 C302.294677,288.418541 291.376901,247.756092 285.667146,222.634039 C298.265096,203.499147 310.133791,175.660972 308.218104,144.059373 Z M158.968496,60.9436411 C191.124746,60.9436411 217.192615,86.979745 217.192615,119.098253 C217.192615,123.377635 216.716331,127.543392 215.838556,131.559507 L102.098748,131.559507 C101.220002,127.543392 100.744378,123.377635 100.744378,119.098253 C100.744378,86.979745 126.812246,60.9436411 158.968496,60.9436411 Z M246.74839,160.776493 L232.143216,214.331477 C231.333104,217.30221 230.880035,217.248132 231.136544,214.210476 L234.09824,179.13218 L224.048894,206.719952 C223.32966,208.69323 222.41579,208.643673 222.017815,206.610846 L216.033833,176.056862 L204.863413,206.719952 C204.14482,208.69323 203.23095,208.643673 202.832334,206.610846 L196.848352,176.056862 L185.677932,206.719952 C184.959339,208.69323 184.045469,208.643673 183.646853,206.610846 L177.662871,176.056862 L166.49245,206.719952 C165.773858,208.69323 164.859987,208.643673 164.462031,206.610846 L159.082569,179.145063 L153.703419,206.610846 C153.305133,208.643673 152.391263,208.69323 151.67267,206.719952 L140.502249,176.056862 L134.518267,206.610846 C134.11967,208.643673 133.2058,208.69323 132.487207,206.719952 L121.316768,176.056862 L115.332787,206.610846 C114.934831,208.643673 114.020961,208.69323 113.302038,206.719952 L102.131306,176.056862 L96.1476355,206.610846 C95.7493495,208.643673 94.8354793,208.69323 94.1165661,206.719952 L84.5624945,180.494267 L87.4097957,214.210477 C87.6666257,217.248133 87.2129156,217.30221 86.4031242,214.331478 L71.79828,160.776494 C71.1028829,158.227087 72.5065579,155.841176 75.0029449,154.964759 L243.543386,154.964759 C246.039782,155.841176 247.443457,158.227087 246.74839,160.776493 Z" id="Shape"></path>
                <path d="M158.968496,117.021011 C140.997533,117.021011 124.702218,120.18935 112.729106,125.328715 L205.208217,125.328715 C193.234445,120.189349 176.939771,117.021011 158.968496,117.021011 Z" id="Path"></path>
                <path d="M159.502439,106.697198 C173.39644,106.697198 186.061084,109.623177 195.627385,114.426541 C195.942544,112.481253 196.15006,110.499594 196.15006,108.465147 C196.15006,87.9549645 179.50351,71.3282752 158.968496,71.3282752 C138.433794,71.3282752 121.786603,87.9549645 121.786603,108.465147 C121.786603,110.679503 122.017003,112.83625 122.388539,114.944081 C132.062812,109.836247 145.120263,106.697198 159.502439,106.697198 Z M158.968496,80.1705927 C164.346987,80.1705927 168.706879,84.5252803 168.706879,89.8970314 C168.706879,95.268462 164.346987,99.6231588 158.968496,99.6231588 C153.590316,99.6231588 149.230425,95.268462 149.230425,89.8970314 C149.230425,84.5252803 153.590316,80.1705927 158.968496,80.1705927 Z" id="Shape"></path>
                <ellipse id="Oval" cx="158.968496" cy="90.0151596" rx="5.31179129" ry="5.30545101"></ellipse>
            </g>
        </g>
    </g>
</svg>