<?xml version="1.0" encoding="UTF-8"?>
<svg width="600px" height="600px" viewBox="0 0 600 600" version="1.1" xmlns="http://www.w3.org/2000/svg" xmlns:xlink="http://www.w3.org/1999/xlink">
    <!-- Generator: Sketch 55.1 (78136) - https://sketchapp.com -->
    <title>monster5</title>
    <desc>Created with Sketch.</desc>
    <g id="monster5" stroke="none" stroke-width="1" fill="none" fill-rule="evenodd">
        <g id="noun_Monster_1731715" transform="translate(131.000000, 107.000000)" fill="#000000" fill-rule="nonzero">
            <g id="Group">
                <path d="M19.555893,382.169563 C-14.7035439,368.311335 1.68366771,243.24261 38.7381596,190.547383 C39.3103916,181.595154 40.3934481,172.869707 42.0486883,164.427738 C40.5069163,162.604242 38.8516277,160.664985 37.082871,158.553271 C35.3708241,156.273889 33.5973214,153.992138 31.7150481,151.311195 C30.63204,149.714433 29.4307693,148.060976 28.2910029,146.407566 C26.976264,144.5817 25.8364491,142.585748 24.748695,140.646491 C20.3551097,132.77612 16.8128503,123.993978 16.5290589,114.812645 C15.9000686,105.688007 18.7565794,96.0484174 24.8621631,88.8630367 C28.0639213,85.2703222 31.1427677,81.6776561 34.7985437,78.5408276 C38.6813529,74.8347705 40.6771427,73.5214376 43.4768953,71.2987515 L47.1894296,68.4477225 L49.4737084,67.1910851 C51.0107344,66.2793131 52.670769,65.310894 54.3260091,64.283409 C55.9812977,63.142533 57.7500544,62.001657 59.405343,60.6340474 C60.947115,59.2640674 62.488887,57.5539144 62.77263,55.6146574 C63.1178773,53.6754004 62.3753704,52.0219429 61.4058304,50.5385719 C60.4883511,48.9418099 59.5755694,47.4017434 58.719546,45.8616769 C57.750006,44.2649149 56.7805144,42.6681529 55.7495186,41.0714392 C54.7799786,39.4746772 53.810487,37.9346107 52.4389899,35.8820111 C47.2461394,28.2407445 42.73434,21.9104404 39.5373279,17.5193449 C36.2267991,13.0692319 34.4012357,10.5606979 34.4012357,10.5606979 C28.002417,1.72185975 29.7759197,-0.10400625 38.5110296,6.62548837 C38.5110296,6.62548837 40.908825,8.56474537 45.245652,11.9306779 C49.6439349,15.2375445 55.749567,20.084526 63.1178773,26.2447436 C64.886634,27.6123532 67.0574447,29.6083057 69.3417236,31.7200196 C71.5077883,33.8860102 73.848777,36.1677622 76.3033307,38.4495142 C78.762582,40.9013527 81.3306523,43.3531429 83.8986741,45.9206944 C86.8687016,48.4858755 88.6375067,51.509313 89.3800136,55.2154185 C90.51978,62.7999896 86.86875,69.2460551 82.5839353,75.9755497 C80.2428981,79.3391119 77.618118,82.7050444 74.7048489,86.125302 L70.3680219,91.3147301 L67.5682209,95.0231576 C66.0264489,97.2458437 63.6854117,100.382672 63.4016687,101.296815 C62.7726784,102.607777 62.2619023,103.918691 61.8031384,105.059567 C60.947115,107.168911 61.4058789,109.564005 62.488887,111.446567 C84.6979393,75.6897019 121.638915,52.6501406 170.166813,52.6501406 C218.75147,52.6501406 255.692445,75.6897019 277.901449,111.446567 C278.984457,109.564005 279.386463,107.168862 278.530439,105.059567 C278.071675,103.918691 277.617657,102.607729 276.931909,101.296815 C276.704876,100.382721 274.363887,97.2458921 272.878873,95.0231576 L270.022362,91.3147301 L265.628777,86.125302 C262.715508,82.7050444 260.090728,79.3391119 257.749691,75.9755497 C253.464876,69.2460551 249.870604,62.7999896 250.953612,55.2154185 C251.696119,51.5093614 253.464876,48.4859239 256.434952,45.9206944 C259.002974,43.3531429 261.627802,40.8446089 264.087054,38.4495142 C266.484849,36.1677622 268.825886,33.8860102 271.105419,31.7200196 C273.33294,29.6083541 275.56046,27.5557061 277.272507,26.2447436 C284.579361,20.0844776 290.803208,15.2375445 295.087974,11.9306779 C299.424801,8.56474537 301.879306,6.62548837 301.879306,6.62548837 C310.614416,-0.10400625 312.387919,1.72185975 305.9891,10.5606979 C305.9891,10.5606979 304.106827,13.0691835 300.909766,17.5193449 C297.599238,21.910392 293.087438,28.2407445 287.951346,35.8820111 C286.523091,37.9346591 285.553551,39.4747256 284.579313,41.0714392 C283.609773,42.6115057 282.640281,44.2649632 281.670741,45.8616769 C280.814718,47.4017434 279.84048,48.9418099 278.927699,50.5385719 C278.014917,52.0219429 277.27241,53.6754004 277.560899,55.6146574 C277.9014,57.5539144 279.499931,59.264019 280.984944,60.6340474 C282.583475,62.001657 284.352231,63.142533 286.00752,64.283409 C287.776277,65.310894 289.318049,66.2793615 290.916579,67.1910851 L293.1441,68.4477225 L296.913392,71.2987515 C299.713193,73.5214376 301.708935,74.8347705 305.534985,78.5408276 C309.190761,81.6776561 312.269608,85.2703222 315.584883,88.8630367 C321.57695,96.0484174 324.433509,105.688007 323.861229,114.812644 C323.577486,123.993978 320.035178,132.77612 315.584883,140.646491 C314.497128,142.585748 313.357362,144.5817 312.042575,146.407566 C310.959567,148.061024 309.758296,149.714433 308.675288,151.311195 C306.788268,153.992137 305.019512,156.273889 303.250707,158.496576 C301.53866,160.664937 299.88342,162.604194 298.398406,164.427689 C300.110453,173.552327 301.254917,182.962764 301.708935,192.715744 C337.793886,246.495151 353.320377,368.538068 319.467643,382.169514 C294.917554,392.092533 288.575493,359.186649 270.935047,311.850985 C270.306057,312.762757 269.681764,313.617786 269.052774,314.475232 C269.052774,314.702014 269.109532,314.815357 269.109532,315.044509 C269.109532,315.273662 269.109532,315.500395 269.109532,315.786195 C269.223049,317.838843 269.052774,320.063899 268.939257,322.343281 C268.939257,322.629081 268.939257,322.858233 268.939257,323.084967 C268.939257,323.084967 268.939257,323.144032 268.825741,323.144032 C267.454244,340.309127 261.060123,361.352736 256.378097,369.678993 C248.612478,383.593868 231.028742,388.556562 217.152843,380.799583 C213.501764,378.80363 210.474978,376.065992 208.13399,372.872517 C207.504999,372.01744 207.050982,371.162364 206.478701,370.25064 C206.019937,369.393193 205.452451,368.481469 205.050446,367.569697 C204.709944,366.771316 204.364697,365.91624 204.080906,365.117859 C193.515535,368.424726 182.212355,370.25064 170.166716,370.25064 C158.518337,370.25064 147.555658,368.538165 137.278776,365.401336 C136.995033,366.086326 136.824759,366.828012 136.422753,367.513002 C135.968735,368.481469 135.509971,369.452259 134.880981,370.364031 C134.370205,371.219107 133.911441,372.130831 133.339209,372.929212 C133.339209,372.929212 133.282451,372.929212 133.282451,372.872517 C130.941414,376.066041 127.976132,378.80363 124.320308,380.799583 C110.38765,388.556611 92.8606719,383.593916 85.0382953,369.678993 C80.4177253,361.352736 73.9621483,340.309127 72.652107,323.144032 C72.652107,323.144032 72.652107,323.084967 72.5385904,323.084967 C72.5385904,322.858185 72.5385904,322.629081 72.5385904,322.459042 C72.363618,320.17729 72.3068597,318.0113 72.3068597,315.956281 C71.0535767,314.189481 69.852306,312.363567 68.6557813,310.540071 C50.556765,358.558451 44.3329671,392.205972 19.555893,382.169563 Z M169.996587,290.691712 C169.764856,290.691712 169.594581,290.691712 169.367596,290.691712 C87.7247734,289.723245 71.853084,216.839535 66.1447599,186.156336 C66.1447599,220.602287 72.0233589,338.313175 169.367596,338.140955 C169.594629,338.140955 169.82636,338.140955 170.053345,338.140955 C266.768592,337.401451 274.53421,216.267887 272.703949,185.929603 C267.908358,221.629772 251.180646,291.376702 169.996587,290.691712 Z M243.476532,172.298157 C243.476532,131.521902 210.361607,98.4436088 169.594581,98.4436088 C128.662026,98.4436088 95.5471016,131.521902 95.5471016,172.298157 C95.5471016,213.074412 128.662026,246.152705 169.594581,246.152705 C210.361607,246.152705 243.476532,213.074412 243.476532,172.298157 Z" id="Shape"></path>
                <path d="M186.152067,154.504719 C186.152067,145.323386 178.674938,137.852206 169.481113,137.852206 C160.348743,137.852206 152.866917,145.323386 152.866917,154.504719 C152.866917,163.686052 160.348743,171.100537 169.481113,171.100537 C178.674938,171.100537 186.152067,163.686052 186.152067,154.504719 Z M143.791257,142.41571 C143.791257,144.924195 145.787047,146.920148 148.29831,146.920148 C150.81432,146.920148 152.866868,144.924195 152.866868,142.41571 C152.866868,139.904854 150.81432,137.852206 148.29831,137.852206 C145.787047,137.852206 143.791257,139.904854 143.791257,142.41571 Z M129.631566,154.504719 C129.631566,132.490321 147.499045,114.696932 169.481113,114.696932 C191.51989,114.696932 209.38737,132.490321 209.38737,154.504719 C209.38737,176.462422 191.51989,194.312506 169.481113,194.312506 C147.499045,194.312506 129.631566,176.46247 129.631566,154.504719 Z M134.025103,158.839119 C134.025103,163.629357 137.851154,167.39448 142.589938,167.39448 C147.328722,167.39448 151.211531,163.629357 151.211531,158.839119 C151.211531,154.105528 147.328722,150.227063 142.589938,150.227063 C137.851154,150.227063 134.025103,154.105577 134.025103,158.839119 Z" id="Shape"></path>
                <path d="M202.25079,315.214596 C202.25079,324.681729 187.807356,332.325366 169.996587,332.325366 C152.18112,332.325366 137.851154,324.681729 137.851154,315.214596 C137.851154,305.690768 152.181071,298.049501 169.996587,298.049501 C187.807308,298.049501 202.25079,305.690768 202.25079,315.214596 Z" id="Path"></path>
            </g>
        </g>
    </g>
</svg>