<?xml version="1.0" encoding="UTF-8"?>
<svg width="600px" height="600px" viewBox="0 0 600 600" version="1.1" xmlns="http://www.w3.org/2000/svg" xmlns:xlink="http://www.w3.org/1999/xlink">
    <!-- Generator: Sketch 55.1 (78136) - https://sketchapp.com -->
    <title>monster19</title>
    <desc>Created with Sketch.</desc>
    <g id="monster19" stroke="none" stroke-width="1" fill="none" fill-rule="evenodd">
        <g id="noun_Monster_2236362" transform="translate(165.000000, 127.000000)" fill="#000000" fill-rule="nonzero">
            <g id="Group">
                <path d="M259.280892,204.004952 C250.641,192.975986 237.789,185.785889 224.073162,181.460673 C218.349162,169.080469 209.439054,158.105619 198.261,149.401665 L198.261,135.724014 C209.979216,128.533594 217.053216,119.288798 217.053216,109.179165 C217.053216,101.178023 212.625162,93.7173438 204.956946,87.3921394 L222.182946,3.97375594 C181.899162,5.97406844 163.755216,42.6823438 155.871108,68.8487559 C149.282946,67.9294772 142.371108,67.4971934 135.189,67.4971934 C135.134946,67.4971934 135.027162,67.4971934 134.973108,67.4971934 C127.791,67.4971934 120.771108,67.9294772 114.129162,68.8487559 C106.245054,42.6823438 88.101108,5.97406844 47.817,3.97375594 L65.043,87.3921394 C57.375108,93.7173438 52.947054,101.178023 52.947054,109.179165 C52.947054,119.288852 60.021054,128.533648 71.738946,135.724014 L71.738946,149.401665 C60.560892,158.105673 51.651108,169.026352 45.980838,181.406557 C32.210892,185.731827 19.358892,192.921869 10.719,203.896719 C-2.294838,220.548077 0.458892,241.416094 0.458892,261.311094 C0.458892,276.718798 0.458892,292.126773 0.458892,307.588594 C0.458892,319.752656 19.305162,319.752656 19.305162,307.588594 C19.305162,297.749165 19.305162,287.963906 19.305162,278.178594 C19.305162,260.554165 14.121054,234.33396 23.355162,218.709844 C27.027108,212.546665 32.805162,207.789111 39.447054,204.221148 C39.069,207.248648 38.906838,210.33021 38.906838,213.411827 L38.906838,318.995727 L13.365,342.026352 L104.355216,342.026352 L104.355216,294.127031 C114.021108,296.992182 124.280892,298.56021 134.973108,298.56021 C145.719054,298.56021 155.979162,296.992182 165.591,294.127031 L165.591,342.026352 L256.580838,342.026352 L231.093,318.995673 L231.093,213.411773 C231.093,210.330156 230.877108,207.30271 230.553108,204.329327 C237.195,207.89729 242.973,212.600727 246.645,218.818023 C255.879108,234.388023 250.640946,260.662344 250.640946,278.232656 C250.640946,288.017969 250.640946,297.857344 250.640946,307.642656 C250.640946,319.806719 269.540946,319.806719 269.540946,307.642656 C269.540946,292.234627 269.540946,276.772861 269.540946,261.365156 C269.541,241.47021 272.295054,220.601815 259.280892,204.004952 Z M209.925162,23.2198978 L196.047108,79.3367728 L175.634946,68.0375481 C175.634946,68.0376022 184.599108,31.7615566 209.925162,23.2198978 Z M134.973108,77.1200481 C162.080892,77.1200481 184.058946,90.1492728 184.058946,106.25979 L184.058946,149.401557 L184.058946,151.996773 L165.537,151.996773 C165.429216,163.782344 151.821108,173.35119 134.973162,173.35119 C118.179216,173.35119 104.571162,163.782344 104.409,151.996773 L85.941,151.996773 L85.941,149.401557 L85.941,106.259844 C85.941,90.1493269 107.919054,77.1200481 134.973108,77.1200481 Z M60.075108,23.2198978 C85.401108,31.7615566 94.365,68.0376022 94.365,68.0376022 L73.953162,79.3368269 L60.075108,23.2198978 Z M134.973108,242.443281 C103.653162,242.443281 77.463,220.601815 70.605216,191.354165 C87.723108,201.517915 110.295108,207.681148 134.973108,207.681148 C159.705216,207.681148 182.277162,201.517969 199.395054,191.354165 C192.536946,220.601815 166.347108,242.443281 134.973108,242.443281 Z" id="Shape"></path>
                <path d="M134.973108,128.749682 C152.847108,128.749682 167.319054,120.153906 167.319054,109.557548 C167.319054,98.96119 152.847108,90.3654688 134.973108,90.3654688 C117.153162,90.3654688 102.680892,98.9612441 102.680892,109.557602 C102.680892,120.15396 117.153162,128.749682 134.973108,128.749682 Z M134.973108,98.636815 C142.101162,98.636815 147.825108,102.042752 147.825108,106.25979 C147.825108,110.476502 142.101108,113.88244 134.973108,113.88244 C127.899108,113.88244 122.121108,110.476502 122.121108,106.25979 C122.121108,102.042807 127.899108,98.636815 134.973108,98.636815 Z" id="Shape"></path>
            </g>
        </g>
    </g>
</svg>