<?xml version="1.0" encoding="UTF-8"?>
<svg width="600px" height="600px" viewBox="0 0 600 600" version="1.1" xmlns="http://www.w3.org/2000/svg" xmlns:xlink="http://www.w3.org/1999/xlink">
    <!-- Generator: Sketch 55.1 (78136) - https://sketchapp.com -->
    <title>monster38</title>
    <desc>Created with Sketch.</desc>
    <g id="monster38" stroke="none" stroke-width="1" fill="none" fill-rule="evenodd">
        <g id="noun_Monster_1510405" transform="translate(103.000000, 118.000000)" fill="#000000" fill-rule="nonzero">
            <g id="Group">
                <path d="M386.312195,168.092105 L354.6,168.092105 C342.107317,153.684211 329.614634,142.638158 317.121951,130.151316 C317.121951,130.151316 317.121951,130.151316 317.121951,130.151316 C316.641463,129.671053 315.680488,129.190789 314.719512,129.190789 C314.719512,129.190789 314.719512,129.190789 314.719512,129.190789 C314.719512,129.190789 314.719512,129.190789 314.719512,129.190789 C314.719512,129.190789 314.719512,129.190789 314.719512,129.190789 C314.719512,129.190789 314.719512,129.190789 314.719512,129.190789 C314.719512,129.190789 314.719512,129.190789 314.719512,129.190789 C314.719512,129.190789 314.719512,129.190789 314.719512,129.190789 C314.719512,129.190789 314.719512,129.190789 314.719512,129.190789 C314.719512,129.190789 314.719512,129.190789 314.719512,129.190789 C314.719512,129.190789 314.719512,129.190789 314.719512,129.190789 C314.719512,129.190789 314.719512,129.190789 314.719512,129.190789 C314.719512,129.190789 314.719512,129.190789 314.719512,129.190789 C314.719512,129.190789 314.719512,129.190789 314.719512,129.190789 C314.719512,129.190789 314.239024,129.190789 314.239024,129.190789 C313.758537,129.190789 313.278049,129.190789 312.797561,129.190789 C312.797561,129.190789 312.797561,129.190789 312.797561,129.190789 C312.797561,129.190789 312.797561,129.190789 312.797561,129.190789 C312.797561,129.190789 312.797561,129.190789 312.797561,129.190789 C312.797561,129.190789 312.797561,129.190789 312.797561,129.190789 C312.797561,129.190789 312.797561,129.190789 312.797561,129.190789 C312.797561,129.190789 312.797561,129.190789 312.797561,129.190789 C312.797561,129.190789 312.797561,129.190789 312.797561,129.190789 C312.797561,129.190789 312.797561,129.190789 312.797561,129.190789 L312.797561,129.190789 C312.797561,129.190789 312.797561,129.190789 312.797561,129.190789 C312.797561,129.190789 312.797561,129.190789 312.797561,129.190789 C312.797561,129.190789 312.797561,129.190789 312.797561,129.190789 C312.797561,129.190789 312.797561,128.710526 312.797561,128.710526 C312.797561,128.710526 312.797561,128.710526 312.797561,128.710526 C312.797561,128.710526 312.797561,128.710526 312.797561,128.710526 C312.797561,128.710526 312.797561,128.710526 312.797561,128.710526 C312.797561,128.710526 312.797561,128.710526 312.797561,128.710526 C312.797561,128.710526 312.797561,128.710526 312.797561,128.710526 C312.797561,128.710526 312.797561,128.710526 312.797561,128.710526 C312.797561,128.710526 312.797561,128.710526 312.797561,128.710526 C312.797561,128.710526 312.797561,128.710526 312.797561,128.710526 C312.797561,128.710526 312.797561,128.710526 312.797561,128.710526 C312.797561,128.710526 312.797561,128.710526 312.797561,128.710526 C312.797561,128.710526 312.797561,128.710526 312.797561,128.710526 C312.797561,128.710526 312.797561,128.710526 312.797561,128.710526 C312.797561,128.710526 312.797561,128.710526 312.797561,128.710526 C312.797561,128.710526 312.797561,128.710526 312.797561,128.710526 C312.797561,128.710526 312.797561,128.710526 312.797561,128.710526 C312.797561,128.710526 312.797561,128.710526 312.797561,128.710526 C312.797561,128.710526 312.797561,128.710526 312.797561,128.710526 C312.797561,128.710526 312.797561,128.710526 312.797561,128.710526 C312.797561,128.710526 312.797561,128.710526 312.797561,128.710526 C312.797561,128.710526 312.797561,128.710526 312.797561,128.710526 C312.797561,128.710526 312.797561,128.710526 312.797561,128.710526 C312.797561,128.710526 312.797561,128.710526 312.797561,128.710526 C312.797561,128.710526 312.797561,128.710526 312.797561,128.710526 C312.797561,128.710526 312.797561,128.710526 312.797561,128.710526 C312.797561,128.710526 312.797561,128.710526 312.797561,128.710526 C312.797561,128.710526 312.797561,128.710526 312.797561,128.710526 C312.797561,128.710526 312.797561,128.710526 312.797561,128.710526 C312.797561,128.710526 312.797561,128.710526 312.797561,128.710526 C312.797561,128.710526 312.797561,128.710526 312.797561,128.710526 C312.797561,128.710526 312.797561,128.710526 312.797561,128.710526 C312.797561,128.710526 312.797561,128.710526 312.797561,128.710526 C312.797561,128.710526 312.797561,128.710526 312.797561,128.710526 C312.797561,128.710526 312.797561,128.710526 312.797561,128.710526 C312.797561,128.710526 312.797561,128.710526 312.797561,128.710526 C312.797561,128.710526 312.797561,128.710526 312.797561,128.710526 C312.797561,128.710526 312.797561,128.710526 312.797561,128.710526 C312.797561,128.710526 312.797561,128.710526 312.797561,128.710526 C312.797561,128.710526 312.797561,128.710526 312.797561,128.710526 C312.797561,128.710526 312.797561,128.710526 312.797561,128.710526 C312.797561,128.710526 312.797561,128.710526 312.797561,128.710526 C312.797561,128.710526 312.797561,128.710526 312.797561,128.710526 C312.797561,128.710526 312.797561,128.710526 312.797561,128.710526 C312.797561,128.710526 312.797561,128.710526 312.797561,128.710526 C312.797561,128.710526 312.797561,128.710526 312.797561,128.710526 C312.797561,128.710526 312.797561,128.710526 312.797561,128.710526 C312.797561,128.710526 312.797561,128.710526 312.797561,128.710526 C312.797561,128.710526 312.797561,128.710526 312.797561,128.710526 C312.797561,128.710526 312.797561,128.710526 312.797561,128.710526 C312.797561,128.710526 312.797561,128.710526 312.797561,128.710526 C312.797561,128.710526 312.797561,128.710526 312.797561,128.710526 C312.797561,128.710526 312.797561,128.710526 312.797561,128.710526 C312.797561,128.710526 312.797561,128.710526 312.797561,128.710526 C312.797561,128.710526 312.797561,128.710526 312.797561,128.710526 C312.797561,128.710526 312.797561,128.710526 312.797561,128.710526 C312.797561,128.710526 312.797561,128.710526 312.797561,128.710526 C312.797561,128.710526 312.797561,128.710526 312.797561,128.710526 C312.797561,128.710526 312.797561,128.710526 312.797561,128.710526 C312.797561,128.710526 312.797561,128.710526 312.797561,128.710526 C312.797561,128.710526 312.797561,128.710526 312.797561,128.710526 C312.797561,128.710526 312.797561,128.710526 312.797561,128.710526 C312.797561,128.710526 312.797561,128.710526 312.797561,128.710526 C312.797561,128.710526 312.797561,128.710526 312.797561,128.710526 C312.797561,128.710526 312.797561,128.710526 312.797561,128.710526 C312.797561,128.710526 312.797561,128.710526 312.797561,128.710526 C312.797561,128.710526 312.797561,128.710526 312.797561,128.710526 C312.797561,128.710526 312.797561,128.710526 312.797561,128.710526 C312.797561,128.710526 312.797561,128.710526 312.797561,128.710526 C312.797561,128.710526 312.797561,128.710526 312.797561,128.710526 C312.797561,128.710526 312.797561,128.710526 312.797561,128.710526 C312.797561,128.710526 312.797561,128.710526 312.797561,128.710526 C312.797561,128.710526 312.797561,128.710526 312.797561,128.710526 C312.797561,128.710526 312.797561,128.710526 312.797561,128.710526 C312.797561,128.710526 312.797561,128.710526 312.797561,128.710526 C312.797561,128.710526 312.797561,128.710526 312.797561,128.710526 C312.797561,128.710526 312.797561,128.710526 312.797561,128.710526 C312.797561,128.710526 312.797561,128.710526 312.797561,128.710526 C312.797561,128.710526 312.797561,128.710526 312.797561,128.710526 C312.797561,128.710526 312.797561,128.710526 312.797561,128.710526 C312.797561,128.710526 312.797561,128.710526 312.797561,128.710526 C312.797561,128.710526 312.797561,128.710526 312.797561,128.710526 C312.797561,128.710526 312.797561,128.710526 312.797561,128.710526 C312.797561,128.710526 312.797561,128.710526 312.797561,128.710526 C312.797561,128.710526 312.797561,128.710526 312.797561,128.710526 C312.797561,128.710526 312.797561,128.710526 312.797561,128.710526 C312.797561,128.710526 312.797561,128.710526 312.797561,128.710526 C312.797561,128.710526 312.797561,128.710526 312.797561,128.710526 C312.797561,128.710526 312.797561,128.710526 312.797561,128.710526 C312.797561,128.710526 312.797561,128.710526 312.797561,128.710526 C312.797561,128.710526 312.797561,128.710526 312.797561,128.710526 C312.797561,128.710526 312.797561,128.710526 312.797561,128.710526 C312.797561,128.710526 312.797561,128.710526 312.797561,128.710526 C312.797561,128.710526 312.797561,128.710526 312.797561,128.710526 C312.797561,128.710526 312.797561,128.710526 312.797561,128.710526 C312.797561,128.710526 312.797561,128.710526 312.797561,128.710526 C312.797561,128.710526 312.797561,128.710526 312.797561,128.710526 C312.797561,128.710526 312.797561,128.710526 312.797561,128.710526 C312.797561,128.710526 312.797561,128.710526 312.797561,128.710526 C312.797561,128.710526 312.797561,128.710526 312.797561,128.710526 C312.797561,128.710526 312.797561,128.710526 312.797561,128.710526 C312.797561,128.710526 312.797561,128.710526 312.797561,128.710526 C312.797561,128.710526 312.797561,128.710526 312.797561,128.710526 C312.797561,128.710526 312.797561,128.710526 312.797561,128.710526 C312.797561,128.710526 312.797561,128.710526 312.797561,128.710526 C312.797561,128.710526 312.797561,128.710526 312.797561,128.710526 C312.797561,128.710526 312.797561,128.710526 312.797561,128.710526 C312.797561,128.710526 312.797561,128.710526 312.797561,128.710526 C312.797561,128.710526 312.797561,128.710526 312.797561,128.710526 C312.797561,128.710526 312.797561,128.710526 312.797561,128.710526 C312.797561,128.710526 312.797561,128.710526 312.797561,128.710526 C312.797561,128.710526 312.797561,128.710526 312.797561,128.710526 C312.797561,128.710526 312.797561,128.710526 312.797561,128.710526 C312.797561,128.710526 312.797561,128.710526 312.797561,128.710526 C312.797561,128.710526 312.797561,128.710526 312.797561,128.710526 C312.797561,128.710526 312.797561,128.710526 312.797561,128.710526 C312.797561,128.710526 312.797561,128.710526 312.797561,128.710526 C312.797561,128.710526 312.797561,128.710526 312.797561,128.710526 C312.797561,128.710526 312.797561,128.710526 312.797561,128.710526 C312.797561,128.710526 312.797561,128.710526 312.797561,128.710526 C312.797561,128.710526 312.797561,128.710526 312.797561,128.710526 C312.797561,128.710526 312.797561,128.710526 312.797561,128.710526 C312.797561,128.710526 312.797561,128.710526 312.797561,128.710526 C312.797561,128.710526 312.797561,128.710526 312.797561,128.710526 C312.797561,128.710526 312.797561,128.710526 312.797561,128.710526 C312.797561,128.710526 312.797561,128.710526 312.797561,128.710526 C312.797561,128.710526 312.797561,128.710526 312.797561,128.710526 C312.797561,128.710526 312.797561,128.710526 312.797561,128.710526 C312.797561,128.710526 312.797561,128.710526 312.797561,128.710526 C312.797561,128.710526 312.797561,128.710526 312.797561,128.710526 C312.797561,128.710526 312.797561,128.710526 312.797561,128.710526 C312.797561,128.710526 312.797561,128.710526 312.797561,128.710526 C312.797561,128.710526 312.797561,128.710526 312.797561,128.710526 C312.797561,128.710526 312.797561,128.710526 312.797561,128.710526 C312.797561,128.710526 312.797561,128.710526 312.797561,128.710526 C312.797561,128.710526 312.797561,128.710526 312.797561,128.710526 C312.797561,128.710526 312.797561,128.710526 312.797561,128.710526 C312.797561,128.710526 312.797561,128.710526 312.797561,128.710526 C312.797561,128.710526 312.797561,128.710526 312.797561,128.710526 C312.797561,128.710526 312.797561,128.710526 312.797561,128.710526 C312.797561,128.710526 312.797561,128.710526 312.797561,128.710526 C312.797561,128.710526 312.797561,128.710526 312.797561,128.710526 C312.797561,128.710526 312.797561,128.710526 312.797561,128.710526 C312.797561,128.710526 312.797561,128.710526 312.797561,128.710526 C312.797561,128.710526 312.797561,128.710526 312.797561,128.710526 C312.797561,128.710526 312.797561,128.710526 312.797561,128.710526 C312.797561,128.710526 312.797561,128.710526 312.797561,128.710526 C312.797561,128.710526 312.797561,128.710526 312.797561,128.710526 C312.797561,128.710526 312.797561,128.710526 312.797561,128.710526 C312.797561,128.710526 312.797561,128.710526 312.797561,128.710526 C312.797561,128.710526 312.797561,128.710526 312.797561,128.710526 C312.797561,128.710526 312.797561,128.710526 312.797561,128.710526 C312.797561,128.710526 312.797561,128.710526 312.797561,128.710526 C312.797561,128.710526 312.797561,128.710526 312.797561,128.710526 C312.797561,128.710526 312.797561,128.710526 312.797561,128.710526 C312.797561,128.710526 312.797561,128.710526 312.797561,128.710526 C312.797561,128.710526 312.797561,128.710526 312.797561,128.710526 C312.797561,128.710526 312.797561,128.710526 312.797561,128.710526 C312.797561,128.710526 312.797561,128.710526 312.797561,128.710526 C312.797561,128.710526 312.797561,128.710526 312.797561,128.710526 C312.797561,128.710526 312.797561,128.710526 312.797561,128.710526 C312.797561,128.710526 312.797561,128.710526 312.797561,128.710526 C312.797561,128.710526 312.797561,128.710526 312.797561,128.710526 C312.797561,128.710526 312.797561,128.710526 312.797561,128.710526 C312.797561,128.710526 312.797561,128.710526 312.797561,128.710526 C312.797561,128.710526 312.797561,128.710526 312.797561,128.710526 C312.797561,128.710526 312.797561,128.710526 312.797561,128.710526 C312.797561,128.710526 312.797561,128.710526 312.797561,128.710526 C312.797561,128.710526 312.797561,128.710526 312.797561,128.710526 C312.797561,128.710526 312.797561,128.710526 312.797561,128.710526 C312.797561,128.710526 312.797561,128.710526 312.797561,128.710526 C312.797561,128.710526 312.797561,128.710526 312.797561,128.710526 C312.797561,128.710526 312.797561,128.710526 312.797561,128.710526 C312.797561,128.710526 312.797561,128.710526 312.797561,128.710526 C312.797561,128.710526 312.797561,128.710526 312.797561,128.710526 C312.797561,128.710526 312.797561,128.710526 312.797561,128.710526 C312.797561,128.710526 312.797561,128.710526 312.797561,128.710526 C312.797561,128.710526 312.797561,128.710526 312.797561,128.710526 C312.797561,128.710526 312.797561,128.710526 312.797561,128.710526 C312.797561,128.710526 312.797561,128.710526 312.797561,128.710526 C312.797561,128.710526 312.797561,128.710526 312.797561,128.710526 C312.797561,128.710526 312.797561,128.710526 312.797561,128.710526 C312.797561,128.710526 312.797561,128.710526 312.797561,128.710526 C312.797561,128.710526 312.797561,128.710526 312.797561,128.710526 C312.797561,128.710526 312.797561,128.710526 312.797561,128.710526 C312.797561,128.710526 312.797561,128.710526 312.797561,128.710526 C312.797561,128.710526 312.797561,128.710526 312.797561,128.710526 C312.797561,128.710526 312.797561,128.710526 312.797561,128.710526 C312.797561,128.710526 312.797561,128.710526 312.797561,128.710526 C312.797561,128.710526 312.797561,128.710526 312.797561,128.710526 C312.797561,128.710526 312.797561,128.710526 312.797561,128.710526 C312.797561,128.710526 312.797561,128.710526 312.797561,128.710526 C312.797561,128.710526 312.797561,128.710526 312.797561,128.710526 C312.797561,128.710526 312.797561,128.710526 312.797561,128.710526 C312.797561,128.710526 312.797561,128.710526 312.797561,128.710526 C312.797561,128.710526 312.797561,128.710526 312.797561,128.710526 C312.797561,128.710526 312.797561,128.710526 312.797561,128.710526 C312.797561,128.710526 312.797561,128.710526 312.797561,128.710526 C312.797561,128.710526 312.797561,128.710526 312.797561,128.710526 C312.797561,128.710526 312.797561,128.710526 312.797561,128.710526 C312.797561,128.710526 312.797561,128.710526 312.797561,128.710526 C312.797561,128.710526 312.797561,128.710526 312.797561,128.710526 C312.797561,128.710526 312.797561,128.710526 312.797561,128.710526 C312.797561,128.710526 312.797561,128.710526 312.797561,128.710526 C312.797561,128.710526 312.797561,128.710526 312.797561,128.710526 C312.797561,128.710526 312.797561,128.710526 312.797561,128.710526 C312.797561,128.710526 312.797561,128.710526 312.797561,128.710526 C312.797561,128.710526 312.797561,128.710526 312.797561,128.710526 C312.797561,128.710526 312.797561,128.710526 312.797561,128.710526 C312.797561,128.710526 312.797561,128.710526 312.797561,128.710526 C312.797561,128.710526 312.797561,128.710526 312.797561,128.710526 C312.797561,128.710526 312.797561,128.710526 312.797561,128.710526 C312.797561,128.710526 312.797561,128.710526 312.797561,128.710526 C312.797561,128.710526 312.797561,128.710526 312.797561,128.710526 C312.797561,128.710526 312.797561,128.710526 312.797561,128.710526 C312.797561,128.710526 312.797561,128.710526 312.797561,128.710526 C312.797561,128.710526 312.797561,128.710526 312.797561,128.710526 C312.797561,128.710526 312.797561,128.710526 312.797561,128.710526 C312.797561,128.710526 312.797561,128.710526 312.797561,128.710526 C312.797561,128.710526 312.797561,128.710526 312.797561,128.710526 C312.797561,128.710526 312.797561,128.710526 312.797561,128.710526 C312.797561,128.710526 312.797561,128.710526 312.797561,128.710526 C312.797561,128.710526 312.797561,128.710526 312.797561,128.710526 C312.797561,128.710526 312.797561,128.710526 312.797561,128.710526 C312.797561,128.710526 312.797561,128.710526 312.797561,128.710526 C312.797561,128.710526 312.797561,128.710526 312.797561,128.710526 C312.797561,128.710526 312.797561,128.710526 312.797561,128.710526 C312.797561,128.710526 312.797561,128.710526 312.797561,128.710526 C312.797561,128.710526 312.797561,128.710526 312.797561,128.710526 C312.797561,128.710526 312.797561,128.710526 312.797561,128.710526 C312.797561,128.710526 312.797561,128.710526 312.797561,128.710526 C312.797561,128.710526 312.797561,128.710526 312.797561,128.710526 C312.797561,128.710526 312.797561,128.710526 312.797561,128.710526 C312.797561,128.710526 312.797561,128.710526 312.797561,128.710526 C312.797561,128.710526 312.797561,128.710526 312.797561,128.710526 C312.797561,128.710526 312.797561,128.710526 312.797561,128.710526 C312.797561,128.710526 312.797561,128.710526 312.797561,128.710526 C312.797561,128.710526 312.797561,128.710526 312.797561,128.710526 C312.797561,128.710526 312.797561,128.710526 312.797561,128.710526 C312.797561,128.710526 312.797561,128.710526 312.797561,128.710526 C312.797561,128.710526 312.797561,128.710526 312.797561,128.710526 C312.797561,128.710526 312.797561,128.710526 312.797561,128.710526 C312.797561,128.710526 312.797561,128.710526 312.797561,128.710526 C312.797561,128.710526 312.797561,128.710526 312.797561,128.710526 C312.797561,128.710526 312.797561,128.710526 312.797561,128.710526 C312.797561,128.710526 312.797561,128.710526 312.797561,128.710526 C312.797561,128.710526 312.797561,128.710526 312.797561,128.710526 C312.797561,128.710526 312.797561,128.710526 312.797561,128.710526 C312.797561,128.710526 312.797561,128.710526 312.797561,128.710526 C312.797561,128.710526 312.797561,128.710526 312.797561,128.710526 C312.797561,128.710526 312.797561,128.710526 312.797561,128.710526 C312.797561,128.710526 312.797561,128.710526 312.797561,128.710526 C312.797561,128.710526 312.797561,128.710526 312.797561,128.710526 C312.797561,128.710526 312.797561,128.710526 312.797561,128.710526 C312.797561,128.710526 312.797561,128.710526 312.797561,128.710526 C312.797561,128.710526 312.797561,128.710526 312.797561,128.710526 C312.797561,128.710526 312.797561,128.710526 312.797561,128.710526 C312.797561,128.710526 312.797561,128.710526 312.797561,128.710526 C312.797561,128.710526 312.797561,128.710526 312.797561,128.710526 C312.797561,128.710526 312.797561,128.710526 312.797561,128.710526 C312.797561,128.710526 312.797561,128.710526 312.797561,128.710526 C312.797561,128.710526 312.797561,128.710526 312.797561,128.710526 C312.797561,128.710526 312.797561,128.710526 312.797561,128.710526 C312.797561,128.710526 312.797561,128.710526 312.797561,128.710526 C312.797561,128.710526 312.797561,128.710526 312.797561,128.710526 C312.797561,128.710526 312.797561,128.710526 312.797561,128.710526 C312.797561,128.710526 312.797561,128.710526 312.797561,128.710526 C312.797561,128.710526 312.797561,128.710526 312.797561,128.710526 C312.797561,128.710526 312.797561,128.710526 312.797561,128.710526 C312.797561,128.710526 312.797561,128.710526 312.797561,128.710526 C312.797561,128.710526 312.797561,128.710526 312.797561,128.710526 C312.797561,128.710526 312.797561,128.710526 312.797561,128.710526 C312.797561,128.710526 312.797561,128.710526 312.797561,128.710526 C312.797561,128.710526 312.797561,128.710526 312.797561,128.710526 C312.797561,128.710526 312.797561,128.710526 312.797561,128.710526 C312.797561,128.710526 312.797561,128.710526 312.797561,128.710526 C312.797561,128.710526 312.797561,128.710526 312.797561,128.710526 C312.797561,128.710526 312.797561,128.710526 312.797561,128.710526 C312.797561,128.710526 312.797561,128.710526 312.797561,128.710526 C312.797561,128.710526 312.797561,128.710526 312.797561,128.710526 C312.797561,128.710526 312.797561,128.710526 312.797561,128.710526 C312.797561,128.710526 312.797561,128.710526 312.797561,128.710526 C312.797561,128.710526 312.797561,128.710526 312.797561,128.710526 C312.797561,128.710526 312.797561,128.710526 312.797561,128.710526 C312.797561,128.710526 312.797561,128.710526 312.797561,128.710526 C312.797561,128.710526 312.797561,128.710526 312.797561,128.710526 C312.797561,128.710526 312.797561,128.710526 312.797561,128.710526 C312.797561,128.710526 312.797561,128.710526 312.797561,128.710526 C312.797561,128.710526 312.797561,128.710526 312.797561,128.710526 C312.797561,128.710526 312.797561,128.710526 312.797561,128.710526 C312.797561,128.710526 312.797561,128.710526 312.797561,128.710526 C312.797561,128.710526 312.797561,128.710526 312.797561,128.710526 C312.797561,128.710526 312.797561,128.710526 312.797561,128.710526 C312.797561,128.710526 312.797561,128.710526 312.797561,128.710526 C312.797561,128.710526 312.797561,128.710526 312.797561,128.710526 C312.797561,128.710526 312.797561,128.710526 312.797561,128.710526 C312.797561,128.710526 312.797561,128.710526 312.797561,128.710526 C312.797561,128.710526 312.797561,128.710526 312.797561,128.710526 C312.797561,128.710526 312.797561,128.710526 312.797561,128.710526 C312.797561,128.710526 312.797561,128.710526 312.797561,128.710526 C312.797561,128.710526 312.797561,128.710526 312.797561,128.710526 C312.797561,128.710526 312.797561,128.710526 312.797561,128.710526 C312.797561,128.710526 312.797561,128.710526 312.797561,128.710526 C312.797561,128.710526 312.797561,128.710526 312.797561,128.710526 C312.797561,128.710526 312.797561,128.710526 312.797561,128.710526 C312.797561,128.710526 312.797561,128.710526 312.797561,128.710526 C312.797561,128.710526 312.797561,128.710526 312.797561,128.710526 C312.797561,128.710526 312.797561,128.710526 312.797561,128.710526 C312.797561,128.710526 312.797561,128.710526 312.797561,128.710526 C312.797561,128.710526 312.797561,128.710526 312.797561,128.710526 C312.797561,128.710526 312.797561,128.710526 312.797561,128.710526 C312.797561,128.710526 312.797561,128.710526 312.797561,128.710526 C312.797561,128.710526 312.797561,128.710526 312.797561,128.710526 C312.797561,128.710526 312.797561,128.710526 312.797561,128.710526 C312.797561,128.710526 312.797561,128.710526 312.797561,128.710526 C312.797561,128.710526 312.797561,128.710526 312.797561,128.710526 C312.797561,128.710526 312.797561,128.710526 312.797561,128.710526 C312.797561,128.710526 312.797561,128.710526 312.797561,128.710526 C312.797561,128.710526 312.797561,128.710526 312.797561,128.710526 C312.797561,128.710526 312.797561,128.710526 312.797561,128.710526 C312.797561,128.710526 312.797561,128.710526 312.797561,128.710526 C312.797561,128.710526 312.797561,128.710526 312.797561,128.710526 C312.797561,128.710526 312.797561,128.710526 312.797561,128.710526 C312.797561,128.710526 312.797561,128.710526 312.797561,128.710526 C312.797561,128.710526 312.797561,128.710526 312.797561,128.710526 C312.797561,128.710526 312.797561,128.710526 312.797561,128.710526 C312.797561,128.710526 312.797561,128.710526 312.797561,128.710526 C312.797561,128.710526 312.797561,128.710526 312.797561,128.710526 C312.797561,128.710526 312.797561,128.710526 312.797561,128.710526 C312.797561,128.710526 312.797561,128.710526 312.797561,128.710526 C312.797561,128.710526 312.797561,128.710526 312.797561,128.710526 C312.797561,128.710526 312.797561,128.710526 312.797561,128.710526 C312.797561,128.710526 312.797561,128.710526 312.797561,128.710526 C312.797561,128.710526 312.797561,128.710526 312.797561,128.710526 C312.797561,128.710526 312.797561,128.710526 312.797561,128.710526 C312.797561,128.710526 312.797561,128.710526 312.797561,128.710526 C312.797561,128.710526 312.797561,128.710526 312.797561,128.710526 C312.797561,128.710526 312.797561,128.710526 312.797561,128.710526 C312.797561,128.710526 312.797561,128.710526 312.797561,128.710526 C312.797561,128.710526 312.797561,128.710526 312.797561,128.710526 C312.797561,128.710526 312.797561,128.710526 312.797561,128.710526 C312.797561,128.710526 312.797561,128.710526 312.797561,128.710526 C312.797561,128.710526 312.797561,128.710526 312.797561,128.710526 C312.797561,128.710526 312.797561,128.710526 312.797561,128.710526 C312.797561,128.710526 312.797561,128.710526 312.797561,128.710526 C312.797561,128.710526 312.797561,128.710526 312.797561,128.710526 C312.797561,128.710526 312.797561,128.710526 312.797561,128.710526 C312.797561,128.710526 312.797561,128.710526 312.797561,128.710526 C312.797561,128.710526 312.797561,128.710526 312.797561,128.710526 C312.797561,128.710526 312.797561,128.710526 312.797561,128.710526 C312.797561,128.710526 312.797561,128.710526 312.797561,128.710526 C312.797561,128.710526 312.797561,128.710526 312.797561,128.710526 C312.797561,128.710526 312.797561,128.710526 312.797561,128.710526 C312.797561,128.710526 312.797561,128.710526 312.797561,128.710526 C312.797561,128.710526 312.797561,128.710526 312.797561,128.710526 C312.797561,128.710526 312.797561,128.710526 312.797561,128.710526 C312.797561,128.710526 312.797561,128.710526 312.797561,128.710526 C312.797561,128.710526 312.797561,128.710526 312.797561,128.710526 C312.797561,128.710526 312.797561,128.710526 312.797561,128.710526 C312.797561,128.710526 312.797561,128.710526 312.797561,128.710526 C312.797561,128.710526 312.797561,128.710526 312.797561,128.710526 C312.797561,128.710526 312.797561,128.710526 312.797561,128.710526 C312.797561,128.710526 312.797561,128.710526 312.797561,128.710526 C312.797561,128.710526 312.797561,128.710526 312.797561,128.710526 C312.797561,128.710526 312.797561,128.710526 312.797561,128.710526 C312.797561,128.710526 312.797561,128.710526 312.797561,128.710526 C312.797561,128.710526 312.797561,128.710526 312.797561,128.710526 C312.797561,128.710526 312.797561,128.710526 312.797561,128.710526 C312.797561,128.710526 312.797561,128.710526 312.797561,128.710526 C312.797561,128.710526 312.797561,128.710526 312.797561,128.710526 C312.797561,128.710526 312.797561,128.710526 312.797561,128.710526 C312.797561,128.710526 312.797561,128.710526 312.797561,128.710526 C312.797561,128.710526 312.797561,128.710526 312.797561,128.710526 C312.797561,128.710526 312.797561,128.710526 312.797561,128.710526 C312.797561,128.710526 312.797561,128.710526 312.797561,128.710526 C312.797561,128.710526 312.797561,128.710526 312.797561,128.710526 C312.797561,128.710526 312.797561,128.710526 312.797561,128.710526 C312.797561,128.710526 312.797561,128.710526 312.797561,128.710526 C312.797561,128.710526 312.797561,128.710526 312.797561,128.710526 C312.797561,128.710526 312.797561,128.710526 312.797561,128.710526 C312.797561,128.710526 312.797561,128.710526 312.797561,128.710526 C312.797561,128.710526 312.797561,128.710526 312.797561,128.710526 C312.797561,128.710526 312.797561,128.710526 312.797561,128.710526 C312.797561,128.710526 312.797561,128.710526 312.797561,128.710526 C312.797561,128.710526 312.797561,128.710526 312.797561,128.710526 C312.797561,128.710526 312.797561,128.710526 312.797561,128.710526 C312.797561,128.710526 312.797561,128.710526 312.797561,128.710526 C312.797561,128.710526 312.797561,128.710526 312.797561,128.710526 C312.797561,128.710526 312.797561,128.710526 312.797561,128.710526 C312.797561,128.710526 312.797561,128.710526 312.797561,128.710526 C312.797561,128.710526 312.797561,128.710526 312.797561,128.710526 C312.797561,128.710526 312.797561,128.710526 312.797561,128.710526 C312.797561,128.710526 312.797561,128.710526 312.797561,128.710526 C312.797561,128.710526 312.797561,128.710526 312.797561,128.710526 C312.797561,128.710526 312.797561,128.710526 312.797561,128.710526 C312.797561,128.710526 312.797561,128.710526 312.797561,128.710526 C312.797561,128.710526 312.797561,128.710526 312.797561,128.710526 C312.797561,128.710526 312.797561,128.710526 312.797561,128.710526 C312.797561,128.710526 312.797561,128.710526 312.797561,128.710526 C312.797561,128.710526 312.797561,128.710526 312.797561,128.710526 C312.797561,128.710526 312.797561,128.710526 312.797561,128.710526 C312.797561,128.710526 312.797561,128.710526 312.797561,128.710526 C312.797561,128.710526 312.797561,128.710526 312.797561,128.710526 C312.797561,128.710526 312.797561,128.710526 312.797561,128.710526 C312.797561,128.710526 312.797561,128.710526 312.797561,128.710526 C312.797561,128.710526 312.797561,128.710526 312.797561,128.710526 C312.797561,128.710526 312.797561,128.710526 312.797561,128.710526 C312.797561,128.710526 312.797561,128.710526 312.797561,128.710526 C312.797561,128.710526 312.797561,128.710526 312.797561,128.710526 C312.797561,128.710526 312.797561,128.710526 312.797561,128.710526 C312.797561,128.710526 312.797561,128.710526 312.797561,128.710526 C312.797561,128.710526 312.797561,128.710526 312.797561,128.710526 C312.797561,128.710526 312.797561,128.710526 312.797561,128.710526 C312.797561,128.710526 312.797561,128.710526 312.797561,128.710526 C312.797561,128.710526 312.797561,128.710526 312.797561,128.710526 C312.797561,128.710526 312.797561,128.710526 312.797561,128.710526 C312.797561,128.710526 312.797561,128.710526 312.797561,128.710526 C312.797561,128.710526 312.797561,128.710526 312.797561,128.710526 C312.797561,128.710526 312.797561,128.710526 312.797561,128.710526 C312.797561,128.710526 312.797561,128.710526 312.797561,128.710526 C312.797561,128.710526 312.797561,128.710526 312.797561,128.710526 C312.797561,128.710526 312.797561,128.710526 312.797561,128.710526 C312.797561,128.710526 312.797561,128.710526 312.797561,128.710526 C312.797561,128.710526 312.797561,128.710526 312.797561,128.710526 C312.797561,128.710526 312.797561,128.710526 312.797561,128.710526 C312.797561,128.710526 312.797561,128.710526 312.797561,128.710526 C312.797561,128.710526 312.797561,128.710526 312.797561,128.710526 C312.797561,128.710526 312.797561,128.710526 312.797561,128.710526 C312.797561,128.710526 312.797561,128.710526 312.797561,128.710526 L312.797561,128.710526 C312.797561,128.710526 312.797561,128.710526 312.797561,128.710526 C312.797561,128.710526 312.797561,128.710526 312.797561,128.710526 C312.797561,128.710526 312.797561,128.710526 312.797561,128.710526 C312.797561,128.710526 312.797561,128.710526 312.797561,128.710526 C312.797561,128.710526 312.797561,128.710526 312.797561,128.710526 C312.797561,128.710526 312.797561,128.710526 312.797561,128.710526 C312.797561,128.710526 312.797561,128.710526 312.797561,128.710526 L312.797561,128.710526 C312.797561,128.710526 312.797561,128.710526 312.797561,128.710526 L312.797561,128.710526 C312.797561,128.710526 312.797561,128.710526 312.797561,128.710526 C312.797561,128.710526 312.797561,128.710526 312.797561,128.710526 C312.797561,128.710526 312.797561,128.710526 312.797561,128.710526 C312.797561,128.710526 312.797561,128.710526 312.797561,128.710526 C312.797561,128.710526 312.797561,128.710526 312.797561,128.710526 C312.797561,128.710526 312.797561,128.710526 312.797561,128.710526 C312.797561,128.710526 312.797561,128.710526 312.797561,128.710526 C312.797561,128.710526 312.797561,128.710526 312.797561,128.710526 C312.797561,128.710526 312.797561,128.710526 312.797561,128.710526 C304.14878,137.355263 295.019512,146.480263 286.370732,155.125 C283.487805,150.802632 282.526829,145.039474 284.929268,140.236842 C288.773171,133.032895 289.734146,124.388158 289.734146,115.743421 L289.734146,114.782895 C289.734146,93.6513158 277.241463,75.4013158 259.943902,66.2763158 C254.658537,63.875 251.295122,58.1118421 251.295122,52.8289474 L251.295122,52.3486842 C249.853659,23.0526316 227.75122,0 197.480488,0 L196.519512,0 C166.24878,0 144.146341,23.0526316 144.146341,53.3092105 L144.146341,53.7894737 C144.146341,59.5526316 140.782927,64.8355263 135.497561,67.2368421 C118.2,76.8421053 105.707317,95.0921053 105.707317,116.223684 L105.707317,117.184211 C105.707317,125.828947 106.668293,133.993421 110.512195,141.677632 C112.914634,146.480263 111.953659,152.243421 109.55122,156.565789 C100.902439,147.921053 91.7731707,138.796053 82.6439024,130.151316 C82.6439024,130.151316 82.6439024,130.151316 82.6439024,130.151316 C82.6439024,130.151316 82.6439024,130.151316 82.6439024,130.151316 C82.6439024,130.151316 82.6439024,130.151316 82.6439024,130.151316 C82.6439024,130.151316 82.6439024,130.151316 82.6439024,130.151316 C82.6439024,130.151316 82.6439024,130.151316 82.6439024,130.151316 C82.6439024,130.151316 82.6439024,130.151316 82.6439024,130.151316 C82.6439024,130.151316 82.6439024,130.151316 82.6439024,130.151316 C82.6439024,130.151316 82.6439024,130.151316 82.6439024,130.151316 C82.6439024,130.151316 82.6439024,130.151316 82.6439024,130.151316 C82.6439024,130.151316 82.6439024,130.151316 82.6439024,130.151316 C82.6439024,130.151316 82.6439024,130.151316 82.6439024,130.151316 C82.6439024,130.151316 82.6439024,130.151316 82.6439024,130.151316 C82.6439024,130.151316 82.6439024,130.151316 82.6439024,130.151316 C82.6439024,130.151316 82.6439024,130.151316 82.6439024,130.151316 C82.6439024,130.151316 82.6439024,130.151316 82.6439024,130.151316 C82.6439024,130.151316 82.6439024,130.151316 82.6439024,130.151316 C82.6439024,130.151316 82.6439024,130.151316 82.6439024,130.151316 C82.6439024,130.151316 82.6439024,130.151316 82.6439024,130.151316 C82.6439024,130.151316 82.6439024,130.151316 82.6439024,130.151316 C82.6439024,130.151316 82.6439024,130.151316 82.6439024,130.151316 C82.6439024,130.151316 82.6439024,130.151316 82.6439024,130.151316 C82.6439024,130.151316 82.6439024,130.151316 82.6439024,130.151316 C82.6439024,130.151316 82.6439024,130.151316 82.6439024,130.151316 C82.6439024,130.151316 82.6439024,130.151316 82.6439024,130.151316 C82.6439024,130.151316 82.6439024,130.151316 82.6439024,130.151316 C82.6439024,130.151316 82.6439024,130.151316 82.6439024,130.151316 C82.6439024,130.151316 82.6439024,130.151316 82.6439024,130.151316 C82.6439024,130.151316 82.6439024,130.151316 82.6439024,130.151316 C82.6439024,130.151316 82.6439024,130.151316 82.6439024,130.151316 C82.6439024,130.151316 82.6439024,130.151316 82.6439024,130.151316 C82.6439024,130.151316 82.6439024,130.151316 82.6439024,130.151316 C82.6439024,130.151316 82.6439024,130.151316 82.6439024,130.151316 C82.6439024,130.151316 82.6439024,130.151316 82.6439024,130.151316 C82.6439024,130.151316 82.6439024,130.151316 82.6439024,130.151316 C82.6439024,130.151316 82.6439024,130.151316 82.6439024,130.151316 C82.6439024,130.151316 82.6439024,130.151316 82.6439024,130.151316 C82.6439024,130.151316 82.6439024,130.151316 82.6439024,130.151316 C82.6439024,130.151316 82.6439024,130.151316 82.6439024,130.151316 C82.6439024,130.151316 82.6439024,130.151316 82.6439024,130.151316 C82.6439024,130.151316 82.6439024,130.151316 82.6439024,130.151316 C82.6439024,130.151316 82.6439024,130.151316 82.6439024,130.151316 C82.6439024,130.151316 82.6439024,130.151316 82.6439024,130.151316 C82.6439024,130.151316 82.6439024,130.151316 82.6439024,130.151316 C82.6439024,130.151316 82.6439024,130.151316 82.6439024,130.151316 C82.6439024,130.151316 82.6439024,130.151316 82.6439024,130.151316 C82.6439024,130.151316 82.6439024,130.151316 82.6439024,130.151316 C82.6439024,130.151316 82.6439024,130.151316 82.6439024,130.151316 C82.6439024,130.151316 82.6439024,130.151316 82.6439024,130.151316 L82.6439024,130.151316 C81.6829268,129.671053 80.7219512,129.190789 79.7609756,129.190789 C79.7609756,129.190789 79.7609756,129.190789 79.7609756,129.190789 C78.8,129.190789 78.3195122,129.671053 77.3585366,130.151316 C77.3585366,130.151316 77.3585366,130.151316 77.3585366,130.151316 C77.3585366,130.151316 77.3585366,130.151316 77.3585366,130.151316 L77.3585366,130.151316 C77.3585366,130.151316 77.3585366,130.151316 77.3585366,130.151316 C77.3585366,130.151316 77.3585366,130.151316 77.3585366,130.151316 C77.3585366,130.151316 77.3585366,130.151316 77.3585366,130.151316 C77.3585366,130.151316 77.3585366,130.151316 77.3585366,130.151316 C77.3585366,130.151316 77.3585366,130.151316 77.3585366,130.151316 C77.3585366,130.151316 77.3585366,130.151316 77.3585366,130.151316 C77.3585366,130.151316 77.3585366,130.151316 77.3585366,130.151316 C77.3585366,130.151316 77.3585366,130.151316 77.3585366,130.151316 C77.3585366,130.151316 77.3585366,130.151316 77.3585366,130.151316 C77.3585366,130.151316 77.3585366,130.151316 77.3585366,130.151316 C77.3585366,130.151316 77.3585366,130.151316 77.3585366,130.151316 C77.3585366,130.151316 77.3585366,130.151316 77.3585366,130.151316 C77.3585366,130.151316 77.3585366,130.151316 77.3585366,130.151316 C77.3585366,130.151316 77.3585366,130.151316 77.3585366,130.151316 C77.3585366,130.151316 77.3585366,130.151316 77.3585366,130.151316 C77.3585366,130.151316 77.3585366,130.151316 77.3585366,130.151316 C77.3585366,130.151316 77.3585366,130.151316 77.3585366,130.151316 C77.3585366,130.151316 77.3585366,130.151316 77.3585366,130.151316 C77.3585366,130.151316 77.3585366,130.151316 77.3585366,130.151316 C77.3585366,130.151316 77.3585366,130.151316 77.3585366,130.151316 C77.3585366,130.151316 77.3585366,130.151316 77.3585366,130.151316 C77.3585366,130.151316 77.3585366,130.151316 77.3585366,130.151316 C77.3585366,130.151316 77.3585366,130.151316 77.3585366,130.151316 C77.3585366,130.151316 77.3585366,130.151316 77.3585366,130.151316 C77.3585366,130.151316 77.3585366,130.151316 77.3585366,130.151316 C77.3585366,130.151316 77.3585366,130.151316 77.3585366,130.151316 C77.3585366,130.151316 77.3585366,130.151316 77.3585366,130.151316 C77.3585366,130.151316 77.3585366,130.151316 77.3585366,130.151316 C77.3585366,130.151316 77.3585366,130.151316 77.3585366,130.151316 C77.3585366,130.151316 77.3585366,130.151316 77.3585366,130.151316 C77.3585366,130.151316 77.3585366,130.151316 77.3585366,130.151316 C77.3585366,130.151316 77.3585366,130.151316 77.3585366,130.151316 C77.3585366,130.151316 77.3585366,130.151316 77.3585366,130.151316 C77.3585366,130.151316 77.3585366,130.151316 77.3585366,130.151316 C77.3585366,130.151316 77.3585366,130.151316 77.3585366,130.151316 C77.3585366,130.151316 77.3585366,130.151316 77.3585366,130.151316 C77.3585366,130.151316 77.3585366,130.151316 77.3585366,130.151316 C77.3585366,130.151316 77.3585366,130.151316 77.3585366,130.151316 C77.3585366,130.151316 77.3585366,130.151316 77.3585366,130.151316 C77.3585366,130.151316 77.3585366,130.151316 77.3585366,130.151316 C77.3585366,130.151316 77.3585366,130.151316 77.3585366,130.151316 C77.3585366,130.151316 77.3585366,130.151316 77.3585366,130.151316 C77.3585366,130.151316 77.3585366,130.151316 77.3585366,130.151316 C77.3585366,130.151316 77.3585366,130.151316 77.3585366,130.151316 C77.3585366,130.151316 77.3585366,130.151316 77.3585366,130.151316 C77.3585366,130.151316 77.3585366,130.151316 77.3585366,130.151316 C77.3585366,130.151316 77.3585366,130.151316 77.3585366,130.151316 C77.3585366,130.151316 77.3585366,130.151316 77.3585366,130.151316 C77.3585366,130.151316 77.3585366,130.151316 77.3585366,130.151316 C77.3585366,130.151316 77.3585366,130.151316 77.3585366,130.151316 C77.3585366,130.151316 77.3585366,130.151316 77.3585366,130.151316 C77.3585366,130.151316 77.3585366,130.151316 77.3585366,130.151316 C77.3585366,130.151316 77.3585366,130.151316 77.3585366,130.151316 C77.3585366,130.151316 77.3585366,130.151316 77.3585366,130.151316 C77.3585366,130.151316 77.3585366,130.151316 77.3585366,130.151316 C77.3585366,130.151316 77.3585366,130.151316 77.3585366,130.151316 C77.3585366,130.151316 77.3585366,130.151316 77.3585366,130.151316 C77.3585366,130.151316 77.3585366,130.151316 77.3585366,130.151316 C77.3585366,130.151316 76.8780488,130.151316 76.8780488,130.631579 C76.8780488,130.631579 76.8780488,131.111842 76.8780488,131.111842 C64.3853659,143.598684 51.8926829,154.644737 39.4,169.052632 L7.68780488,169.052632 C5.28536585,169.052632 3.84390244,171.453947 3.84390244,173.855263 C3.84390244,176.256579 5.76585366,178.657895 7.68780488,178.657895 L31.2317073,178.657895 C25.4658537,183.460526 19.7,189.223684 13.9341463,194.506579 C12.4926829,195.947368 12.4926829,198.348684 13.9341463,199.789474 C14.895122,200.75 15.8560976,200.75 16.8170732,200.75 C17.7780488,200.75 19.7,200.269737 20.6609756,199.309211 C26.4268293,193.546053 28.8292683,187.782895 38.4390244,182.019737 L38.4390244,205.552632 C38.4390244,207.953947 38.4390244,209.394737 40.8414634,209.394737 C43.2439024,209.394737 43.2439024,207.473684 43.2439024,205.552632 L43.2439024,173.855263 C57.6585366,162.328947 67.2682927,150.802632 78.8,139.276316 C78.8,139.276316 79.2804878,139.276316 79.7609756,139.276316 C87.4487805,146.960526 95.1365854,155.125 103.304878,162.809211 C90.3317073,172.894737 82.1634146,188.263158 82.1634146,206.032895 L82.1634146,206.513158 C82.1634146,215.157895 84.5658537,223.322368 87.9292683,231.006579 C91.2926829,237.730263 90.3317073,245.894737 84.0853659,250.697368 C70.1512195,260.782895 62.4634146,276.631579 62.4634146,294.881579 L62.4634146,295.842105 C62.4634146,326.098684 85.0463415,350.592105 115.317073,350.592105 L120.121951,350.592105 L120.121951,359.717105 C120.121951,363.078947 124.926829,365 128.290244,365 L128.290244,365 C131.653659,365 134.056098,363.559211 134.056098,359.717105 L134.056098,350.592105 L258.982927,350.592105 L258.982927,359.717105 C258.982927,363.078947 261.385366,365 264.74878,365 L264.74878,365 C268.112195,365 272.917073,363.559211 272.917073,359.717105 L272.917073,350.592105 L277.721951,350.592105 C307.992683,350.592105 330.57561,326.098684 330.57561,295.842105 L330.57561,294.881579 C330.57561,276.631579 322.887805,260.782895 308.953659,250.697368 C302.707317,246.375 301.265854,238.210526 304.629268,231.006579 C308.473171,223.802632 310.87561,215.157895 310.87561,206.513158 L310.87561,205.552632 C310.87561,187.782895 302.226829,172.414474 289.734146,162.328947 C297.421951,154.644737 305.109756,146.480263 313.278049,138.796053 C313.278049,138.796053 314.239024,138.796053 314.239024,138.796053 C325.770732,150.322368 334.9,161.848684 349.314634,173.375 L349.314634,205.072368 C349.314634,207.473684 349.314634,208.914474 351.717073,208.914474 C354.119512,208.914474 354.119512,206.993421 354.119512,205.072368 L354.119512,181.539474 C363.729268,187.302632 366.131707,193.065789 371.897561,198.828947 C372.858537,199.789474 374.3,199.789474 375.260976,199.789474 C376.221951,199.789474 377.663415,199.309211 378.143902,198.828947 C379.585366,197.388158 379.585366,195.947368 378.143902,194.026316 C372.378049,188.263158 366.612195,182.980263 361.326829,178.177632 L384.870732,178.177632 C387.273171,178.177632 388.714634,175.776316 388.714634,173.375 C390.156098,170.493421 388.714634,168.092105 386.312195,168.092105 Z M141.263415,79.2434211 C166.24878,79.2434211 187.870732,94.1315789 197,116.703947 C206.129268,94.1315789 227.75122,79.2434211 252.736585,79.2434211 C254.178049,79.2434211 255.139024,80.2039474 255.139024,81.6447368 C255.139024,83.0855263 254.178049,84.0460526 252.736585,84.0460526 C227.75122,84.0460526 205.64878,100.855263 199.402439,125.348684 C198.921951,126.309211 197.960976,127.269737 197,127.269737 C196.039024,127.269737 194.597561,126.309211 194.597561,125.348684 C188.35122,100.855263 166.729268,84.0460526 141.263415,84.0460526 C139.821951,84.0460526 138.860976,83.0855263 138.860976,81.6447368 C138.860976,80.2039474 139.821951,79.2434211 141.263415,79.2434211 Z M125.887805,122.467105 C125.887805,107.578947 137.9,95.0921053 153.27561,95.0921053 C168.170732,95.0921053 180.663415,107.098684 180.663415,122.467105 C180.663415,137.355263 168.65122,149.842105 153.27561,149.842105 C137.9,149.842105 125.887805,137.835526 125.887805,122.467105 Z M264.268293,206.993421 C264.268293,219.480263 257.060976,230.046053 246.490244,235.328947 L243.126829,212.276316 L233.997561,218.039474 L236.880488,238.690789 C235.439024,239.171053 233.517073,239.651316 232.07561,239.651316 L225.829268,239.651316 L225.829268,206.032895 L216.219512,206.032895 L216.219512,239.651316 L203.726829,239.651316 L207.570732,206.513158 L194.597561,200.269737 L189.792683,239.651316 L177.780488,239.651316 L177.780488,215.638158 L168.170732,215.638158 L168.170732,239.651316 L161.92439,239.651316 C160.963415,239.651316 159.521951,239.171053 158.560976,239.171053 L155.197561,204.592105 L146.068293,208.434211 L148.95122,235.809211 C137.9,230.526316 130.212195,219.480263 130.212195,206.993421 L130.212195,206.513158 C130.212195,194.026316 135.017073,183.460526 149.431707,178.177632 L149.431707,192.105263 L159.041463,192.105263 L159.041463,174.815789 C159.041463,174.335526 160.482927,172.894737 162.404878,172.894737 L163.365854,172.894737 L162.404878,184.421053 L171.534146,187.782895 L172.97561,172.894737 L182.585366,172.894737 L182.585366,192.105263 L197,192.105263 L197,172.894737 L214.297561,172.894737 L215.739024,190.184211 L224.868293,186.822368 L223.907317,172.894737 L232.556098,172.894737 C233.997561,172.894737 235.439024,173.855263 236.880488,173.855263 L236.4,185.861842 L245.529268,188.263158 L246.009756,177.217105 C256.580488,182.5 264.268293,193.546053 264.268293,206.032895 L264.268293,206.993421 L264.268293,206.993421 Z M241.204878,149.842105 C226.309756,149.842105 213.817073,137.835526 213.817073,122.467105 C213.817073,107.578947 225.829268,95.0921053 241.204878,95.0921053 C256.1,95.0921053 268.592683,107.098684 268.592683,122.467105 C268.112195,137.835526 256.1,149.842105 241.204878,149.842105 Z" id="Shape"></path>
                <ellipse id="Oval" cx="152.795122" cy="122.467105" rx="9.12926829" ry="9.125"></ellipse>
                <ellipse id="Oval" cx="241.204878" cy="122.467105" rx="9.12926829" ry="9.125"></ellipse>
            </g>
        </g>
    </g>
</svg>