<?xml version="1.0" encoding="UTF-8"?>
<svg width="600px" height="600px" viewBox="0 0 600 600" version="1.1" xmlns="http://www.w3.org/2000/svg" xmlns:xlink="http://www.w3.org/1999/xlink">
    <!-- Generator: Sketch 55.1 (78136) - https://sketchapp.com -->
    <title>monster2</title>
    <desc>Created with Sketch.</desc>
    <g id="monster2" stroke="none" stroke-width="1" fill="none" fill-rule="evenodd">
        <g id="noun_Monster_184225" transform="translate(107.000000, 106.000000)" fill="#000000" fill-rule="nonzero">
            <path d="M385.295689,270.253578 C382.097304,261.442477 380.014747,209.79269 380.014747,209.79269 L383.900905,210.971031 C383.900905,210.971031 368.062889,147.191552 355.793597,133.412183 L359.309415,130.377355 C359.309415,130.377355 328.859833,84.9799872 294.803049,77.6646575 C290.560981,70.1521361 285.15018,62.2692792 285.15018,62.2692792 L290.984226,62.5770906 C281.937367,51.2794512 259.187955,33.9602518 259.187955,33.9602518 L270.976286,34.3353969 C255.239273,22.6337552 236.11149,19.0025428 236.11149,19.0025428 C232.321525,10.7108739 221.750022,5.68970088 221.750022,5.68970088 C222.154028,12.9521255 215.699544,13.7601304 215.699544,13.7601304 C202.838671,11.8314997 212.876308,0.0432859746 212.876308,0.0432859746 C198.75532,-0.764718884 186.365788,11.3409253 186.365788,11.3409253 C179.627538,8.11371546 186.365788,0.0432859746 186.365788,0.0432859746 C173.57225,0.851290833 164.458057,15.3761401 164.458057,15.3761401 C157.195559,15.3761401 153.160304,4.07850072 153.160304,4.07850072 C147.109826,10.5329205 149.783964,18.194538 149.783964,18.194538 C128.501481,25.3703907 112.408556,36.7594115 112.408556,36.7594115 L119.671054,36.7594115 C110.133615,43.0935925 97.0034049,65.8764438 90.6499222,77.6309906 C56.5450426,84.8549388 26.0136965,130.377355 26.0136965,130.377355 L29.5295147,133.412183 C17.2554134,147.191552 1.41739781,210.971031 1.41739781,210.971031 L5.30355528,209.79269 C5.30355528,209.79269 3.22099812,261.437667 0.0226135618,270.253578 C0.0226135618,270.253578 2.24464915,269.541764 4.67830717,266.420364 C4.67830717,266.420364 0.195759192,293.002762 1.65787785,301.010667 C3.1151869,309.023382 4.88031041,319.782352 12.1379981,320.114211 C12.1379981,320.114211 13.970456,326.943776 25.0565859,323.66847 C25.0565859,323.66847 28.5194985,330.33451 37.0421112,328.651167 C42.6164386,327.554589 49.5951694,321.898555 52.84165,314.996847 C61.5758851,320.686547 67.4916941,304.646689 67.4916941,304.646689 C69.7762545,290.900987 68.1987055,281.065452 66.2700555,278.473103 C64.336596,275.875945 56.1602746,258.792413 56.1602746,258.792413 L63.4372006,261.548287 C53.6592821,243.719275 62.6772837,196.013322 62.6772837,196.013322 L66.1498155,202.674552 C66.5201548,186.02869 78.7894465,163.149648 78.7894465,163.149648 C76.7694142,176.063297 75.4082971,190.22262 75.7497788,204.064513 C76.8271294,248.17773 85.9220846,280.993309 83.2575657,295.518158 L90.808639,283.677039 C90.808639,283.677039 91.88118,313.804077 96.1905823,322.947037 C100.495175,332.089997 99.1484869,348.769526 98.0711363,353.074076 L105.333634,341.237766 C105.333634,341.237766 108.0222,370.5568 109.907564,378.896564 C111.788118,387.236329 122.816533,389.386199 136.802852,388.313668 C150.793981,387.236329 158.590344,391.271543 161.817586,379.165899 C165.044828,367.060255 155.901777,363.294375 169.618758,334.244677 C169.618758,334.244677 176.611918,335.413398 186.582221,336.091545 L186.370598,336.558071 C188.530109,336.543643 190.631904,336.495547 192.661556,336.413785 C194.691208,336.490738 196.793003,336.543643 198.952514,336.558071 L198.745701,336.091545 C208.716004,335.413398 215.704354,334.244677 215.704354,334.244677 C229.421335,363.294375 220.278284,367.060255 223.505526,379.165899 C226.732768,391.271543 234.533941,387.236329 248.52026,388.313668 C262.506579,389.391008 273.534994,387.236329 275.420358,378.896564 C277.305721,370.5568 279.994288,341.237766 279.994288,341.237766 L287.256785,353.074076 C286.179435,348.769526 284.837556,332.094807 289.142149,322.947037 C293.446742,313.804077 294.519283,283.677039 294.519283,283.677039 L302.075165,295.513348 C299.410647,280.988499 308.505602,248.172921 309.582952,204.059703 C309.919624,190.217811 308.563317,176.063297 306.543285,163.144838 C306.543285,163.144838 318.812576,186.023881 319.182916,202.669743 L322.650638,196.008512 C322.650638,196.008512 331.668639,243.714466 321.890721,261.543478 L329.162837,258.787604 C329.162837,258.787604 320.986516,275.871135 319.053056,278.468294 C317.119597,281.060642 315.546857,290.896178 317.831418,304.64188 C317.831418,304.64188 323.747227,320.681738 332.481462,314.992037 C335.727943,321.898555 342.711483,327.549779 348.281001,328.646357 C356.803613,330.324891 360.266526,323.663661 360.266526,323.663661 C371.352656,326.938966 373.185114,320.109401 373.185114,320.109401 C380.442802,319.777542 382.203115,309.018573 383.665234,301.005858 C385.122543,292.997952 380.644805,266.415554 380.644805,266.415554 C383.073653,269.536954 385.295689,270.253578 385.295689,270.253578 Z M52.7743156,300.558569 C48.8496813,295.013155 41.8036161,305.122835 41.8036161,305.122835 C41.8036161,305.122835 41.1350815,291.117417 47.8540939,288.371163 C47.8540939,288.371163 53.6400437,287.058155 54.5634871,295.022774 C54.8183959,297.225549 53.9526678,298.985846 52.7743156,300.558569 Z M123.869835,87.5915743 C123.869835,83.8160754 126.928741,80.7571999 130.704278,80.7571999 C134.479815,80.7571999 137.54353,83.8160754 137.54353,87.5915743 C137.54353,91.3670732 134.484624,94.4259544 130.704278,94.4259544 C126.933551,94.4307583 123.869835,91.3670732 123.869835,87.5915743 Z M258.014412,120.00796 C257.19678,120.54663 237.525513,133.186134 192.666366,133.186134 C147.807219,133.186134 128.131142,120.54663 127.318319,120.00796 C126.202492,119.272098 125.894677,117.771518 126.630546,116.655701 C127.366415,115.539885 128.86701,115.232074 129.982838,115.967935 C130.165603,116.088174 149.442483,128.342915 192.666366,128.342915 C235.885439,128.342915 255.167128,116.088174 255.354703,115.963126 C256.47534,115.236883 257.971126,115.544695 258.706995,116.660511 C259.433244,117.776327 259.12543,119.272098 258.014412,120.00796 Z M254.614024,94.4307583 C250.838488,94.4307583 247.779582,91.3718828 247.779582,87.5963839 C247.779582,83.820885 250.838488,80.7620095 254.614024,80.7620095 C258.389561,80.7620095 261.453277,83.820885 261.453277,87.5963839 C261.453277,91.3670732 258.389561,94.4307583 254.614024,94.4307583 Z M343.524306,305.122835 C343.524306,305.122835 336.47824,295.013155 332.553606,300.558569 C331.370444,298.985846 330.504716,297.225549 330.759625,295.022774 C331.683068,287.058155 337.469018,288.371163 337.469018,288.371163 C344.19284,291.122227 343.524306,305.122835 343.524306,305.122835 Z" id="Shape"></path>
        </g>
    </g>
</svg>