<?xml version="1.0" encoding="UTF-8"?>
<svg width="600px" height="600px" viewBox="0 0 600 600" version="1.1" xmlns="http://www.w3.org/2000/svg" xmlns:xlink="http://www.w3.org/1999/xlink">
    <!-- Generator: Sketch 55.1 (78136) - https://sketchapp.com -->
    <title>monster17</title>
    <desc>Created with Sketch.</desc>
    <g id="monster17" stroke="none" stroke-width="1" fill="none" fill-rule="evenodd">
        <g id="noun_Monster_2236406" transform="translate(154.000000, 122.000000)" fill="#000000" fill-rule="nonzero">
            <g id="Group">
                <path d="M275.994182,210.282835 C266.963596,198.847684 253.553333,191.350054 239.169738,186.818983 C233.221373,173.873744 223.920795,162.492262 212.186829,153.430498 L212.186829,139.136775 C224.461427,131.639145 231.869521,121.984101 231.869521,111.519805 C231.869521,103.158929 227.219205,95.3379867 219.162222,88.7572188 L232.680741,23.598323 L237.222801,1.80691576 C195.045077,3.91060606 176.065023,42.1534745 167.84598,69.4468079 C160.870208,68.4759527 153.57037,67.99066 145.999838,67.99066 C138.429684,67.99066 131.129467,68.4759527 124.15402,69.4468079 C115.934653,42.1534745 96.9545985,3.91066 54.7768748,1.80691576 L59.3192593,23.598323 L72.8377778,88.7572188 C64.7807948,95.3379867 60.1301541,103.158929 60.1301541,111.519805 C60.1301541,121.984047 67.5386267,131.639091 79.8132252,139.136775 L79.8132252,153.430498 C68.1333333,162.438593 58.8324304,173.873744 52.8844444,186.76499 C38.5005785,191.242067 25.0361881,198.739697 16.0058719,210.228842 C2.32496889,227.543172 5.24518519,249.280909 5.24518519,270.047468 C5.24518519,286.121623 5.24518519,302.195455 5.24518519,318.269286 C5.24518519,330.945259 24.9820059,330.945259 24.9820059,318.269286 C24.9820059,308.074687 24.9820059,297.826364 24.9820059,287.631764 C24.9820059,269.292586 19.5207948,241.945259 29.1999459,225.655455 C33.0393133,219.236667 39.0956096,214.274296 46.071057,210.552478 C45.6924844,213.734741 45.4762963,216.917273 45.4762963,220.099535 L45.4762963,330.19 L18.7637037,354.193084 L113.988094,354.193084 L113.988094,304.245152 C124.045818,307.211764 134.806504,308.883885 145.999838,308.883885 C157.193171,308.883885 167.953912,307.211764 178.011906,304.245152 L178.011906,354.193084 L273.236296,354.193084 L246.523704,330.19 L246.523704,220.099481 C246.523704,216.917219 246.361319,213.78868 245.983071,210.660087 C252.958519,214.381905 258.960633,219.290606 262.800054,225.763387 C272.479205,241.999199 267.01767,269.346202 267.01767,287.685704 C267.01767,297.934296 267.01767,308.128626 267.01767,318.323225 C267.01767,330.998875 286.754815,331.052868 286.754815,318.323225 C286.754815,302.249394 286.754815,286.175239 286.754815,270.101407 C286.754869,249.388896 289.674707,227.597165 275.994182,210.282835 Z M151.569684,105.262619 L188.34,88.7571648 C189.962168,88.0559527 191.800795,88.2718721 193.206775,89.1347945 C194.071798,89.6740806 194.774815,90.4292861 195.207516,91.4001412 C196.396983,93.9894479 195.207516,97.0637236 192.611744,98.2505521 L181.796929,103.105205 C186.123125,106.125812 188.988889,111.142121 188.988889,116.859697 C188.988889,126.191104 181.418735,133.742727 172.063704,133.742727 C162.763125,133.742727 155.192593,126.191104 155.192593,116.859697 C155.192593,116.212424 155.246721,115.565205 155.300849,114.917609 C152.813333,115.726808 150.055501,114.540303 148.97429,112.112976 C148.649846,111.411764 148.487461,110.710498 148.487461,110.009286 C148.487461,108.013582 149.676875,106.125865 151.569684,105.262619 Z M140.484553,105.262619 C142.377037,106.125812 143.566829,108.013582 143.566829,110.009286 C143.566829,110.710498 143.404444,111.411764 143.08,112.112976 C141.998464,114.540303 139.186829,115.726808 136.753441,114.917609 C136.80757,115.565205 136.861373,116.212424 136.861373,116.859697 C136.861373,126.191104 129.291219,133.742727 119.936188,133.742727 C110.63561,133.742727 103.065077,126.191104 103.065077,116.859697 C103.065077,111.142121 105.877037,106.125812 110.202909,103.105205 L99.4421681,98.2506061 C96.8467207,97.0637776 95.6569289,93.9895018 96.8467207,91.4001952 C97.2794215,90.42934 97.98206,89.6740806 98.7933333,89.1348485 C100.199313,88.27198 102.03767,88.0560067 103.713912,88.7572188 L140.484553,105.262619 Z M82.1384104,80.3966667 L67.5924844,21.8722085 C94.0888889,30.7723703 103.497724,68.5839394 103.497724,68.5839394 L91.168997,75.380357 L82.1384104,80.3966667 Z M145.999892,289.519805 C118.47635,289.519805 96.1978859,268.914902 96.1978859,243.455347 C96.1978859,232.505812 100.361373,222.419199 107.283017,214.489892 C116.421536,224.954135 130.372755,231.642565 145.999892,231.642565 C161.681481,231.642565 175.632701,224.954135 184.771219,214.489892 C191.692539,222.419145 195.85635,232.505812 195.85635,243.455347 C195.85635,268.914902 173.523704,289.519805 145.999892,289.519805 Z M184.662963,178.458431 L177.038681,157.260303 L166.818627,168.91105 L156.814707,155.372208 L148.325023,166.807684 L139.727407,156.181461 L129.777616,168.317825 L120.152593,156.073475 L106.525872,178.836061 L96.1978859,148.252532 L119.88233,148.360195 L172.009467,148.629838 L195.856296,148.737825 L184.662963,178.458431 Z M200.831057,75.380357 L188.50233,68.5839394 C188.50233,68.5839394 197.911165,30.7723703 224.407245,21.8722624 L209.861319,80.3967206 L200.831057,75.380357 Z" id="Shape"></path>
                <rect id="Rectangle" x="166.54831" y="114.540411" width="11.0851311" height="5.39393939"></rect>
                <rect id="Rectangle" x="114.420795" y="114.540411" width="11.031003" height="5.39393939"></rect>
            </g>
        </g>
    </g>
</svg>