<?xml version="1.0" encoding="UTF-8"?>
<svg width="200px" height="156px" viewBox="0 0 200 156" version="1.1" xmlns="http://www.w3.org/2000/svg" xmlns:xlink="http://www.w3.org/1999/xlink">
    <!-- Generator: Sketch 55.1 (78136) - https://sketchapp.com -->
    <title>logo</title>
    <desc>Created with Sketch.</desc>
    <g id="Page-1" stroke="none" stroke-width="1" fill="none" fill-rule="evenodd">
        <g id="fernandocomet_id" transform="translate(-620.000000, -435.000000)" fill="#FFFFFF">
            <g id="logo" transform="translate(620.000000, 435.000000)">
                <path d="M121.514643,0.00123181818 L108.440833,0.00123181818 C113.978929,0.00123181818 118.472976,4.49119394 118.472976,10.0254439 C118.472976,15.5585045 113.978929,20.0472773 108.440833,20.0472773 L107.412262,20.0472773 L107.412262,20.1840576 L115.574167,20.1840576 C145.663452,20.7299894 176.178929,46.0367242 176.178929,77.9279439 C176.178929,109.820353 147.490833,135.675398 115.574167,135.675398 L114.786071,135.675398 C114.678929,135.670641 114.578929,135.640906 114.469405,135.640906 L108.517024,135.640906 C108.409881,135.640906 108.309881,135.670641 108.202738,135.675398 L107.412262,135.675398 L107.412262,135.752709 C102.352738,136.311724 98.405119,140.544777 98.405119,145.745997 C98.405119,150.949595 102.352738,155.182648 107.412262,155.741664 L107.412262,155.853467 L108.517024,155.853467 L114.469405,155.853467 L121.514643,155.853467 C164.593214,155.853467 199.509881,120.968542 199.509881,77.9279439 C199.509881,34.8909136 164.593214,0.00123181818 121.514643,0.00123181818" id="right"></path>
                <path d="M136.760595,77.9274682 C136.760595,94.2792561 123.491548,107.53743 107.12369,107.53743 L89.6832143,107.53743 C73.3165476,107.53743 60.0475,94.2792561 60.0475,77.9274682 C60.0475,61.5780591 73.3165476,48.3198848 89.6832143,48.3198848 L107.12369,48.3198848 C123.491548,48.3198848 136.760595,61.5780591 136.760595,77.9274682" id="center"></path>
                <path d="M78.3552381,155.853705 L91.4314286,155.853705 C85.8885714,155.853705 81.4016667,151.363742 81.4016667,145.831871 C81.4016667,140.294053 85.9588095,135.666121 91.5016667,135.666121 L92.5290476,135.666121 L92.462381,135.675636 L84.3004762,135.675636 C52.3790476,135.675636 23.5980952,109.820591 23.5980952,77.9269924 C23.5980952,46.0369621 52.3790476,20.1842955 84.3004762,20.1842955 L85.0838095,20.1842955 C85.1909524,20.1842955 85.2909524,20.2164091 85.3980952,20.2164091 L91.3552381,20.2164091 C91.462381,20.2164091 91.562381,20.1842955 91.6671429,20.1842955 L92.462381,20.1842955 L92.462381,20.1046061 C97.5195238,19.5444015 101.467143,15.3125379 101.467143,10.1089394 C101.467143,4.90534091 97.5195238,0.672287879 92.462381,0.113272727 L92.462381,0.00146969697 L91.3552381,0.00146969697 L85.3980952,0.00146969697 L78.3552381,0.00146969697 C35.2790476,0.00146969697 0.357619048,34.8911515 0.357619048,77.9269924 C0.357619048,120.96878 35.2790476,155.853705 78.3552381,155.853705" id="left"></path>
            </g>
        </g>
    </g>
</svg>