<?xml version="1.0" encoding="UTF-8"?>
<svg width="500px" height="500px" viewBox="0 0 500 500" version="1.1" xmlns="http://www.w3.org/2000/svg" xmlns:xlink="http://www.w3.org/1999/xlink">
    <!-- Generator: Sketch 55.1 (78136) - https://sketchapp.com -->
    <title>logo</title>
    <desc>Created with Sketch.</desc>
    <g id="Page-1" stroke="none" stroke-width="1" fill="none" fill-rule="evenodd">
        <g id="fernandocomet_id-copy" transform="translate(-470.000000, -263.000000)">
            <g id="logo" transform="translate(470.000000, 263.000000)">
                <circle id="circle" stroke="#141413" cx="250" cy="250" r="249.5"></circle>
                <path d="M271.514643,172.001232 L258.440833,172.001232 C263.978929,172.001232 268.472976,176.491194 268.472976,182.025444 C268.472976,187.558505 263.978929,192.047277 258.440833,192.047277 L257.412262,192.047277 L257.412262,192.184058 L265.574167,192.184058 C295.663452,192.729989 326.178929,218.036724 326.178929,249.927944 C326.178929,281.820353 297.490833,307.675398 265.574167,307.675398 L264.786071,307.675398 C264.678929,307.670641 264.578929,307.640906 264.469405,307.640906 L258.517024,307.640906 C258.409881,307.640906 258.309881,307.670641 258.202738,307.675398 L257.412262,307.675398 L257.412262,307.752709 C252.352738,308.311724 248.405119,312.544777 248.405119,317.745997 C248.405119,322.949595 252.352738,327.182648 257.412262,327.741664 L257.412262,327.853467 L258.517024,327.853467 L264.469405,327.853467 L271.514643,327.853467 C314.593214,327.853467 349.509881,292.968542 349.509881,249.927944 C349.509881,206.890914 314.593214,172.001232 271.514643,172.001232" id="right" fill="#FFFFFF"></path>
                <path d="M286.760595,249.927468 C286.760595,266.279256 273.491548,279.53743 257.12369,279.53743 L239.683214,279.53743 C223.316548,279.53743 210.0475,266.279256 210.0475,249.927468 C210.0475,233.578059 223.316548,220.319885 239.683214,220.319885 L257.12369,220.319885 C273.491548,220.319885 286.760595,233.578059 286.760595,249.927468" id="center" fill="#FFFFFF"></path>
                <path d="M228.355238,327.853705 L241.431429,327.853705 C235.888571,327.853705 231.401667,323.363742 231.401667,317.831871 C231.401667,312.294053 235.95881,307.666121 241.501667,307.666121 L242.529048,307.666121 L242.462381,307.675636 L234.300476,307.675636 C202.379048,307.675636 173.598095,281.820591 173.598095,249.926992 C173.598095,218.036962 202.379048,192.184295 234.300476,192.184295 L235.08381,192.184295 C235.190952,192.184295 235.290952,192.216409 235.398095,192.216409 L241.355238,192.216409 C241.462381,192.216409 241.562381,192.184295 241.667143,192.184295 L242.462381,192.184295 L242.462381,192.104606 C247.519524,191.544402 251.467143,187.312538 251.467143,182.108939 C251.467143,176.905341 247.519524,172.672288 242.462381,172.113273 L242.462381,172.00147 L241.355238,172.00147 L235.398095,172.00147 L228.355238,172.00147 C185.279048,172.00147 150.357619,206.891152 150.357619,249.926992 C150.357619,292.96878 185.279048,327.853705 228.355238,327.853705" id="left" fill="#FFFFFF"></path>
            </g>
        </g>
    </g>
</svg>