<?xml version="1.0" encoding="UTF-8"?>
<svg width="502px" height="502px" viewBox="0 0 502 502" version="1.1" xmlns="http://www.w3.org/2000/svg" xmlns:xlink="http://www.w3.org/1999/xlink">
    <!-- Generator: Sketch 55.1 (78136) - https://sketchapp.com -->
    <title>Stroke 14</title>
    <desc>Created with Sketch.</desc>
    <g id="Page-1" stroke="none" stroke-width="1" fill="none" fill-rule="evenodd">
        <g id="Desktop-HD-Copy-3" transform="translate(-469.000000, -261.000000)" stroke="#777776" stroke-width="3.16015674">
            <path d="M564.651961,707.89171 L875.390174,316.097756 M915.929718,667.37238 L524.112417,356.622353 M748.673156,760.388286 L691.347912,263.606447 M968.393587,483.347309 L471.595879,540.657958 M651.435133,752.450859 L788.617537,271.549141 M960.461594,580.576846 L479.559474,443.417887 M841.555429,730.518909 L598.476172,293.475824 M938.509038,390.463078 L501.490962,633.531655 M605.839338,734.44812 L834.18173,289.557147 M942.443433,626.173602 L497.572368,397.826398 M796.581132,750.01222 L643.461004,273.971979 M958.017739,435.433056 L482.008596,588.551143 M699.648591,761.194143 L740.372477,262.790056 M969.220495,532.362372 L470.826908,491.642895 M881.810559,702.60887 L558.189441,321.396397 M910.625922,350.180765 L529.400413,673.808701 M584.597817,722.186453 L855.444318,301.803013 M930.20836,647.43137 L509.823242,376.563362 M772.869422,756.385337 L667.151645,267.604129 M964.385455,459.134731 L475.630346,564.860002 M675.341718,758.012852 L764.684616,265.971347 M966.018203,556.680291 L474.002865,467.309175 M862.375595,717.556726 L577.656006,306.427473 M925.557662,369.637206 L514.452872,654.362794 M628.202714,744.566101 L811.828888,279.433899 M952.592803,603.820289 L487.438798,420.169177 M819.544937,741.379543 L620.470863,282.609923 M949.385244,412.463499 L490.635824,611.525967 M724.192475,762 L715.828593,262 M970,507.828505 L470,516.166228 M899.749716,685.828084 L540.281886,338.166649 M893.834956,332.262299 L546.186112,691.732434" id="Stroke-14"></path>
        </g>
    </g>
</svg>