<?xml version="1.0" encoding="UTF-8"?>
<svg width="24px" height="18px" viewBox="0 0 24 18" version="1.1" xmlns="http://www.w3.org/2000/svg" xmlns:xlink="http://www.w3.org/1999/xlink">
    <!-- Generator: Sketch 55.1 (78136) - https://sketchapp.com -->
    <title>gmail copy</title>
    <desc>Created with Sketch.</desc>
    <g id="Page-1" stroke="none" stroke-width="1" fill="none" fill-rule="evenodd">
        <g id="gmail-copy" fill="#FFFFFF" fill-rule="nonzero">
            <path d="M24,1.5 L24,16.5 C24,17.35 23.35,18 22.5,18 L21,18 L21,4.387 L12,10.85 L3,4.387 L3,18 L1.5,18 C0.649,18 0,17.35 0,16.5 L0,1.5 C0,1.075 0.162,0.7 0.431,0.432 C0.7,0.16 1.076,0 1.5,0 L2,0 L12,7.25 L22,0 L22.5,0 C22.925,0 23.3,0.162 23.569,0.432 C23.839,0.7 24,1.075 24,1.5 Z" id="Path"></path>
        </g>
    </g>
</svg>